<svg width="114" height="44" viewBox="0 0 114 44" fill="none" xmlns="http://www.w3.org/2000/svg">
<path d="M0 22C0 9.84974 9.84974 0 22 0H92C104.15 0 114 9.84974 114 22C114 34.1503 104.15 44 92 44H22C9.84973 44 0 34.1503 0 22Z" fill="#D9D9D9"/>
<path d="M57 28.875C60.0376 28.875 62.5 26.4126 62.5 23.375C62.5 20.3374 60.0376 17.875 57 17.875C53.9624 17.875 51.5 20.3374 51.5 23.375C51.5 26.4126 53.9624 28.875 57 28.875Z" fill="black"/>
<path d="M72.125 12.375H67.0547C66.7969 12.375 66.4772 12.2083 66.228 11.9453L63.9988 8.42703C63.9635 8.37119 63.9241 8.31805 63.881 8.26805C63.111 7.37 62.0703 6.875 60.9531 6.875H53.0469C51.9297 6.875 50.889 7.37 50.119 8.26805C50.0759 8.31805 50.0365 8.37119 50.0012 8.42703L47.772 11.9505C47.5812 12.1584 47.3131 12.3802 47.0312 12.3802V11.6927C47.0312 11.328 46.8864 10.9782 46.6285 10.7204C46.3707 10.4625 46.0209 10.3177 45.6562 10.3177H43.5938C43.2291 10.3177 42.8793 10.4625 42.6215 10.7204C42.3636 10.9782 42.2188 11.328 42.2188 11.6927V12.3802H41.875C40.7813 12.3813 39.7328 12.8163 38.9594 13.5896C38.1861 14.3629 37.7511 15.4115 37.75 16.5052V33C37.7511 34.0937 38.1861 35.1422 38.9594 35.9156C39.7328 36.6889 40.7813 37.1239 41.875 37.125H72.125C73.2187 37.1239 74.2672 36.6889 75.0406 35.9156C75.8139 35.1422 76.2489 34.0937 76.25 33V16.5C76.2489 15.4063 75.8139 14.3578 75.0406 13.5844C74.2672 12.8111 73.2187 12.3761 72.125 12.375ZM57 31.625C55.3683 31.625 53.7733 31.1411 52.4165 30.2346C51.0598 29.3281 50.0024 28.0396 49.378 26.5321C48.7536 25.0246 48.5902 23.3658 48.9085 21.7655C49.2269 20.1652 50.0126 18.6952 51.1664 17.5414C52.3202 16.3876 53.7902 15.6019 55.3905 15.2835C56.9908 14.9652 58.6496 15.1286 60.1571 15.753C61.6646 16.3774 62.9531 17.4348 63.8596 18.7915C64.7661 20.1483 65.25 21.7433 65.25 23.375C65.2475 25.5623 64.3775 27.6592 62.8309 29.2059C61.2842 30.7525 59.1873 31.6225 57 31.625Z" fill="black"/>
</svg>
