<svg width="338" height="152" viewBox="0 0 338 152" fill="none" xmlns="http://www.w3.org/2000/svg">
<g filter="url(#filter0_d_512_379)">
<rect x="9" y="1" width="320" height="134" rx="20" fill="url(#paint0_linear_512_379)"/>
<rect x="9" y="1" width="320" height="134" rx="20" stroke="#E2E8F0"/>
</g>
<path fill-rule="evenodd" clip-rule="evenodd" d="M240.484 135.779C240.164 131.826 240 127.824 240 123.779C240 69.3767 269.594 22.6032 311.982 2C321.613 3.43976 329 11.7469 329 21.7792V115.779C329 126.825 320.046 135.779 309 135.779H240.484Z" fill="url(#paint1_linear_512_379)"/>
<path d="M136.055 70.6602L133.77 70.6543L133.934 69.7344L136.084 69.7402C136.451 69.7402 136.787 69.6777 137.092 69.5527C137.4 69.4277 137.654 69.2402 137.854 68.9902C138.057 68.7402 138.182 68.4219 138.229 68.0352C138.271 67.7031 138.238 67.418 138.129 67.1797C138.023 66.9375 137.855 66.75 137.625 66.6172C137.395 66.4844 137.115 66.4121 136.787 66.4004L134.771 66.3945L133.453 74H132.346L133.828 65.4688L136.816 65.4746C137.324 65.4863 137.775 65.5938 138.17 65.7969C138.568 65.9961 138.873 66.2832 139.084 66.6582C139.295 67.0332 139.377 67.4883 139.33 68.0234C139.279 68.625 139.1 69.1211 138.791 69.5117C138.486 69.9023 138.094 70.1914 137.613 70.3789C137.137 70.5664 136.617 70.6602 136.055 70.6602ZM139.729 70.9355L139.746 70.8008C139.793 70.375 139.898 69.9648 140.062 69.5703C140.23 69.1758 140.451 68.8242 140.725 68.5156C140.998 68.207 141.322 67.9648 141.697 67.7891C142.072 67.6133 142.49 67.5312 142.951 67.543C143.396 67.5508 143.777 67.6465 144.094 67.8301C144.414 68.0137 144.672 68.2578 144.867 68.5625C145.066 68.8633 145.205 69.2031 145.283 69.582C145.361 69.9609 145.381 70.3516 145.342 70.7539L145.33 70.8887C145.279 71.3145 145.17 71.7227 145.002 72.1133C144.834 72.5039 144.611 72.8516 144.334 73.1562C144.061 73.4609 143.736 73.7012 143.361 73.877C142.986 74.0488 142.57 74.1289 142.113 74.1172C141.672 74.1094 141.291 74.0156 140.971 73.8359C140.654 73.6523 140.398 73.4102 140.203 73.1094C140.008 72.8086 139.871 72.4707 139.793 72.0957C139.715 71.7207 139.693 71.334 139.729 70.9355ZM140.801 70.8008L140.789 70.9414C140.762 71.1875 140.76 71.4434 140.783 71.709C140.811 71.9746 140.873 72.2207 140.971 72.4473C141.072 72.6738 141.219 72.8594 141.41 73.0039C141.602 73.1484 141.85 73.2246 142.154 73.2324C142.479 73.2402 142.764 73.1777 143.01 73.0449C143.256 72.9082 143.465 72.7246 143.637 72.4941C143.812 72.2637 143.951 72.0078 144.053 71.7266C144.158 71.4453 144.229 71.166 144.264 70.8887L144.275 70.7539C144.303 70.5078 144.303 70.252 144.275 69.9863C144.252 69.7168 144.189 69.4668 144.088 69.2363C143.99 69.002 143.846 68.8125 143.654 68.668C143.463 68.5195 143.215 68.4414 142.91 68.4336C142.586 68.4219 142.299 68.4863 142.049 68.627C141.803 68.7637 141.594 68.9492 141.422 69.1836C141.25 69.418 141.111 69.6777 141.006 69.9629C140.904 70.2441 140.836 70.5234 140.801 70.8008ZM148.348 67.6602L147.246 74H146.186L147.287 67.6602H148.348ZM147.498 65.9961C147.498 65.8125 147.555 65.6602 147.668 65.5391C147.785 65.4141 147.936 65.3496 148.119 65.3457C148.303 65.3418 148.453 65.3984 148.57 65.5156C148.691 65.6328 148.75 65.7812 148.746 65.9609C148.746 66.1406 148.686 66.291 148.564 66.4121C148.447 66.5293 148.299 66.5898 148.119 66.5938C147.939 66.5977 147.791 66.5449 147.674 66.4355C147.557 66.3223 147.498 66.1758 147.498 65.9961ZM150.85 69.0781L149.994 74H148.934L150.035 67.6602H151.037L150.85 69.0781ZM150.357 70.5898L149.924 70.5781C149.979 70.1992 150.078 69.8281 150.223 69.4648C150.371 69.0977 150.564 68.7676 150.803 68.4746C151.045 68.1816 151.332 67.9512 151.664 67.7832C152 67.6113 152.383 67.5312 152.812 67.543C153.152 67.5508 153.436 67.6172 153.662 67.7422C153.893 67.8633 154.072 68.0293 154.201 68.2402C154.33 68.4512 154.416 68.6953 154.459 68.9727C154.502 69.2461 154.506 69.5371 154.471 69.8457L153.779 74H152.713L153.416 69.8281C153.443 69.5742 153.434 69.3457 153.387 69.1426C153.344 68.9355 153.246 68.7715 153.094 68.6504C152.945 68.5254 152.73 68.459 152.449 68.4512C152.152 68.4434 151.885 68.5 151.646 68.6211C151.408 68.7422 151.199 68.9082 151.02 69.1191C150.844 69.3262 150.699 69.5586 150.586 69.8164C150.477 70.0703 150.4 70.3281 150.357 70.5898ZM159.053 67.6602L158.906 68.4922H155.572L155.719 67.6602H159.053ZM157.113 66.1191H158.168L157.096 72.4414C157.084 72.5781 157.088 72.7012 157.107 72.8105C157.127 72.9199 157.174 73.0078 157.248 73.0742C157.322 73.1367 157.436 73.1699 157.588 73.1738C157.674 73.1738 157.758 73.168 157.84 73.1562C157.926 73.1406 158.012 73.127 158.098 73.1152L158.021 74.0059C157.896 74.041 157.768 74.0664 157.635 74.082C157.506 74.1016 157.377 74.1094 157.248 74.1055C156.924 74.1016 156.67 74.0195 156.486 73.8594C156.303 73.6992 156.178 73.4922 156.111 73.2383C156.045 72.9844 156.025 72.7129 156.053 72.4238L157.113 66.1191ZM163.98 73.2793L166.652 67.6602H167.824L164.104 74.9844C164.006 75.1914 163.891 75.3906 163.758 75.582C163.629 75.7734 163.48 75.9453 163.312 76.0977C163.148 76.25 162.963 76.3691 162.756 76.4551C162.549 76.541 162.32 76.584 162.07 76.584C161.965 76.5801 161.859 76.5684 161.754 76.5488C161.645 76.5293 161.539 76.5078 161.438 76.4844L161.502 75.5938C161.549 75.6016 161.596 75.6074 161.643 75.6113C161.689 75.6191 161.734 75.625 161.777 75.6289C162.039 75.6367 162.264 75.5996 162.451 75.5176C162.643 75.4355 162.807 75.3145 162.943 75.1543C163.084 74.9941 163.209 74.8027 163.318 74.5801L163.98 73.2793ZM163.688 67.6602L164.443 72.6406L164.514 73.7598L163.723 74.1465L162.574 67.6602H163.688ZM167.818 70.9355L167.836 70.8008C167.883 70.375 167.988 69.9648 168.152 69.5703C168.32 69.1758 168.541 68.8242 168.814 68.5156C169.088 68.207 169.412 67.9648 169.787 67.7891C170.162 67.6133 170.58 67.5312 171.041 67.543C171.486 67.5508 171.867 67.6465 172.184 67.8301C172.504 68.0137 172.762 68.2578 172.957 68.5625C173.156 68.8633 173.295 69.2031 173.373 69.582C173.451 69.9609 173.471 70.3516 173.432 70.7539L173.42 70.8887C173.369 71.3145 173.26 71.7227 173.092 72.1133C172.924 72.5039 172.701 72.8516 172.424 73.1562C172.15 73.4609 171.826 73.7012 171.451 73.877C171.076 74.0488 170.66 74.1289 170.203 74.1172C169.762 74.1094 169.381 74.0156 169.061 73.8359C168.744 73.6523 168.488 73.4102 168.293 73.1094C168.098 72.8086 167.961 72.4707 167.883 72.0957C167.805 71.7207 167.783 71.334 167.818 70.9355ZM168.891 70.8008L168.879 70.9414C168.852 71.1875 168.85 71.4434 168.873 71.709C168.9 71.9746 168.963 72.2207 169.061 72.4473C169.162 72.6738 169.309 72.8594 169.5 73.0039C169.691 73.1484 169.939 73.2246 170.244 73.2324C170.568 73.2402 170.854 73.1777 171.1 73.0449C171.346 72.9082 171.555 72.7246 171.727 72.4941C171.902 72.2637 172.041 72.0078 172.143 71.7266C172.248 71.4453 172.318 71.166 172.354 70.8887L172.365 70.7539C172.393 70.5078 172.393 70.252 172.365 69.9863C172.342 69.7168 172.279 69.4668 172.178 69.2363C172.08 69.002 171.936 68.8125 171.744 68.668C171.553 68.5195 171.305 68.4414 171 68.4336C170.676 68.4219 170.389 68.4863 170.139 68.627C169.893 68.7637 169.684 68.9492 169.512 69.1836C169.34 69.418 169.201 69.6777 169.096 69.9629C168.994 70.2441 168.926 70.5234 168.891 70.8008ZM178.219 72.4766L179.051 67.6602H180.117L179.016 74H178.002L178.219 72.4766ZM178.617 71.1992L179.051 71.1816C179 71.5801 178.91 71.959 178.781 72.3184C178.652 72.6738 178.477 72.9902 178.254 73.2676C178.035 73.541 177.762 73.7559 177.434 73.9121C177.109 74.0645 176.725 74.1348 176.279 74.123C175.932 74.1113 175.641 74.041 175.406 73.9121C175.176 73.7832 174.994 73.6094 174.861 73.3906C174.729 73.1719 174.641 72.9219 174.598 72.6406C174.555 72.3594 174.549 72.0625 174.58 71.75L175.266 67.6602H176.326L175.641 71.7676C175.625 71.9395 175.623 72.1094 175.635 72.2773C175.646 72.4414 175.682 72.5918 175.74 72.7285C175.799 72.8652 175.889 72.9766 176.01 73.0625C176.135 73.1445 176.299 73.1895 176.502 73.1973C176.924 73.2129 177.281 73.1348 177.574 72.9629C177.867 72.7871 178.1 72.5449 178.271 72.2363C178.443 71.9277 178.559 71.582 178.617 71.1992ZM182.59 68.7031L181.67 74H180.609L181.711 67.6602H182.742L182.59 68.7031ZM184.646 67.6074L184.547 68.627C184.465 68.6113 184.381 68.5977 184.295 68.5859C184.213 68.5742 184.131 68.5684 184.049 68.5684C183.795 68.5645 183.566 68.6035 183.363 68.6855C183.164 68.7637 182.986 68.875 182.83 69.0195C182.678 69.1641 182.547 69.334 182.438 69.5293C182.332 69.7246 182.248 69.9355 182.186 70.1621L181.852 70.3379C181.895 70.0215 181.965 69.6973 182.062 69.3652C182.164 69.0332 182.303 68.7266 182.479 68.4453C182.658 68.1641 182.883 67.9375 183.152 67.7656C183.426 67.5938 183.754 67.5137 184.137 67.5254C184.223 67.5254 184.307 67.5332 184.389 67.5488C184.475 67.5645 184.561 67.584 184.646 67.6074ZM190.154 73.2324C190.412 73.2363 190.652 73.1875 190.875 73.0859C191.098 72.9844 191.287 72.8398 191.443 72.6523C191.6 72.4648 191.711 72.248 191.777 72.002L192.785 71.9961C192.723 72.4219 192.557 72.7949 192.287 73.1152C192.021 73.4355 191.695 73.6855 191.309 73.8652C190.926 74.041 190.525 74.125 190.107 74.1172C189.662 74.1094 189.283 74.0176 188.971 73.8418C188.662 73.6621 188.414 73.4238 188.227 73.127C188.039 72.8301 187.91 72.4961 187.84 72.125C187.77 71.75 187.754 71.3652 187.793 70.9707L187.816 70.7188C187.863 70.293 187.967 69.8887 188.127 69.5059C188.287 69.1191 188.5 68.7773 188.766 68.4805C189.035 68.1797 189.354 67.9453 189.721 67.7773C190.088 67.6094 190.5 67.5312 190.957 67.543C191.402 67.5508 191.789 67.6562 192.117 67.8594C192.445 68.0586 192.699 68.3301 192.879 68.6738C193.059 69.0176 193.148 69.4082 193.148 69.8457L192.152 69.8398C192.148 69.5898 192.1 69.3594 192.006 69.1484C191.912 68.9375 191.773 68.7676 191.59 68.6387C191.406 68.5098 191.18 68.4395 190.91 68.4277C190.586 68.4199 190.303 68.4805 190.061 68.6094C189.822 68.7383 189.619 68.916 189.451 69.1426C189.287 69.3652 189.156 69.6133 189.059 69.8867C188.965 70.1602 188.9 70.4375 188.865 70.7188L188.836 70.9648C188.812 71.2148 188.809 71.4707 188.824 71.7324C188.844 71.9941 188.898 72.2383 188.988 72.4648C189.078 72.6875 189.217 72.8691 189.404 73.0098C189.592 73.1504 189.842 73.2246 190.154 73.2324ZM197.438 72.916L197.965 69.6406C197.992 69.3984 197.969 69.1855 197.895 69.002C197.824 68.8184 197.705 68.6758 197.537 68.5742C197.373 68.4727 197.166 68.418 196.916 68.4102C196.697 68.4062 196.482 68.4414 196.271 68.5156C196.064 68.5898 195.885 68.7012 195.732 68.8496C195.58 68.998 195.48 69.1855 195.434 69.4121L194.379 69.418C194.406 69.1016 194.506 68.8262 194.678 68.5918C194.85 68.3535 195.064 68.1562 195.322 68C195.58 67.8398 195.857 67.7227 196.154 67.6484C196.451 67.5703 196.74 67.5332 197.021 67.5371C197.447 67.5449 197.816 67.6367 198.129 67.8125C198.445 67.9844 198.684 68.2266 198.844 68.5391C199.004 68.8516 199.062 69.2266 199.02 69.6641L198.533 72.6172C198.498 72.832 198.477 73.0488 198.469 73.2676C198.465 73.4824 198.49 73.6934 198.545 73.9004L198.533 74L197.461 74.0059C197.418 73.8262 197.396 73.6445 197.396 73.4609C197.4 73.2773 197.414 73.0957 197.438 72.916ZM198.088 70.1562L197.965 70.918L196.963 70.9121C196.752 70.9121 196.529 70.9277 196.295 70.959C196.061 70.9902 195.838 71.0488 195.627 71.1348C195.416 71.2207 195.238 71.3457 195.094 71.5098C194.949 71.6699 194.861 71.8789 194.83 72.1367C194.807 72.3477 194.832 72.5312 194.906 72.6875C194.984 72.8398 195.102 72.959 195.258 73.0449C195.414 73.1309 195.596 73.1758 195.803 73.1797C196.072 73.1836 196.338 73.1309 196.6 73.0215C196.861 72.9121 197.09 72.7559 197.285 72.5527C197.48 72.3496 197.615 72.1152 197.689 71.8496L198.076 72.3711C198.002 72.6289 197.881 72.8672 197.713 73.0859C197.545 73.3008 197.346 73.4863 197.115 73.6426C196.889 73.7988 196.645 73.9199 196.383 74.0059C196.121 74.0918 195.859 74.1328 195.598 74.1289C195.242 74.1211 194.92 74.041 194.631 73.8887C194.346 73.7363 194.119 73.5234 193.951 73.25C193.787 72.9727 193.717 72.6504 193.74 72.2832C193.764 71.8809 193.869 71.543 194.057 71.2695C194.244 70.9961 194.484 70.7773 194.777 70.6133C195.074 70.4492 195.398 70.332 195.75 70.2617C196.102 70.1875 196.449 70.1504 196.793 70.1504L198.088 70.1562ZM201.867 68.9844L201 74H199.934L201.035 67.6602H202.043L201.867 68.9844ZM201.393 70.5898L200.912 70.5781C200.967 70.1836 201.064 69.8027 201.205 69.4355C201.346 69.0684 201.533 68.7402 201.768 68.4512C202.006 68.1621 202.293 67.9355 202.629 67.7715C202.965 67.6074 203.354 67.5312 203.795 67.543C204.123 67.5508 204.4 67.6152 204.627 67.7363C204.854 67.8535 205.035 68.0156 205.172 68.2227C205.312 68.4258 205.406 68.6602 205.453 68.9258C205.504 69.1914 205.516 69.4746 205.488 69.7754L204.779 74H203.719L204.422 69.8223C204.453 69.5566 204.438 69.3223 204.375 69.1191C204.316 68.916 204.205 68.7559 204.041 68.6387C203.877 68.5176 203.654 68.4531 203.373 68.4453C203.057 68.4375 202.781 68.4922 202.547 68.6094C202.316 68.7266 202.123 68.8887 201.967 69.0957C201.814 69.2988 201.691 69.5312 201.598 69.793C201.504 70.0508 201.436 70.3164 201.393 70.5898ZM205.488 69.9922L204.727 70.2148C204.773 69.8516 204.871 69.5078 205.02 69.1836C205.172 68.8594 205.369 68.5723 205.611 68.3223C205.854 68.0723 206.135 67.877 206.455 67.7363C206.775 67.5957 207.129 67.5293 207.516 67.5371C207.859 67.5449 208.15 67.6094 208.389 67.7305C208.627 67.8477 208.816 68.0098 208.957 68.2168C209.102 68.4238 209.197 68.666 209.244 68.9434C209.295 69.2168 209.303 69.5137 209.268 69.834L208.57 74H207.504L208.207 69.8164C208.238 69.5469 208.225 69.3105 208.166 69.1074C208.111 68.9043 208.002 68.7461 207.838 68.6328C207.674 68.5156 207.447 68.4551 207.158 68.4512C206.928 68.4434 206.717 68.4785 206.525 68.5566C206.334 68.6348 206.168 68.7461 206.027 68.8906C205.887 69.0312 205.77 69.1953 205.676 69.3828C205.586 69.5703 205.523 69.7734 205.488 69.9922ZM212.836 74.1172C212.402 74.1094 212.025 74.0234 211.705 73.8594C211.389 73.6914 211.129 73.4668 210.926 73.1855C210.727 72.9004 210.584 72.5762 210.498 72.2129C210.412 71.8496 210.387 71.4688 210.422 71.0703L210.445 70.8184C210.484 70.4121 210.584 70.0137 210.744 69.623C210.904 69.2285 211.117 68.873 211.383 68.5566C211.652 68.2402 211.969 67.9902 212.332 67.8066C212.699 67.6191 213.105 67.5312 213.551 67.543C213.992 67.5508 214.359 67.6445 214.652 67.8242C214.945 68.0039 215.174 68.2422 215.338 68.5391C215.506 68.832 215.615 69.1621 215.666 69.5293C215.717 69.8926 215.721 70.2656 215.678 70.6484L215.613 71.1348H211.014L211.154 70.25L214.664 70.2559L214.682 70.1621C214.721 69.8809 214.705 69.6094 214.635 69.3477C214.564 69.0859 214.436 68.8711 214.248 68.7031C214.064 68.5312 213.816 68.4414 213.504 68.4336C213.18 68.4219 212.898 68.4883 212.66 68.6328C212.422 68.7734 212.223 68.9648 212.062 69.207C211.902 69.4453 211.775 69.707 211.682 69.9922C211.592 70.2734 211.529 70.5488 211.494 70.8184L211.471 71.0645C211.447 71.3145 211.455 71.5664 211.494 71.8203C211.533 72.0742 211.607 72.3066 211.717 72.5176C211.83 72.7246 211.986 72.8945 212.186 73.0273C212.385 73.1562 212.631 73.2246 212.924 73.2324C213.279 73.2402 213.598 73.1641 213.879 73.0039C214.164 72.8398 214.424 72.6328 214.658 72.3828L215.262 72.8984C215.078 73.168 214.859 73.3945 214.605 73.5781C214.352 73.7617 214.074 73.8984 213.773 73.9883C213.473 74.0781 213.16 74.1211 212.836 74.1172ZM218.309 68.7031L217.389 74H216.328L217.43 67.6602H218.461L218.309 68.7031ZM220.365 67.6074L220.266 68.627C220.184 68.6113 220.1 68.5977 220.014 68.5859C219.932 68.5742 219.85 68.5684 219.768 68.5684C219.514 68.5645 219.285 68.6035 219.082 68.6855C218.883 68.7637 218.705 68.875 218.549 69.0195C218.396 69.1641 218.266 69.334 218.156 69.5293C218.051 69.7246 217.967 69.9355 217.904 70.1621L217.57 70.3379C217.613 70.0215 217.684 69.6973 217.781 69.3652C217.883 69.0332 218.021 68.7266 218.197 68.4453C218.377 68.1641 218.602 67.9375 218.871 67.7656C219.145 67.5938 219.473 67.5137 219.855 67.5254C219.941 67.5254 220.025 67.5332 220.107 67.5488C220.193 67.5645 220.279 67.584 220.365 67.6074ZM223.875 72.916L224.402 69.6406C224.43 69.3984 224.406 69.1855 224.332 69.002C224.262 68.8184 224.143 68.6758 223.975 68.5742C223.811 68.4727 223.604 68.418 223.354 68.4102C223.135 68.4062 222.92 68.4414 222.709 68.5156C222.502 68.5898 222.322 68.7012 222.17 68.8496C222.018 68.998 221.918 69.1855 221.871 69.4121L220.816 69.418C220.844 69.1016 220.943 68.8262 221.115 68.5918C221.287 68.3535 221.502 68.1562 221.76 68C222.018 67.8398 222.295 67.7227 222.592 67.6484C222.889 67.5703 223.178 67.5332 223.459 67.5371C223.885 67.5449 224.254 67.6367 224.566 67.8125C224.883 67.9844 225.121 68.2266 225.281 68.5391C225.441 68.8516 225.5 69.2266 225.457 69.6641L224.971 72.6172C224.936 72.832 224.914 73.0488 224.906 73.2676C224.902 73.4824 224.928 73.6934 224.982 73.9004L224.971 74L223.898 74.0059C223.855 73.8262 223.834 73.6445 223.834 73.4609C223.838 73.2773 223.852 73.0957 223.875 72.916ZM224.525 70.1562L224.402 70.918L223.4 70.9121C223.189 70.9121 222.967 70.9277 222.732 70.959C222.498 70.9902 222.275 71.0488 222.064 71.1348C221.854 71.2207 221.676 71.3457 221.531 71.5098C221.387 71.6699 221.299 71.8789 221.268 72.1367C221.244 72.3477 221.27 72.5312 221.344 72.6875C221.422 72.8398 221.539 72.959 221.695 73.0449C221.852 73.1309 222.033 73.1758 222.24 73.1797C222.51 73.1836 222.775 73.1309 223.037 73.0215C223.299 72.9121 223.527 72.7559 223.723 72.5527C223.918 72.3496 224.053 72.1152 224.127 71.8496L224.514 72.3711C224.439 72.6289 224.318 72.8672 224.15 73.0859C223.982 73.3008 223.783 73.4863 223.553 73.6426C223.326 73.7988 223.082 73.9199 222.82 74.0059C222.559 74.0918 222.297 74.1328 222.035 74.1289C221.68 74.1211 221.357 74.041 221.068 73.8887C220.783 73.7363 220.557 73.5234 220.389 73.25C220.225 72.9727 220.154 72.6504 220.178 72.2832C220.201 71.8809 220.307 71.543 220.494 71.2695C220.682 70.9961 220.922 70.7773 221.215 70.6133C221.512 70.4492 221.836 70.332 222.188 70.2617C222.539 70.1875 222.887 70.1504 223.23 70.1504L224.525 70.1562ZM233.168 72.916L233.695 69.6406C233.723 69.3984 233.699 69.1855 233.625 69.002C233.555 68.8184 233.436 68.6758 233.268 68.5742C233.104 68.4727 232.896 68.418 232.646 68.4102C232.428 68.4062 232.213 68.4414 232.002 68.5156C231.795 68.5898 231.615 68.7012 231.463 68.8496C231.311 68.998 231.211 69.1855 231.164 69.4121L230.109 69.418C230.137 69.1016 230.236 68.8262 230.408 68.5918C230.58 68.3535 230.795 68.1562 231.053 68C231.311 67.8398 231.588 67.7227 231.885 67.6484C232.182 67.5703 232.471 67.5332 232.752 67.5371C233.178 67.5449 233.547 67.6367 233.859 67.8125C234.176 67.9844 234.414 68.2266 234.574 68.5391C234.734 68.8516 234.793 69.2266 234.75 69.6641L234.264 72.6172C234.229 72.832 234.207 73.0488 234.199 73.2676C234.195 73.4824 234.221 73.6934 234.275 73.9004L234.264 74L233.191 74.0059C233.148 73.8262 233.127 73.6445 233.127 73.4609C233.131 73.2773 233.145 73.0957 233.168 72.916ZM233.818 70.1562L233.695 70.918L232.693 70.9121C232.482 70.9121 232.26 70.9277 232.025 70.959C231.791 70.9902 231.568 71.0488 231.357 71.1348C231.146 71.2207 230.969 71.3457 230.824 71.5098C230.68 71.6699 230.592 71.8789 230.561 72.1367C230.537 72.3477 230.562 72.5312 230.637 72.6875C230.715 72.8398 230.832 72.959 230.988 73.0449C231.145 73.1309 231.326 73.1758 231.533 73.1797C231.803 73.1836 232.068 73.1309 232.33 73.0215C232.592 72.9121 232.82 72.7559 233.016 72.5527C233.211 72.3496 233.346 72.1152 233.42 71.8496L233.807 72.3711C233.732 72.6289 233.611 72.8672 233.443 73.0859C233.275 73.3008 233.076 73.4863 232.846 73.6426C232.619 73.7988 232.375 73.9199 232.113 74.0059C231.852 74.0918 231.59 74.1328 231.328 74.1289C230.973 74.1211 230.65 74.041 230.361 73.8887C230.076 73.7363 229.85 73.5234 229.682 73.25C229.518 72.9727 229.447 72.6504 229.471 72.2832C229.494 71.8809 229.6 71.543 229.787 71.2695C229.975 70.9961 230.215 70.7773 230.508 70.6133C230.805 70.4492 231.129 70.332 231.48 70.2617C231.832 70.1875 232.18 70.1504 232.523 70.1504L233.818 70.1562ZM239.361 67.6602L239.215 68.4922H235.881L236.027 67.6602H239.361ZM237.422 66.1191H238.477L237.404 72.4414C237.393 72.5781 237.396 72.7012 237.416 72.8105C237.436 72.9199 237.482 73.0078 237.557 73.0742C237.631 73.1367 237.744 73.1699 237.896 73.1738C237.982 73.1738 238.066 73.168 238.148 73.1562C238.234 73.1406 238.32 73.127 238.406 73.1152L238.33 74.0059C238.205 74.041 238.076 74.0664 237.943 74.082C237.814 74.1016 237.686 74.1094 237.557 74.1055C237.232 74.1016 236.979 74.0195 236.795 73.8594C236.611 73.6992 236.486 73.4922 236.42 73.2383C236.354 72.9844 236.334 72.7129 236.361 72.4238L237.422 66.1191ZM246.27 72.916L246.797 69.6406C246.824 69.3984 246.801 69.1855 246.727 69.002C246.656 68.8184 246.537 68.6758 246.369 68.5742C246.205 68.4727 245.998 68.418 245.748 68.4102C245.529 68.4062 245.314 68.4414 245.104 68.5156C244.896 68.5898 244.717 68.7012 244.564 68.8496C244.412 68.998 244.312 69.1855 244.266 69.4121L243.211 69.418C243.238 69.1016 243.338 68.8262 243.51 68.5918C243.682 68.3535 243.896 68.1562 244.154 68C244.412 67.8398 244.689 67.7227 244.986 67.6484C245.283 67.5703 245.572 67.5332 245.854 67.5371C246.279 67.5449 246.648 67.6367 246.961 67.8125C247.277 67.9844 247.516 68.2266 247.676 68.5391C247.836 68.8516 247.895 69.2266 247.852 69.6641L247.365 72.6172C247.33 72.832 247.309 73.0488 247.301 73.2676C247.297 73.4824 247.322 73.6934 247.377 73.9004L247.365 74L246.293 74.0059C246.25 73.8262 246.229 73.6445 246.229 73.4609C246.232 73.2773 246.246 73.0957 246.27 72.916ZM246.92 70.1562L246.797 70.918L245.795 70.9121C245.584 70.9121 245.361 70.9277 245.127 70.959C244.893 70.9902 244.67 71.0488 244.459 71.1348C244.248 71.2207 244.07 71.3457 243.926 71.5098C243.781 71.6699 243.693 71.8789 243.662 72.1367C243.639 72.3477 243.664 72.5312 243.738 72.6875C243.816 72.8398 243.934 72.959 244.09 73.0449C244.246 73.1309 244.428 73.1758 244.635 73.1797C244.904 73.1836 245.17 73.1309 245.432 73.0215C245.693 72.9121 245.922 72.7559 246.117 72.5527C246.312 72.3496 246.447 72.1152 246.521 71.8496L246.908 72.3711C246.834 72.6289 246.713 72.8672 246.545 73.0859C246.377 73.3008 246.178 73.4863 245.947 73.6426C245.721 73.7988 245.477 73.9199 245.215 74.0059C244.953 74.0918 244.691 74.1328 244.43 74.1289C244.074 74.1211 243.752 74.041 243.463 73.8887C243.178 73.7363 242.951 73.5234 242.783 73.25C242.619 72.9727 242.549 72.6504 242.572 72.2832C242.596 71.8809 242.701 71.543 242.889 71.2695C243.076 70.9961 243.316 70.7773 243.609 70.6133C243.906 70.4492 244.23 70.332 244.582 70.2617C244.934 70.1875 245.281 70.1504 245.625 70.1504L246.92 70.1562ZM258.105 65.4688H259.207L258.223 71.2285C258.137 71.8223 257.936 72.3379 257.619 72.7754C257.303 73.2129 256.9 73.5508 256.412 73.7891C255.928 74.0234 255.387 74.1348 254.789 74.123C254.223 74.1113 253.734 73.9844 253.324 73.7422C252.918 73.5 252.615 73.166 252.416 72.7402C252.221 72.3105 252.156 71.8105 252.223 71.2402L253.207 65.4688H254.297L253.318 71.2461C253.275 71.6172 253.301 71.9473 253.395 72.2363C253.492 72.5254 253.66 72.7559 253.898 72.9277C254.141 73.0957 254.457 73.1855 254.848 73.1973C255.262 73.209 255.627 73.1367 255.943 72.9805C256.264 72.8203 256.523 72.5918 256.723 72.2949C256.926 71.998 257.059 71.6465 257.121 71.2402L258.105 65.4688ZM260.918 65.4688L263.59 65.4746C264.109 65.4863 264.568 65.5859 264.967 65.7734C265.365 65.9609 265.668 66.2383 265.875 66.6055C266.086 66.9688 266.168 67.4277 266.121 67.9824C266.082 68.4238 265.957 68.8047 265.746 69.125C265.539 69.4414 265.271 69.707 264.943 69.9219C264.615 70.1328 264.252 70.3008 263.854 70.4258L263.525 70.543H260.877L261.029 69.623L262.91 69.6289C263.254 69.6289 263.576 69.5664 263.877 69.4414C264.182 69.3164 264.436 69.1328 264.639 68.8906C264.846 68.6445 264.973 68.3418 265.02 67.9824C265.062 67.6387 265.029 67.3516 264.92 67.1211C264.811 66.8906 264.639 66.7148 264.404 66.5938C264.174 66.4727 263.895 66.4082 263.566 66.4004L261.861 66.3945L260.543 74H259.436L260.918 65.4688ZM264.305 74L262.963 70.1328L264.053 70.127L265.482 73.9238L265.477 74H264.305ZM271.799 73.0801L271.635 74H267.492L267.65 73.0801H271.799ZM269.197 65.4688L267.715 74H266.607L268.09 65.4688H269.197ZM279.357 67.6602L279.211 68.4922H275.877L276.023 67.6602H279.357ZM277.418 66.1191H278.473L277.4 72.4414C277.389 72.5781 277.393 72.7012 277.412 72.8105C277.432 72.9199 277.479 73.0078 277.553 73.0742C277.627 73.1367 277.74 73.1699 277.893 73.1738C277.979 73.1738 278.062 73.168 278.145 73.1562C278.23 73.1406 278.316 73.127 278.402 73.1152L278.326 74.0059C278.201 74.041 278.072 74.0664 277.939 74.082C277.811 74.1016 277.682 74.1094 277.553 74.1055C277.229 74.1016 276.975 74.0195 276.791 73.8594C276.607 73.6992 276.482 73.4922 276.416 73.2383C276.35 72.9844 276.33 72.7129 276.357 72.4238L277.418 66.1191ZM279.639 70.9355L279.656 70.8008C279.703 70.375 279.809 69.9648 279.973 69.5703C280.141 69.1758 280.361 68.8242 280.635 68.5156C280.908 68.207 281.232 67.9648 281.607 67.7891C281.982 67.6133 282.4 67.5312 282.861 67.543C283.307 67.5508 283.688 67.6465 284.004 67.8301C284.324 68.0137 284.582 68.2578 284.777 68.5625C284.977 68.8633 285.115 69.2031 285.193 69.582C285.271 69.9609 285.291 70.3516 285.252 70.7539L285.24 70.8887C285.189 71.3145 285.08 71.7227 284.912 72.1133C284.744 72.5039 284.521 72.8516 284.244 73.1562C283.971 73.4609 283.646 73.7012 283.271 73.877C282.896 74.0488 282.48 74.1289 282.023 74.1172C281.582 74.1094 281.201 74.0156 280.881 73.8359C280.564 73.6523 280.309 73.4102 280.113 73.1094C279.918 72.8086 279.781 72.4707 279.703 72.0957C279.625 71.7207 279.604 71.334 279.639 70.9355ZM280.711 70.8008L280.699 70.9414C280.672 71.1875 280.67 71.4434 280.693 71.709C280.721 71.9746 280.783 72.2207 280.881 72.4473C280.982 72.6738 281.129 72.8594 281.32 73.0039C281.512 73.1484 281.76 73.2246 282.064 73.2324C282.389 73.2402 282.674 73.1777 282.92 73.0449C283.166 72.9082 283.375 72.7246 283.547 72.4941C283.723 72.2637 283.861 72.0078 283.963 71.7266C284.068 71.4453 284.139 71.166 284.174 70.8887L284.186 70.7539C284.213 70.5078 284.213 70.252 284.186 69.9863C284.162 69.7168 284.1 69.4668 283.998 69.2363C283.9 69.002 283.756 68.8125 283.564 68.668C283.373 68.5195 283.125 68.4414 282.82 68.4336C282.496 68.4219 282.209 68.4863 281.959 68.627C281.713 68.7637 281.504 68.9492 281.332 69.1836C281.16 69.418 281.021 69.6777 280.916 69.9629C280.814 70.2441 280.746 70.5234 280.711 70.8008ZM136.102 88.2832C136.137 88.041 136.092 87.8516 135.967 87.7148C135.846 87.5781 135.686 87.4746 135.486 87.4043C135.291 87.3301 135.1 87.2695 134.912 87.2227C134.678 87.1641 134.441 87.0918 134.203 87.0059C133.965 86.9199 133.746 86.8105 133.547 86.6777C133.352 86.541 133.195 86.373 133.078 86.1738C132.965 85.9707 132.914 85.7246 132.926 85.4355C132.941 85.123 133.023 84.8477 133.172 84.6094C133.324 84.3711 133.52 84.1719 133.758 84.0117C134 83.8516 134.264 83.7324 134.549 83.6543C134.834 83.5762 135.117 83.5391 135.398 83.543C135.797 83.5508 136.158 83.6328 136.482 83.7891C136.811 83.9453 137.07 84.1699 137.262 84.4629C137.453 84.7559 137.543 85.1113 137.531 85.5293L136.482 85.5234C136.49 85.3008 136.445 85.1094 136.348 84.9492C136.25 84.7891 136.115 84.666 135.943 84.5801C135.771 84.4902 135.576 84.4434 135.357 84.4395C135.15 84.4355 134.947 84.4688 134.748 84.5391C134.549 84.6055 134.379 84.7109 134.238 84.8555C134.098 84.9961 134.012 85.1797 133.98 85.4062C133.957 85.5742 133.982 85.7129 134.057 85.8223C134.131 85.9277 134.232 86.0137 134.361 86.0801C134.494 86.1426 134.633 86.1953 134.777 86.2383C134.926 86.2773 135.061 86.3125 135.182 86.3438C135.502 86.4336 135.818 86.5469 136.131 86.6836C136.443 86.8203 136.697 87.0098 136.893 87.252C137.088 87.4902 137.176 87.8047 137.156 88.1953C137.141 88.5273 137.053 88.8164 136.893 89.0625C136.736 89.3047 136.533 89.5059 136.283 89.666C136.037 89.8223 135.766 89.9375 135.469 90.0117C135.172 90.0859 134.875 90.1211 134.578 90.1172C134.168 90.1094 133.785 90.0254 133.43 89.8652C133.078 89.7012 132.797 89.4668 132.586 89.1621C132.375 88.8535 132.275 88.4785 132.287 88.0371L133.348 88.043C133.348 88.2969 133.4 88.5117 133.506 88.6875C133.615 88.8594 133.766 88.9902 133.957 89.0801C134.148 89.1699 134.367 89.2168 134.613 89.2207C134.82 89.2246 135.031 89.1973 135.246 89.1387C135.465 89.0801 135.652 88.9824 135.809 88.8457C135.969 88.7051 136.066 88.5176 136.102 88.2832ZM140.842 89.2324C141.1 89.2363 141.34 89.1875 141.562 89.0859C141.785 88.9844 141.975 88.8398 142.131 88.6523C142.287 88.4648 142.398 88.248 142.465 88.002L143.473 87.9961C143.41 88.4219 143.244 88.7949 142.975 89.1152C142.709 89.4355 142.383 89.6855 141.996 89.8652C141.613 90.041 141.213 90.125 140.795 90.1172C140.35 90.1094 139.971 90.0176 139.658 89.8418C139.35 89.6621 139.102 89.4238 138.914 89.127C138.727 88.8301 138.598 88.4961 138.527 88.125C138.457 87.75 138.441 87.3652 138.48 86.9707L138.504 86.7188C138.551 86.293 138.654 85.8887 138.814 85.5059C138.975 85.1191 139.188 84.7773 139.453 84.4805C139.723 84.1797 140.041 83.9453 140.408 83.7773C140.775 83.6094 141.188 83.5312 141.645 83.543C142.09 83.5508 142.477 83.6562 142.805 83.8594C143.133 84.0586 143.387 84.3301 143.566 84.6738C143.746 85.0176 143.836 85.4082 143.836 85.8457L142.84 85.8398C142.836 85.5898 142.787 85.3594 142.693 85.1484C142.6 84.9375 142.461 84.7676 142.277 84.6387C142.094 84.5098 141.867 84.4395 141.598 84.4277C141.273 84.4199 140.99 84.4805 140.748 84.6094C140.51 84.7383 140.307 84.916 140.139 85.1426C139.975 85.3652 139.844 85.6133 139.746 85.8867C139.652 86.1602 139.588 86.4375 139.553 86.7188L139.523 86.9648C139.5 87.2148 139.496 87.4707 139.512 87.7324C139.531 87.9941 139.586 88.2383 139.676 88.4648C139.766 88.6875 139.904 88.8691 140.092 89.0098C140.279 89.1504 140.529 89.2246 140.842 89.2324ZM148.125 88.916L148.652 85.6406C148.68 85.3984 148.656 85.1855 148.582 85.002C148.512 84.8184 148.393 84.6758 148.225 84.5742C148.061 84.4727 147.854 84.418 147.604 84.4102C147.385 84.4062 147.17 84.4414 146.959 84.5156C146.752 84.5898 146.572 84.7012 146.42 84.8496C146.268 84.998 146.168 85.1855 146.121 85.4121L145.066 85.418C145.094 85.1016 145.193 84.8262 145.365 84.5918C145.537 84.3535 145.752 84.1562 146.01 84C146.268 83.8398 146.545 83.7227 146.842 83.6484C147.139 83.5703 147.428 83.5332 147.709 83.5371C148.135 83.5449 148.504 83.6367 148.816 83.8125C149.133 83.9844 149.371 84.2266 149.531 84.5391C149.691 84.8516 149.75 85.2266 149.707 85.6641L149.221 88.6172C149.186 88.832 149.164 89.0488 149.156 89.2676C149.152 89.4824 149.178 89.6934 149.232 89.9004L149.221 90L148.148 90.0059C148.105 89.8262 148.084 89.6445 148.084 89.4609C148.088 89.2773 148.102 89.0957 148.125 88.916ZM148.775 86.1562L148.652 86.918L147.65 86.9121C147.439 86.9121 147.217 86.9277 146.982 86.959C146.748 86.9902 146.525 87.0488 146.314 87.1348C146.104 87.2207 145.926 87.3457 145.781 87.5098C145.637 87.6699 145.549 87.8789 145.518 88.1367C145.494 88.3477 145.52 88.5312 145.594 88.6875C145.672 88.8398 145.789 88.959 145.945 89.0449C146.102 89.1309 146.283 89.1758 146.49 89.1797C146.76 89.1836 147.025 89.1309 147.287 89.0215C147.549 88.9121 147.777 88.7559 147.973 88.5527C148.168 88.3496 148.303 88.1152 148.377 87.8496L148.764 88.3711C148.689 88.6289 148.568 88.8672 148.4 89.0859C148.232 89.3008 148.033 89.4863 147.803 89.6426C147.576 89.7988 147.332 89.9199 147.07 90.0059C146.809 90.0918 146.547 90.1328 146.285 90.1289C145.93 90.1211 145.607 90.041 145.318 89.8887C145.033 89.7363 144.807 89.5234 144.639 89.25C144.475 88.9727 144.404 88.6504 144.428 88.2832C144.451 87.8809 144.557 87.543 144.744 87.2695C144.932 86.9961 145.172 86.7773 145.465 86.6133C145.762 86.4492 146.086 86.332 146.438 86.2617C146.789 86.1875 147.137 86.1504 147.48 86.1504L148.775 86.1562ZM152.549 85.0781L151.693 90H150.633L151.734 83.6602H152.736L152.549 85.0781ZM152.057 86.5898L151.623 86.5781C151.678 86.1992 151.777 85.8281 151.922 85.4648C152.07 85.0977 152.264 84.7676 152.502 84.4746C152.744 84.1816 153.031 83.9512 153.363 83.7832C153.699 83.6113 154.082 83.5312 154.512 83.543C154.852 83.5508 155.135 83.6172 155.361 83.7422C155.592 83.8633 155.771 84.0293 155.9 84.2402C156.029 84.4512 156.115 84.6953 156.158 84.9727C156.201 85.2461 156.205 85.5371 156.17 85.8457L155.479 90H154.412L155.115 85.8281C155.143 85.5742 155.133 85.3457 155.086 85.1426C155.043 84.9355 154.945 84.7715 154.793 84.6504C154.645 84.5254 154.43 84.459 154.148 84.4512C153.852 84.4434 153.584 84.5 153.346 84.6211C153.107 84.7422 152.898 84.9082 152.719 85.1191C152.543 85.3262 152.398 85.5586 152.285 85.8164C152.176 86.0703 152.1 86.3281 152.057 86.5898ZM162.27 83.6602L161.168 90H160.107L161.209 83.6602H162.27ZM161.42 81.9961C161.42 81.8125 161.477 81.6602 161.59 81.5391C161.707 81.4141 161.857 81.3496 162.041 81.3457C162.225 81.3418 162.375 81.3984 162.492 81.5156C162.613 81.6328 162.672 81.7812 162.668 81.9609C162.668 82.1406 162.607 82.291 162.486 82.4121C162.369 82.5293 162.221 82.5898 162.041 82.5938C161.861 82.5977 161.713 82.5449 161.596 82.4355C161.479 82.3223 161.42 82.1758 161.42 81.9961ZM166.541 83.6602L166.395 84.4922H163.061L163.207 83.6602H166.541ZM164.602 82.1191H165.656L164.584 88.4414C164.572 88.5781 164.576 88.7012 164.596 88.8105C164.615 88.9199 164.662 89.0078 164.736 89.0742C164.811 89.1367 164.924 89.1699 165.076 89.1738C165.162 89.1738 165.246 89.168 165.328 89.1562C165.414 89.1406 165.5 89.127 165.586 89.1152L165.51 90.0059C165.385 90.041 165.256 90.0664 165.123 90.082C164.994 90.1016 164.865 90.1094 164.736 90.1055C164.412 90.1016 164.158 90.0195 163.975 89.8594C163.791 89.6992 163.666 89.4922 163.6 89.2383C163.533 88.9844 163.514 88.7129 163.541 88.4238L164.602 82.1191ZM171.193 90H170.133L171.328 82.998C171.383 82.5723 171.508 82.1992 171.703 81.8789C171.898 81.5547 172.158 81.3027 172.482 81.123C172.807 80.9434 173.191 80.8555 173.637 80.8594C173.766 80.8633 173.895 80.875 174.023 80.8945C174.152 80.9102 174.279 80.9316 174.404 80.959L174.275 81.8496C174.186 81.8301 174.092 81.8145 173.994 81.8027C173.9 81.791 173.807 81.7832 173.713 81.7793C173.463 81.7793 173.246 81.832 173.062 81.9375C172.879 82.0391 172.73 82.1816 172.617 82.3652C172.508 82.5449 172.434 82.7539 172.395 82.9922L171.193 90ZM173.602 83.6602L173.455 84.4922H170.115L170.268 83.6602H173.602ZM173.947 86.9355L173.965 86.8008C174.012 86.375 174.117 85.9648 174.281 85.5703C174.449 85.1758 174.67 84.8242 174.943 84.5156C175.217 84.207 175.541 83.9648 175.916 83.7891C176.291 83.6133 176.709 83.5312 177.17 83.543C177.615 83.5508 177.996 83.6465 178.312 83.8301C178.633 84.0137 178.891 84.2578 179.086 84.5625C179.285 84.8633 179.424 85.2031 179.502 85.582C179.58 85.9609 179.6 86.3516 179.561 86.7539L179.549 86.8887C179.498 87.3145 179.389 87.7227 179.221 88.1133C179.053 88.5039 178.83 88.8516 178.553 89.1562C178.279 89.4609 177.955 89.7012 177.58 89.877C177.205 90.0488 176.789 90.1289 176.332 90.1172C175.891 90.1094 175.51 90.0156 175.189 89.8359C174.873 89.6523 174.617 89.4102 174.422 89.1094C174.227 88.8086 174.09 88.4707 174.012 88.0957C173.934 87.7207 173.912 87.334 173.947 86.9355ZM175.02 86.8008L175.008 86.9414C174.98 87.1875 174.979 87.4434 175.002 87.709C175.029 87.9746 175.092 88.2207 175.189 88.4473C175.291 88.6738 175.438 88.8594 175.629 89.0039C175.82 89.1484 176.068 89.2246 176.373 89.2324C176.697 89.2402 176.982 89.1777 177.229 89.0449C177.475 88.9082 177.684 88.7246 177.855 88.4941C178.031 88.2637 178.17 88.0078 178.271 87.7266C178.377 87.4453 178.447 87.166 178.482 86.8887L178.494 86.7539C178.521 86.5078 178.521 86.252 178.494 85.9863C178.471 85.7168 178.408 85.4668 178.307 85.2363C178.209 85.002 178.064 84.8125 177.873 84.668C177.682 84.5195 177.434 84.4414 177.129 84.4336C176.805 84.4219 176.518 84.4863 176.268 84.627C176.021 84.7637 175.812 84.9492 175.641 85.1836C175.469 85.418 175.33 85.6777 175.225 85.9629C175.123 86.2441 175.055 86.5234 175.02 86.8008ZM182.297 84.7031L181.377 90H180.316L181.418 83.6602H182.449L182.297 84.7031ZM184.354 83.6074L184.254 84.627C184.172 84.6113 184.088 84.5977 184.002 84.5859C183.92 84.5742 183.838 84.5684 183.756 84.5684C183.502 84.5645 183.273 84.6035 183.07 84.6855C182.871 84.7637 182.693 84.875 182.537 85.0195C182.385 85.1641 182.254 85.334 182.145 85.5293C182.039 85.7246 181.955 85.9355 181.893 86.1621L181.559 86.3379C181.602 86.0215 181.672 85.6973 181.77 85.3652C181.871 85.0332 182.01 84.7266 182.186 84.4453C182.365 84.1641 182.59 83.9375 182.859 83.7656C183.133 83.5938 183.461 83.5137 183.844 83.5254C183.93 83.5254 184.014 83.5332 184.096 83.5488C184.182 83.5645 184.268 83.584 184.354 83.6074ZM191.133 88.2832C191.168 88.041 191.123 87.8516 190.998 87.7148C190.877 87.5781 190.717 87.4746 190.518 87.4043C190.322 87.3301 190.131 87.2695 189.943 87.2227C189.709 87.1641 189.473 87.0918 189.234 87.0059C188.996 86.9199 188.777 86.8105 188.578 86.6777C188.383 86.541 188.227 86.373 188.109 86.1738C187.996 85.9707 187.945 85.7246 187.957 85.4355C187.973 85.123 188.055 84.8477 188.203 84.6094C188.355 84.3711 188.551 84.1719 188.789 84.0117C189.031 83.8516 189.295 83.7324 189.58 83.6543C189.865 83.5762 190.148 83.5391 190.43 83.543C190.828 83.5508 191.189 83.6328 191.514 83.7891C191.842 83.9453 192.102 84.1699 192.293 84.4629C192.484 84.7559 192.574 85.1113 192.562 85.5293L191.514 85.5234C191.521 85.3008 191.477 85.1094 191.379 84.9492C191.281 84.7891 191.146 84.666 190.975 84.5801C190.803 84.4902 190.607 84.4434 190.389 84.4395C190.182 84.4355 189.979 84.4688 189.779 84.5391C189.58 84.6055 189.41 84.7109 189.27 84.8555C189.129 84.9961 189.043 85.1797 189.012 85.4062C188.988 85.5742 189.014 85.7129 189.088 85.8223C189.162 85.9277 189.264 86.0137 189.393 86.0801C189.525 86.1426 189.664 86.1953 189.809 86.2383C189.957 86.2773 190.092 86.3125 190.213 86.3438C190.533 86.4336 190.85 86.5469 191.162 86.6836C191.475 86.8203 191.729 87.0098 191.924 87.252C192.119 87.4902 192.207 87.8047 192.188 88.1953C192.172 88.5273 192.084 88.8164 191.924 89.0625C191.768 89.3047 191.564 89.5059 191.314 89.666C191.068 89.8223 190.797 89.9375 190.5 90.0117C190.203 90.0859 189.906 90.1211 189.609 90.1172C189.199 90.1094 188.816 90.0254 188.461 89.8652C188.109 89.7012 187.828 89.4668 187.617 89.1621C187.406 88.8535 187.307 88.4785 187.318 88.0371L188.379 88.043C188.379 88.2969 188.432 88.5117 188.537 88.6875C188.646 88.8594 188.797 88.9902 188.988 89.0801C189.18 89.1699 189.398 89.2168 189.645 89.2207C189.852 89.2246 190.062 89.1973 190.277 89.1387C190.496 89.0801 190.684 88.9824 190.84 88.8457C191 88.7051 191.098 88.5176 191.133 88.2832ZM197.062 88.916L197.59 85.6406C197.617 85.3984 197.594 85.1855 197.52 85.002C197.449 84.8184 197.33 84.6758 197.162 84.5742C196.998 84.4727 196.791 84.418 196.541 84.4102C196.322 84.4062 196.107 84.4414 195.896 84.5156C195.689 84.5898 195.51 84.7012 195.357 84.8496C195.205 84.998 195.105 85.1855 195.059 85.4121L194.004 85.418C194.031 85.1016 194.131 84.8262 194.303 84.5918C194.475 84.3535 194.689 84.1562 194.947 84C195.205 83.8398 195.482 83.7227 195.779 83.6484C196.076 83.5703 196.365 83.5332 196.646 83.5371C197.072 83.5449 197.441 83.6367 197.754 83.8125C198.07 83.9844 198.309 84.2266 198.469 84.5391C198.629 84.8516 198.688 85.2266 198.645 85.6641L198.158 88.6172C198.123 88.832 198.102 89.0488 198.094 89.2676C198.09 89.4824 198.115 89.6934 198.17 89.9004L198.158 90L197.086 90.0059C197.043 89.8262 197.021 89.6445 197.021 89.4609C197.025 89.2773 197.039 89.0957 197.062 88.916ZM197.713 86.1562L197.59 86.918L196.588 86.9121C196.377 86.9121 196.154 86.9277 195.92 86.959C195.686 86.9902 195.463 87.0488 195.252 87.1348C195.041 87.2207 194.863 87.3457 194.719 87.5098C194.574 87.6699 194.486 87.8789 194.455 88.1367C194.432 88.3477 194.457 88.5312 194.531 88.6875C194.609 88.8398 194.727 88.959 194.883 89.0449C195.039 89.1309 195.221 89.1758 195.428 89.1797C195.697 89.1836 195.963 89.1309 196.225 89.0215C196.486 88.9121 196.715 88.7559 196.91 88.5527C197.105 88.3496 197.24 88.1152 197.314 87.8496L197.701 88.3711C197.627 88.6289 197.506 88.8672 197.338 89.0859C197.17 89.3008 196.971 89.4863 196.74 89.6426C196.514 89.7988 196.27 89.9199 196.008 90.0059C195.746 90.0918 195.484 90.1328 195.223 90.1289C194.867 90.1211 194.545 90.041 194.256 89.8887C193.971 89.7363 193.744 89.5234 193.576 89.25C193.412 88.9727 193.342 88.6504 193.365 88.2832C193.389 87.8809 193.494 87.543 193.682 87.2695C193.869 86.9961 194.109 86.7773 194.402 86.6133C194.699 86.4492 195.023 86.332 195.375 86.2617C195.727 86.1875 196.074 86.1504 196.418 86.1504L197.713 86.1562ZM201.146 90H200.086L201.281 82.998C201.336 82.5723 201.461 82.1992 201.656 81.8789C201.852 81.5547 202.111 81.3027 202.436 81.123C202.76 80.9434 203.145 80.8555 203.59 80.8594C203.719 80.8633 203.848 80.875 203.977 80.8945C204.105 80.9102 204.232 80.9316 204.357 80.959L204.229 81.8496C204.139 81.8301 204.045 81.8145 203.947 81.8027C203.854 81.791 203.76 81.7832 203.666 81.7793C203.416 81.7793 203.199 81.832 203.016 81.9375C202.832 82.0391 202.684 82.1816 202.57 82.3652C202.461 82.5449 202.387 82.7539 202.348 82.9922L201.146 90ZM203.555 83.6602L203.408 84.4922H200.068L200.221 83.6602H203.555ZM206.168 90.1172C205.734 90.1094 205.357 90.0234 205.037 89.8594C204.721 89.6914 204.461 89.4668 204.258 89.1855C204.059 88.9004 203.916 88.5762 203.83 88.2129C203.744 87.8496 203.719 87.4688 203.754 87.0703L203.777 86.8184C203.816 86.4121 203.916 86.0137 204.076 85.623C204.236 85.2285 204.449 84.873 204.715 84.5566C204.984 84.2402 205.301 83.9902 205.664 83.8066C206.031 83.6191 206.438 83.5312 206.883 83.543C207.324 83.5508 207.691 83.6445 207.984 83.8242C208.277 84.0039 208.506 84.2422 208.67 84.5391C208.838 84.832 208.947 85.1621 208.998 85.5293C209.049 85.8926 209.053 86.2656 209.01 86.6484L208.945 87.1348H204.346L204.486 86.25L207.996 86.2559L208.014 86.1621C208.053 85.8809 208.037 85.6094 207.967 85.3477C207.896 85.0859 207.768 84.8711 207.58 84.7031C207.396 84.5312 207.148 84.4414 206.836 84.4336C206.512 84.4219 206.23 84.4883 205.992 84.6328C205.754 84.7734 205.555 84.9648 205.395 85.207C205.234 85.4453 205.107 85.707 205.014 85.9922C204.924 86.2734 204.861 86.5488 204.826 86.8184L204.803 87.0645C204.779 87.3145 204.787 87.5664 204.826 87.8203C204.865 88.0742 204.939 88.3066 205.049 88.5176C205.162 88.7246 205.318 88.8945 205.518 89.0273C205.717 89.1562 205.963 89.2246 206.256 89.2324C206.611 89.2402 206.93 89.1641 207.211 89.0039C207.496 88.8398 207.756 88.6328 207.99 88.3828L208.594 88.8984C208.41 89.168 208.191 89.3945 207.938 89.5781C207.684 89.7617 207.406 89.8984 207.105 89.9883C206.805 90.0781 206.492 90.1211 206.168 90.1172ZM213.346 83.6602L213.199 84.4922H209.865L210.012 83.6602H213.346ZM211.406 82.1191H212.461L211.389 88.4414C211.377 88.5781 211.381 88.7012 211.4 88.8105C211.42 88.9199 211.467 89.0078 211.541 89.0742C211.615 89.1367 211.729 89.1699 211.881 89.1738C211.967 89.1738 212.051 89.168 212.133 89.1562C212.219 89.1406 212.305 89.127 212.391 89.1152L212.314 90.0059C212.189 90.041 212.061 90.0664 211.928 90.082C211.799 90.1016 211.67 90.1094 211.541 90.1055C211.217 90.1016 210.963 90.0195 210.779 89.8594C210.596 89.6992 210.471 89.4922 210.404 89.2383C210.338 88.9844 210.318 88.7129 210.346 88.4238L211.406 82.1191ZM215.32 89.2793L217.992 83.6602H219.164L215.443 90.9844C215.346 91.1914 215.23 91.3906 215.098 91.582C214.969 91.7734 214.82 91.9453 214.652 92.0977C214.488 92.25 214.303 92.3691 214.096 92.4551C213.889 92.541 213.66 92.584 213.41 92.584C213.305 92.5801 213.199 92.5684 213.094 92.5488C212.984 92.5293 212.879 92.5078 212.777 92.4844L212.842 91.5938C212.889 91.6016 212.936 91.6074 212.982 91.6113C213.029 91.6191 213.074 91.625 213.117 91.6289C213.379 91.6367 213.604 91.5996 213.791 91.5176C213.982 91.4355 214.146 91.3145 214.283 91.1543C214.424 90.9941 214.549 90.8027 214.658 90.5801L215.32 89.2793ZM215.027 83.6602L215.783 88.6406L215.854 89.7598L215.062 90.1465L213.914 83.6602H215.027ZM218.467 89.4434C218.467 89.252 218.527 89.0918 218.648 88.9629C218.773 88.834 218.932 88.7676 219.123 88.7637C219.314 88.7598 219.471 88.8184 219.592 88.9395C219.717 89.0605 219.777 89.2168 219.773 89.4082C219.773 89.5996 219.711 89.7578 219.586 89.8828C219.465 90.0078 219.309 90.0723 219.117 90.0762C218.93 90.0801 218.773 90.0234 218.648 89.9062C218.523 89.7891 218.463 89.6348 218.467 89.4434Z" fill="white"/>
<path d="M142.013 48.5071H139.527C139.494 48.2519 139.426 48.0215 139.323 47.8161C139.22 47.6106 139.085 47.4349 138.915 47.2891C138.746 47.1432 138.546 47.0322 138.314 46.956C138.085 46.8764 137.832 46.8366 137.553 46.8366C137.059 46.8366 136.634 46.9576 136.276 47.1996C135.921 47.4415 135.647 47.7912 135.455 48.2486C135.266 48.706 135.172 49.2595 135.172 49.9091C135.172 50.5852 135.268 51.152 135.46 51.6094C135.656 52.0634 135.929 52.4065 136.281 52.6385C136.635 52.8672 137.054 52.9815 137.538 52.9815C137.81 52.9815 138.057 52.9467 138.279 52.8771C138.504 52.8075 138.702 52.7064 138.871 52.5739C139.043 52.438 139.184 52.2739 139.293 52.0817C139.406 51.8861 139.484 51.6657 139.527 51.4205L142.013 51.4354C141.97 51.8861 141.839 52.3303 141.62 52.7678C141.405 53.2053 141.108 53.6046 140.73 53.9659C140.352 54.3239 139.892 54.6089 139.348 54.821C138.808 55.0331 138.188 55.1392 137.489 55.1392C136.567 55.1392 135.742 54.937 135.013 54.5327C134.287 54.125 133.714 53.5317 133.293 52.7528C132.872 51.974 132.661 51.026 132.661 49.9091C132.661 48.7888 132.875 47.8393 133.303 47.0604C133.73 46.2815 134.308 45.6899 135.038 45.2855C135.767 44.8812 136.584 44.679 137.489 44.679C138.105 44.679 138.675 44.7652 139.199 44.9375C139.723 45.1065 140.183 45.3551 140.581 45.6832C140.979 46.008 141.302 46.4074 141.55 46.8814C141.799 47.3554 141.953 47.8973 142.013 48.5071ZM146.364 55H143.719L147.154 44.8182H150.43L153.866 55H151.221L148.83 47.3835H148.75L146.364 55ZM146.011 50.9929H151.539V52.8622H146.011V50.9929ZM155.962 55V44.8182H160.168C160.93 44.8182 161.588 44.9673 162.142 45.2656C162.699 45.5606 163.128 45.9732 163.429 46.5036C163.731 47.0305 163.882 47.6437 163.882 48.343C163.882 49.0457 163.728 49.6605 163.419 50.1875C163.114 50.7112 162.679 51.1172 162.112 51.4055C161.545 51.6939 160.872 51.8381 160.093 51.8381H157.498V49.8991H159.636C160.007 49.8991 160.317 49.8345 160.566 49.7053C160.818 49.576 161.008 49.3954 161.137 49.1634C161.267 48.928 161.331 48.6546 161.331 48.343C161.331 48.0282 161.267 47.7564 161.137 47.5277C161.008 47.2957 160.818 47.1167 160.566 46.9908C160.314 46.8648 160.004 46.8018 159.636 46.8018H158.423V55H155.962ZM165.762 46.8168V44.8182H174.368V46.8168H171.28V55H168.854V46.8168H165.762ZM182.729 44.8182H185.185V51.3857C185.185 52.1446 185.005 52.8059 184.643 53.3693C184.282 53.9295 183.778 54.3636 183.132 54.6719C182.486 54.9768 181.735 55.1293 180.88 55.1293C180.015 55.1293 179.259 54.9768 178.613 54.6719C177.966 54.3636 177.464 53.9295 177.106 53.3693C176.748 52.8059 176.569 52.1446 176.569 51.3857V44.8182H179.03V51.1719C179.03 51.5232 179.107 51.8364 179.259 52.1115C179.415 52.3866 179.632 52.602 179.91 52.7578C180.189 52.9136 180.512 52.9915 180.88 52.9915C181.248 52.9915 181.569 52.9136 181.844 52.7578C182.123 52.602 182.34 52.3866 182.496 52.1115C182.651 51.8364 182.729 51.5232 182.729 51.1719V44.8182ZM187.728 55V44.8182H191.934C192.696 44.8182 193.354 44.9557 193.907 45.2308C194.464 45.5026 194.893 45.8937 195.195 46.4041C195.497 46.9112 195.647 47.5128 195.647 48.2088C195.647 48.9148 195.493 49.5147 195.185 50.0085C194.877 50.4991 194.439 50.8736 193.873 51.1321C193.306 51.3873 192.635 51.5149 191.859 51.5149H189.199V49.576H191.402C191.773 49.576 192.083 49.5279 192.331 49.4318C192.583 49.3324 192.774 49.1832 192.903 48.9844C193.032 48.7822 193.097 48.5237 193.097 48.2088C193.097 47.8939 193.032 47.6338 192.903 47.4283C192.774 47.2195 192.583 47.0637 192.331 46.9609C192.079 46.8549 191.77 46.8018 191.402 46.8018H190.189V55H187.728ZM193.46 50.3466L195.995 55H193.311L190.825 50.3466H193.46ZM197.997 55V44.8182H205.097V46.8168H200.458V48.9048H204.734V50.9084H200.458V53.0014H205.097V55H197.997ZM217.805 44.8182H220.261V51.3857C220.261 52.1446 220.081 52.8059 219.719 53.3693C219.358 53.9295 218.854 54.3636 218.208 54.6719C217.562 54.9768 216.811 55.1293 215.956 55.1293C215.091 55.1293 214.335 54.9768 213.689 54.6719C213.043 54.3636 212.54 53.9295 212.183 53.3693C211.825 52.8059 211.646 52.1446 211.646 51.3857V44.8182H214.107V51.1719C214.107 51.5232 214.183 51.8364 214.335 52.1115C214.491 52.3866 214.708 52.602 214.987 52.7578C215.265 52.9136 215.588 52.9915 215.956 52.9915C216.324 52.9915 216.645 52.9136 216.92 52.7578C217.199 52.602 217.416 52.3866 217.572 52.1115C217.728 51.8364 217.805 51.5232 217.805 51.1719V44.8182ZM222.804 55V44.8182H227.01C227.772 44.8182 228.43 44.9557 228.983 45.2308C229.54 45.5026 229.97 45.8937 230.271 46.4041C230.573 46.9112 230.724 47.5128 230.724 48.2088C230.724 48.9148 230.569 49.5147 230.261 50.0085C229.953 50.4991 229.515 50.8736 228.949 51.1321C228.382 51.3873 227.711 51.5149 226.935 51.5149H224.275V49.576H226.478C226.849 49.576 227.159 49.5279 227.407 49.4318C227.659 49.3324 227.85 49.1832 227.979 48.9844C228.108 48.7822 228.173 48.5237 228.173 48.2088C228.173 47.8939 228.108 47.6338 227.979 47.4283C227.85 47.2195 227.659 47.0637 227.407 46.9609C227.156 46.8549 226.846 46.8018 226.478 46.8018H225.265V55H222.804ZM228.536 50.3466L231.072 55H228.387L225.901 50.3466H228.536ZM233.073 55V44.8182H235.534V53.0014H239.77V55H233.073Z" fill="white"/>
<path d="M62.1744 61.4H63.568L64.0506 60.0926L65.5637 55.9936C65.9102 55.3936 66.5738 55 67.3136 55L74.6864 55L74.6969 55C75.0661 54.998 75.4287 55.0984 75.7444 55.2898C76.0313 55.4638 76.2694 55.7069 76.4372 55.9962L77.9494 60.0926L78.432 61.4H79.8256H81.6656C83.782 61.4 85 62.667 85 64.2V76.5648C85 78.3145 83.5407 79.8 81.6656 79.8H60.3344C58.4569 79.8 57 78.3153 57 76.5648V64.2C57 62.6677 58.2204 61.4 60.3344 61.4H62.1744ZM49.4 41.4C46.0874 41.4 43.4 44.0874 43.4 47.4V56.2C43.4 56.5183 43.2736 56.8235 43.0485 57.0485C42.8235 57.2736 42.5183 57.4 42.2 57.4C41.8817 57.4 41.5765 57.2736 41.3515 57.0485C41.1264 56.8235 41 56.5183 41 56.2V47.4C41 45.1722 41.885 43.0356 43.4603 41.4603C45.0356 39.885 47.1722 39 49.4 39H58.2C58.5183 39 58.8235 39.1264 59.0485 39.3515C59.2736 39.5765 59.4 39.8817 59.4 40.2C59.4 40.5183 59.2736 40.8235 59.0485 41.0485C58.8235 41.2736 58.5183 41.4 58.2 41.4H49.4ZM43.4 90.6C43.4 93.9126 46.0874 96.6 49.4 96.6H58.2C58.5183 96.6 58.8235 96.7264 59.0485 96.9515C59.2736 97.1765 59.4 97.4817 59.4 97.8C59.4 98.1183 59.2736 98.4235 59.0485 98.6485C58.8235 98.8736 58.5183 99 58.2 99H49.4C48.2969 99 47.2046 98.7827 46.1855 98.3606C45.1663 97.9385 44.2403 97.3197 43.4603 96.5397C42.6803 95.7597 42.0616 94.8337 41.6394 93.8145C41.2173 92.7954 41 91.7031 41 90.6V81.8C41 81.4817 41.1264 81.1765 41.3515 80.9515C41.5765 80.7264 41.8817 80.6 42.2 80.6C42.5183 80.6 42.8235 80.7264 43.0485 80.9515C43.2736 81.1765 43.4 81.4817 43.4 81.8V90.6ZM98.6 47.4C98.6 44.0874 95.9126 41.4 92.6 41.4H83.8C83.4817 41.4 83.1765 41.2736 82.9515 41.0485C82.7264 40.8235 82.6 40.5183 82.6 40.2C82.6 39.8817 82.7264 39.5765 82.9515 39.3515C83.1765 39.1264 83.4817 39 83.8 39H92.6C93.7031 39 94.7954 39.2173 95.8145 39.6394C96.8337 40.0616 97.7597 40.6803 98.5397 41.4603C99.3197 42.2403 99.9385 43.1663 100.361 44.1855C100.783 45.2046 101 46.2969 101 47.4V56.2C101 56.5183 100.874 56.8235 100.649 57.0485C100.423 57.2736 100.118 57.4 99.8 57.4C99.4817 57.4 99.1765 57.2736 98.9515 57.0485C98.7264 56.8235 98.6 56.5183 98.6 56.2V47.4ZM92.6 96.6C95.9126 96.6 98.6 93.9126 98.6 90.6V81.8C98.6 81.4817 98.7264 81.1765 98.9515 80.9515C99.1765 80.7264 99.4817 80.6 99.8 80.6C100.118 80.6 100.423 80.7264 100.649 80.9515C100.874 81.1765 101 81.4817 101 81.8V90.6C101 91.7031 100.783 92.7954 100.361 93.8145C99.9384 94.8337 99.3197 95.7597 98.5397 96.5397C97.7597 97.3197 96.8337 97.9384 95.8145 98.3606C94.7954 98.7827 93.7031 99 92.6 99H83.8C83.4817 99 83.1765 98.8736 82.9515 98.6485C82.7264 98.4235 82.6 98.1183 82.6 97.8C82.6 97.4817 82.7264 97.1765 82.9515 96.9515C83.1765 96.7264 83.4817 96.6 83.8 96.6H92.6ZM71.8485 69.8485C71.6235 70.0736 71.3183 70.2 71 70.2C70.6817 70.2 70.3765 70.0736 70.1515 69.8485C69.9264 69.6235 69.8 69.3183 69.8 69C69.8 68.6817 69.9264 68.3765 70.1515 68.1515C70.3765 67.9264 70.6817 67.8 71 67.8C71.3183 67.8 71.6235 67.9264 71.8485 68.1515C72.0736 68.3765 72.2 68.6817 72.2 69C72.2 69.3183 72.0736 69.6235 71.8485 69.8485ZM65.0603 74.9397C66.6356 76.515 68.7722 77.4 71 77.4C73.2278 77.4 75.3644 76.515 76.9397 74.9397C78.515 73.3644 79.4 71.2278 79.4 69C79.4 66.7722 78.515 64.6356 76.9397 63.0603C75.3644 61.485 73.2278 60.6 71 60.6C68.7722 60.6 66.6356 61.485 65.0603 63.0603C63.485 64.6356 62.6 66.7722 62.6 69C62.6 71.2278 63.485 73.3644 65.0603 74.9397Z" fill="#CB82C1" stroke="url(#paint2_linear_512_379)" stroke-width="4"/>
<defs>
<filter id="filter0_d_512_379" x="0.5" y="0.5" width="337" height="151" filterUnits="userSpaceOnUse" color-interpolation-filters="sRGB">
<feFlood flood-opacity="0" result="BackgroundImageFix"/>
<feColorMatrix in="SourceAlpha" type="matrix" values="0 0 0 0 0 0 0 0 0 0 0 0 0 0 0 0 0 0 127 0" result="hardAlpha"/>
<feOffset dy="8"/>
<feGaussianBlur stdDeviation="4"/>
<feComposite in2="hardAlpha" operator="out"/>
<feColorMatrix type="matrix" values="0 0 0 0 0.945098 0 0 0 0 0.960784 0 0 0 0 0.976471 0 0 0 1 0"/>
<feBlend mode="normal" in2="BackgroundImageFix" result="effect1_dropShadow_512_379"/>
<feBlend mode="normal" in="SourceGraphic" in2="effect1_dropShadow_512_379" result="shape"/>
</filter>
<linearGradient id="paint0_linear_512_379" x1="17.5" y1="14.5" x2="323" y2="121" gradientUnits="userSpaceOnUse">
<stop stop-color="#6F3266"/>
<stop offset="1" stop-color="#C27CB5"/>
</linearGradient>
<linearGradient id="paint1_linear_512_379" x1="256.067" y1="56.6519" x2="499.509" y2="227.58" gradientUnits="userSpaceOnUse">
<stop stop-color="white" stop-opacity="0.15"/>
<stop offset="1" stop-color="#999999"/>
</linearGradient>
<linearGradient id="paint2_linear_512_379" x1="71" y1="37" x2="71" y2="101" gradientUnits="userSpaceOnUse">
<stop stop-color="#F46AE1"/>
<stop offset="1" stop-color="#999999"/>
</linearGradient>
</defs>
</svg>
