<svg width="662" height="104" viewBox="0 0 662 104" fill="none" xmlns="http://www.w3.org/2000/svg">
<path d="M46.5 103.5C31.6 103.5 20.2 99.75 12.3 92.25C4.5 84.65 0.600001 73.35 0.600001 58.35C0.600001 42.85 4.35 30.5 11.85 21.3C19.35 12.1 30.5 7.49999 45.3 7.49999C57.8 7.49999 68.55 9.84999 77.55 14.55V20.85C77.55 24.25 77.35 27.85 76.95 31.65C76.65 35.45 76.2 38.45 75.6 40.65H57L55.5 29.55C52.2 28.75 48.1 28.35 43.2 28.35C37.7 28.35 32.2 28.95 26.7 30.15C24.3 38.45 23.1 47.55 23.1 57.45C23.1 66.25 25 72.65 28.8 76.65C32.6 80.65 39 82.65 48 82.65C53.5 82.65 58.35 82.05 62.55 80.85C66.85 79.55 70.9 77.75 74.7 75.45L83.4 93C78.6 96.5 73.3 99.15 67.5 100.95C61.7 102.65 54.7 103.5 46.5 103.5ZM115.489 102.9C113.089 102.3 110.389 101.15 107.389 99.45C104.489 97.75 101.989 95.85 99.8895 93.75C97.8895 91.55 96.8895 89.45 96.8895 87.45V1.35H119.089V75.45C119.089 78.15 119.389 80.35 119.989 82.05H122.089L130.189 77.7L137.239 87.6C134.939 91.3 131.639 94.8 127.339 98.1C123.039 101.3 119.089 102.9 115.489 102.9ZM164.084 103.2C156.884 103.2 151.534 101.5 148.034 98.1C144.634 94.7 142.934 89.7 142.934 83.1C142.934 67.6 154.534 59.85 177.734 59.85C179.634 59.85 182.234 60 185.534 60.3V53.7C185.534 51.1 184.934 49.4 183.734 48.6C182.634 47.7 180.584 47.25 177.584 47.25C174.884 47.25 172.484 47.45 170.384 47.85L168.884 55.05H150.284C148.984 50.75 148.334 46.25 148.334 41.55V37.8C152.834 35.4 157.484 33.55 162.284 32.25C167.184 30.95 172.934 30.3 179.534 30.3C188.734 30.3 195.784 32.15 200.684 35.85C205.584 39.55 208.034 45.05 208.034 52.35V102H189.134L187.784 92.1H186.584C183.784 95.9 180.634 98.7 177.134 100.5C173.734 102.3 169.384 103.2 164.084 103.2ZM171.884 85.05C174.784 85.05 177.334 84.6 179.534 83.7C181.734 82.8 183.834 81.45 185.834 79.65V74.4C183.034 73.9 179.634 73.65 175.634 73.65C172.534 73.65 169.584 74 166.784 74.7C166.184 76.1 165.884 77.8 165.884 79.8C165.884 83.3 167.884 85.05 171.884 85.05ZM250.703 103.2C239.403 103.2 229.803 101.25 221.903 97.35L228.203 80.1C231.803 81.6 235.503 82.75 239.303 83.55C243.103 84.35 246.653 84.75 249.953 84.75C254.153 84.75 257.753 84.5 260.753 84C261.253 83.4 261.503 82.5 261.503 81.3C261.503 80.1 260.803 79.2 259.403 78.6C258.103 78 255.153 77.15 250.553 76.05C243.653 74.45 238.303 72.85 234.503 71.25C230.703 69.55 227.753 67.2 225.653 64.2C223.553 61.2 222.503 57.05 222.503 51.75C222.503 37.05 233.003 29.7 254.003 29.7C258.803 29.7 263.553 30.2 268.253 31.2C273.053 32.1 277.103 33.3 280.403 34.8V39.75C280.403 41.75 280.203 44.4 279.803 47.7C279.403 50.9 278.953 53.2 278.453 54.6H260.453L259.253 47.85C257.253 47.45 255.003 47.25 252.503 47.25C247.303 47.25 244.703 48.9 244.703 52.2C244.703 54.1 245.653 55.45 247.553 56.25C249.453 57.05 253.053 58 258.353 59.1C264.253 60.3 268.953 61.65 272.453 63.15C275.953 64.55 278.653 66.75 280.553 69.75C282.553 72.65 283.553 76.7 283.553 81.9C283.553 89 280.953 94.35 275.753 97.95C270.653 101.45 262.303 103.2 250.703 103.2ZM322.92 103.2C311.62 103.2 302.02 101.25 294.12 97.35L300.42 80.1C304.02 81.6 307.72 82.75 311.52 83.55C315.32 84.35 318.87 84.75 322.17 84.75C326.37 84.75 329.97 84.5 332.97 84C333.47 83.4 333.72 82.5 333.72 81.3C333.72 80.1 333.02 79.2 331.62 78.6C330.32 78 327.37 77.15 322.77 76.05C315.87 74.45 310.52 72.85 306.72 71.25C302.92 69.55 299.97 67.2 297.87 64.2C295.77 61.2 294.72 57.05 294.72 51.75C294.72 37.05 305.22 29.7 326.22 29.7C331.02 29.7 335.77 30.2 340.47 31.2C345.27 32.1 349.32 33.3 352.62 34.8V39.75C352.62 41.75 352.42 44.4 352.02 47.7C351.62 50.9 351.17 53.2 350.67 54.6H332.67L331.47 47.85C329.47 47.45 327.22 47.25 324.72 47.25C319.52 47.25 316.92 48.9 316.92 52.2C316.92 54.1 317.87 55.45 319.77 56.25C321.67 57.05 325.27 58 330.57 59.1C336.47 60.3 341.17 61.65 344.67 63.15C348.17 64.55 350.87 66.75 352.77 69.75C354.77 72.65 355.77 76.7 355.77 81.9C355.77 89 353.17 94.35 347.97 97.95C342.87 101.45 334.52 103.2 322.92 103.2ZM370.686 1.35H393.186V21.45H370.686V1.35ZM370.836 31.2H393.036V102H370.836V31.2ZM416.941 50.1H405.691L408.691 31.2H416.941V20.7C416.941 16.9 418.541 13.4 421.741 10.2C424.941 6.89999 428.741 4.2 433.141 2.1C437.641 1.2 442.741 0.749998 448.441 0.749998C454.141 0.749998 459.541 1.85 464.641 4.04999L458.791 23.55C455.591 22.35 452.241 21.75 448.741 21.75C445.341 21.75 442.441 22.2 440.041 23.1C439.341 24.9 438.991 27.25 438.991 30.15V31.2H456.391L453.391 50.1H438.991V102H416.941V50.1ZM493.779 103.2C486.879 103.2 481.579 101.35 477.879 97.65C474.179 93.85 472.329 88.25 472.329 80.85V31.2H494.829V81.6C497.129 82.4 499.679 82.8 502.479 82.8C508.579 82.8 513.279 81.1 516.579 77.7V31.2H539.079V102H519.279L518.379 91.2H517.179C513.979 95.2 510.579 98.2 506.979 100.2C503.479 102.2 499.079 103.2 493.779 103.2ZM558.336 31.2H578.586L579.486 45.6H580.986C583.686 40.7 586.736 37 590.136 34.5C593.636 31.9 597.936 30.6 603.036 30.6C603.836 30.6 604.886 31 606.186 31.8C607.586 32.6 608.636 33.4 609.336 34.2L607.086 53.55H600.786C592.186 53.55 585.436 55.8 580.536 60.3V102H558.336V31.2ZM639.611 102.9C637.211 102.3 634.511 101.15 631.511 99.45C628.611 97.75 626.111 95.85 624.011 93.75C622.011 91.55 621.011 89.45 621.011 87.45V1.35H643.211V75.45C643.211 78.15 643.511 80.35 644.111 82.05H646.211L654.311 77.7L661.361 87.6C659.061 91.3 655.761 94.8 651.461 98.1C647.161 101.3 643.211 102.9 639.611 102.9Z" fill="black"/>
</svg>
