<svg width="691" height="186" viewBox="0 0 691 186" fill="none" xmlns="http://www.w3.org/2000/svg">
<path d="M52.5 174.5C37.6 174.5 26.2 170.75 18.3 163.25C10.5 155.65 6.6 144.35 6.6 129.35C6.6 113.85 10.35 101.5 17.85 92.3C25.35 83.1 36.5 78.5 51.3 78.5C63.8 78.5 74.55 80.85 83.55 85.55V91.85C83.55 95.25 83.35 98.85 82.95 102.65C82.65 106.45 82.2 109.45 81.6 111.65H63L61.5 100.55C58.2 99.75 54.1 99.35 49.2 99.35C43.7 99.35 38.2 99.95 32.7 101.15C30.3 109.45 29.1 118.55 29.1 128.45C29.1 137.25 31 143.65 34.8 147.65C38.6 151.65 45 153.65 54 153.65C59.5 153.65 64.35 153.05 68.55 151.85C72.85 150.55 76.9 148.75 80.7 146.45L89.4 164C84.6 167.5 79.3 170.15 73.5 171.95C67.7 173.65 60.7 174.5 52.5 174.5ZM121.489 173.9C119.089 173.3 116.389 172.15 113.389 170.45C110.489 168.75 107.989 166.85 105.889 164.75C103.889 162.55 102.889 160.45 102.889 158.45V72.35H125.089V146.45C125.089 149.15 125.389 151.35 125.989 153.05H128.089L136.189 148.7L143.239 158.6C140.939 162.3 137.639 165.8 133.339 169.1C129.039 172.3 125.089 173.9 121.489 173.9ZM170.084 174.2C162.884 174.2 157.534 172.5 154.034 169.1C150.634 165.7 148.934 160.7 148.934 154.1C148.934 138.6 160.534 130.85 183.734 130.85C185.634 130.85 188.234 131 191.534 131.3V124.7C191.534 122.1 190.934 120.4 189.734 119.6C188.634 118.7 186.584 118.25 183.584 118.25C180.884 118.25 178.484 118.45 176.384 118.85L174.884 126.05H156.284C154.984 121.75 154.334 117.25 154.334 112.55V108.8C158.834 106.4 163.484 104.55 168.284 103.25C173.184 101.95 178.934 101.3 185.534 101.3C194.734 101.3 201.784 103.15 206.684 106.85C211.584 110.55 214.034 116.05 214.034 123.35V173H195.134L193.784 163.1H192.584C189.784 166.9 186.634 169.7 183.134 171.5C179.734 173.3 175.384 174.2 170.084 174.2ZM177.884 156.05C180.784 156.05 183.334 155.6 185.534 154.7C187.734 153.8 189.834 152.45 191.834 150.65V145.4C189.034 144.9 185.634 144.65 181.634 144.65C178.534 144.65 175.584 145 172.784 145.7C172.184 147.1 171.884 148.8 171.884 150.8C171.884 154.3 173.884 156.05 177.884 156.05ZM256.703 174.2C245.403 174.2 235.803 172.25 227.903 168.35L234.203 151.1C237.803 152.6 241.503 153.75 245.303 154.55C249.103 155.35 252.653 155.75 255.953 155.75C260.153 155.75 263.753 155.5 266.753 155C267.253 154.4 267.503 153.5 267.503 152.3C267.503 151.1 266.803 150.2 265.403 149.6C264.103 149 261.153 148.15 256.553 147.05C249.653 145.45 244.303 143.85 240.503 142.25C236.703 140.55 233.753 138.2 231.653 135.2C229.553 132.2 228.503 128.05 228.503 122.75C228.503 108.05 239.003 100.7 260.003 100.7C264.803 100.7 269.553 101.2 274.253 102.2C279.053 103.1 283.103 104.3 286.403 105.8V110.75C286.403 112.75 286.203 115.4 285.803 118.7C285.403 121.9 284.953 124.2 284.453 125.6H266.453L265.253 118.85C263.253 118.45 261.003 118.25 258.503 118.25C253.303 118.25 250.703 119.9 250.703 123.2C250.703 125.1 251.653 126.45 253.553 127.25C255.453 128.05 259.053 129 264.353 130.1C270.253 131.3 274.953 132.65 278.453 134.15C281.953 135.55 284.653 137.75 286.553 140.75C288.553 143.65 289.553 147.7 289.553 152.9C289.553 160 286.953 165.35 281.753 168.95C276.653 172.45 268.303 174.2 256.703 174.2ZM328.92 174.2C317.62 174.2 308.02 172.25 300.12 168.35L306.42 151.1C310.02 152.6 313.72 153.75 317.52 154.55C321.32 155.35 324.87 155.75 328.17 155.75C332.37 155.75 335.97 155.5 338.97 155C339.47 154.4 339.72 153.5 339.72 152.3C339.72 151.1 339.02 150.2 337.62 149.6C336.32 149 333.37 148.15 328.77 147.05C321.87 145.45 316.52 143.85 312.72 142.25C308.92 140.55 305.97 138.2 303.87 135.2C301.77 132.2 300.72 128.05 300.72 122.75C300.72 108.05 311.22 100.7 332.22 100.7C337.02 100.7 341.77 101.2 346.47 102.2C351.27 103.1 355.32 104.3 358.62 105.8V110.75C358.62 112.75 358.42 115.4 358.02 118.7C357.62 121.9 357.17 124.2 356.67 125.6H338.67L337.47 118.85C335.47 118.45 333.22 118.25 330.72 118.25C325.52 118.25 322.92 119.9 322.92 123.2C322.92 125.1 323.87 126.45 325.77 127.25C327.67 128.05 331.27 129 336.57 130.1C342.47 131.3 347.17 132.65 350.67 134.15C354.17 135.55 356.87 137.75 358.77 140.75C360.77 143.65 361.77 147.7 361.77 152.9C361.77 160 359.17 165.35 353.97 168.95C348.87 172.45 340.52 174.2 328.92 174.2ZM376.686 72.35H399.186V92.45H376.686V72.35ZM376.836 102.2H399.036V173H376.836V102.2ZM422.941 121.1H411.691L414.691 102.2H422.941V91.7C422.941 87.9 424.541 84.4 427.741 81.2C430.941 77.9 434.741 75.2 439.141 73.1C443.641 72.2 448.741 71.75 454.441 71.75C460.141 71.75 465.541 72.85 470.641 75.05L464.791 94.55C461.591 93.35 458.241 92.75 454.741 92.75C451.341 92.75 448.441 93.2 446.041 94.1C445.341 95.9 444.991 98.25 444.991 101.15V102.2H462.391L459.391 121.1H444.991V173H422.941V121.1Z" fill="black"/>
<path d="M499.779 174.2C492.879 174.2 487.579 172.35 483.879 168.65C480.179 164.85 478.329 159.25 478.329 151.85V102.2H500.829V152.6C503.129 153.4 505.679 153.8 508.479 153.8C514.579 153.8 519.279 152.1 522.579 148.7V102.2H545.079V173H525.279L524.379 162.2H523.179C519.979 166.2 516.579 169.2 512.979 171.2C509.479 173.2 505.079 174.2 499.779 174.2ZM564.336 102.2H584.586L585.486 116.6H586.986C589.686 111.7 592.736 108 596.136 105.5C599.636 102.9 603.936 101.6 609.036 101.6C609.836 101.6 610.886 102 612.186 102.8C613.586 103.6 614.636 104.4 615.336 105.2L613.086 124.55H606.786C598.186 124.55 591.436 126.8 586.536 131.3V173H564.336V102.2ZM645.611 173.9C643.211 173.3 640.511 172.15 637.511 170.45C634.611 168.75 632.111 166.85 630.011 164.75C628.011 162.55 627.011 160.45 627.011 158.45V72.35H649.211V146.45C649.211 149.15 649.511 151.35 650.111 153.05H652.211L660.311 148.7L667.361 158.6C665.061 162.3 661.761 165.8 657.461 169.1C653.161 172.3 649.211 173.9 645.611 173.9Z" fill="url(#paint0_linear_145_782)"/>
<defs>
<linearGradient id="paint0_linear_145_782" x1="481.423" y1="102.5" x2="674.259" y2="103.397" gradientUnits="userSpaceOnUse">
<stop offset="0.00249637" stop-color="#000137"/>
<stop offset="0.263369" stop-color="#780004"/>
<stop offset="0.458839" stop-color="#F10202"/>
<stop offset="0.692695" stop-color="#780008"/>
<stop offset="0.931018" stop-color="#000137"/>
</linearGradient>
</defs>
</svg>
