<svg width="349" height="337" viewBox="0 0 349 337" fill="none" xmlns="http://www.w3.org/2000/svg">
<path d="M250.647 223.088C244.024 221.215 235.976 222.732 232.665 226.479L209.996 267.814L177.589 285.719L144.819 267.814L122.513 226.479C119.202 222.732 111.154 221.215 104.532 223.088C97.9091 224.961 88.5646 232.192 91.8759 235.938L122.513 276.146L165.602 309.145C167.865 311.706 172.517 313.342 177.589 313.342C182.661 313.342 187.313 311.729 189.577 309.145L232.665 276.146L262.479 235.938C265.79 232.192 257.269 224.961 250.647 223.088Z" fill="white"/>
<path fill-rule="evenodd" clip-rule="evenodd" d="M79.9727 77.5542L176.633 55.0777L277.294 77.5542L264.995 100.598C263.608 103.827 263.74 106.45 266.581 108.562C269.422 110.675 273.276 111.861 277.294 111.861C281.312 111.861 286.045 110.62 288.007 108.562C289.969 106.505 292.235 103.829 294.219 99.9994L305.23 63.0417C305.23 60.0546 303.634 57.1899 300.793 55.0777C297.951 52.9655 294.098 51.7789 290.08 51.7789C239.7 44.0176 208.064 26.4754 176.633 26.1645C147.826 25.8796 118.821 42.3946 67.8715 51.7789C63.8533 51.7789 59.9997 52.9655 57.1584 55.0777C54.3171 57.1899 52.7209 60.0546 52.7209 63.0417L62.1189 99.9994C62.5051 101.889 65.7066 106.953 67.8715 108.562C70.7128 110.675 74.5664 111.861 78.5845 111.861C82.6027 111.861 86.4563 110.675 89.2976 108.562C92.1389 106.45 92.9559 102.488 91.5685 100.598L79.9727 77.5542Z" fill="white"/>
<path d="M294.076 147.862C291.745 145.613 288.947 144.49 285.68 144.494L249.28 144.542C246.013 144.546 213.681 145.684 211.345 147.939C208.892 150.307 207.721 153.236 207.833 156.727C208.183 156.726 209.276 156.711 211.114 156.68C212.951 156.65 243.736 156.64 244.407 156.667C245.078 156.694 246.069 156.806 247.381 157.001C248.694 157.196 249.816 157.547 250.749 158.052C251.681 158.558 252.585 159.232 253.458 160.076C255.789 162.325 256.951 165.025 256.947 168.178C256.943 171.331 255.772 174.035 253.436 176.29C252.559 177.136 251.654 177.813 250.72 178.321C249.786 178.829 248.663 179.182 247.35 179.381C246.037 179.579 245.045 179.693 244.374 179.722C243.704 179.751 212.919 179.761 211.082 179.736C209.244 179.71 208.15 179.697 207.8 179.698C207.679 183.301 208.841 186.284 211.288 188.645C213.618 190.894 245.947 192.008 249.214 192.004L285.351 192.041C288.501 192.037 291.274 190.879 293.669 188.568C296.005 186.312 297.234 183.665 297.355 180.624L297.477 155.88C297.481 152.727 296.348 150.054 294.076 147.862ZM141.345 147.862C139.015 145.613 102.701 144.491 99.4339 144.495L63.2963 144.458C60.0297 144.462 57.2281 145.592 54.8916 147.847C52.6135 150.045 51.4139 152.721 51.2928 155.874L51.1706 180.619C51.1662 183.771 52.2999 186.444 54.5719 188.637C56.9021 190.886 59.7005 192.008 62.9672 192.004L99.3674 191.957C102.517 191.953 138.805 190.795 141.2 188.483C143.654 186.115 144.854 183.214 144.8 179.78C144.45 179.78 143.356 179.796 141.519 179.827C139.681 179.857 104.911 179.859 104.241 179.831C103.57 179.804 102.578 179.693 101.266 179.498C99.9539 179.302 98.8314 178.952 97.8988 178.446C96.9662 177.941 96.063 177.266 95.1891 176.423C92.859 174.174 91.6961 171.473 91.7005 168.32C91.7049 165.167 92.8754 162.463 95.2119 160.208C96.0881 159.363 96.9932 158.686 97.9272 158.178C98.8613 157.67 99.9847 157.317 101.297 157.118C102.61 156.919 103.602 156.805 104.273 156.776C104.944 156.747 139.714 156.746 141.551 156.771C143.388 156.797 144.482 156.81 144.832 156.809C144.954 153.206 143.791 150.223 141.345 147.862ZM310.898 131.625C317.889 138.372 321.319 146.475 321.189 155.933L321.067 180.678C321.054 190.024 317.543 198.079 310.533 204.845C303.465 211.666 295.031 215.027 285.232 214.927L249.094 214.89C239.411 214.903 201.543 211.544 194.553 204.797C187.387 197.881 183.87 189.525 184 179.729L168.6 179.749C168.703 189.545 165.191 197.882 158.065 204.76C151.056 211.526 109.135 214.915 99.3352 214.927L62.935 214.975C53.1349 214.988 44.7396 211.621 37.7491 204.874C30.7585 198.127 27.3282 190.024 27.4581 180.565L27.5803 155.821C27.5934 146.475 31.1047 138.419 38.1142 131.654C45.1821 124.832 53.616 121.471 63.4159 121.571L99.5535 121.608C109.237 121.596 151.089 124.963 158.08 131.71C165.245 138.626 168.763 146.982 168.632 156.778L184.032 156.758C183.929 146.962 187.441 138.625 194.568 131.747C201.577 124.981 239.512 121.584 249.312 121.571L285.713 121.524C295.513 121.511 303.908 124.878 310.898 131.625Z" fill="url(#paint0_linear_145_785)"/>
<defs>
<linearGradient id="paint0_linear_145_785" x1="27.2321" y1="168.44" x2="320.643" y2="168.44" gradientUnits="userSpaceOnUse">
<stop stop-color="#000137"/>
<stop offset="0.29" stop-color="#780000"/>
<stop offset="0.51" stop-color="#F10202"/>
<stop offset="0.725" stop-color="#780000"/>
<stop offset="1" stop-color="#000137"/>
</linearGradient>
</defs>
</svg>
