<svg width="40" height="42" viewBox="0 0 40 42" fill="none" xmlns="http://www.w3.org/2000/svg">
<g filter="url(#filter0_d_235_807)">
<rect width="40" height="40" rx="20" fill="white"/>
<rect x="0.5" y="0.5" width="39" height="39" rx="19.5" stroke="#020202"/>
</g>
<path d="M20.75 15.1357V19.7508L23.6344 22.6352" fill="black"/>
<path d="M20.75 15.1357V19.7508L23.6344 22.6352" stroke="#780000" stroke-width="1.5" stroke-linecap="round" stroke-linejoin="round"/>
<path d="M11.9099 13.8332L11.0446 13.8367C11.0455 14.0648 11.1364 14.2833 11.2976 14.4447C11.4588 14.6061 11.6772 14.6973 11.9053 14.6985L11.9099 13.8332ZM14.8427 14.7124C14.9564 14.7129 15.069 14.691 15.1742 14.648C15.2794 14.605 15.3751 14.5418 15.4558 14.4618C15.5365 14.3818 15.6007 14.2867 15.6447 14.1819C15.6887 14.0771 15.7116 13.9647 15.7121 13.8511C15.7126 13.7374 15.6908 13.6248 15.6478 13.5196C15.6048 13.4144 15.5415 13.3188 15.4615 13.238C15.3815 13.1573 15.2864 13.0931 15.1817 13.0491C15.0769 13.0052 14.9645 12.9823 14.8508 12.9817L14.8427 14.7124ZM12.7602 10.8911C12.759 10.6616 12.6666 10.442 12.5035 10.2806C12.3403 10.1192 12.1198 10.0292 11.8903 10.0304C11.6608 10.0316 11.4412 10.124 11.2797 10.2871C11.1183 10.4503 11.0283 10.6708 11.0296 10.9003L12.7602 10.8911ZM11.2315 19.7508C11.2315 19.5213 11.1403 19.3012 10.978 19.139C10.8157 18.9767 10.5956 18.8855 10.3661 18.8855C10.1366 18.8855 9.91655 18.9767 9.75427 19.139C9.59199 19.3012 9.50082 19.5213 9.50082 19.7508H11.2315ZM26.3746 29.4944C26.4771 29.4398 26.5676 29.3651 26.6406 29.2748C26.7137 29.1845 26.7678 29.0804 26.7998 28.9687C26.8317 28.857 26.8409 28.7401 26.8267 28.6248C26.8125 28.5095 26.7752 28.3982 26.7171 28.2977C26.659 28.1971 26.5812 28.1092 26.4884 28.0394C26.3957 27.9695 26.2897 27.919 26.177 27.8909C26.0643 27.8628 25.9471 27.8577 25.8324 27.8759C25.7177 27.8941 25.6078 27.9352 25.5093 27.9968L26.3746 29.4944ZM28.9959 24.5101C28.9344 24.6086 28.8933 24.7185 28.8751 24.8332C28.8569 24.9479 28.862 25.0652 28.8901 25.1779C28.9182 25.2906 28.9686 25.3965 29.0385 25.4893C29.1084 25.5821 29.1962 25.6598 29.2968 25.7179C29.3974 25.7761 29.5086 25.8133 29.6239 25.8275C29.7392 25.8417 29.8562 25.8326 29.9679 25.8006C30.0795 25.7687 30.1836 25.7145 30.2739 25.6415C30.3642 25.5684 30.4389 25.478 30.4935 25.3754L28.9959 24.5101ZM12.8352 11.7553C12.6721 11.9168 12.5799 12.1366 12.5788 12.3661C12.5777 12.5957 12.6679 12.8163 12.8294 12.9794C12.991 13.1425 13.2107 13.2347 13.4403 13.2358C13.6699 13.2369 13.8905 13.1467 14.0536 12.9852L12.8352 11.7553ZM28.6671 11.8326C24.2597 7.42521 17.1376 7.38136 12.759 11.7599L13.982 12.9817C17.6741 9.29084 23.7002 9.31276 27.4441 13.0567L28.6671 11.8326ZM12.759 11.7599L11.2984 13.2206L12.5214 14.4435L13.9832 12.984L12.759 11.7599ZM11.9053 14.6985L14.8427 14.7124L14.8508 12.9817L11.9145 12.9679L11.9053 14.6985ZM12.7752 13.8286L12.7602 10.8911L11.0296 10.9003L11.0446 13.8367L12.7752 13.8286ZM20.75 10.2323C23.2745 10.2323 25.6956 11.2352 27.4806 13.0202C29.2657 14.8053 30.2685 17.2264 30.2685 19.7508H31.9992C31.9992 16.7674 30.814 13.9061 28.7044 11.7965C26.5947 9.68684 23.7335 8.50167 20.75 8.50167V10.2323ZM20.75 29.2694C18.2255 29.2694 15.8045 28.2665 14.0194 26.4815C12.2343 24.6964 11.2315 22.2753 11.2315 19.7508H9.50082C9.50082 22.7343 10.686 25.5956 12.7956 27.7052C14.9053 29.8148 17.7665 31 20.75 31V29.2694ZM25.5093 27.9968C24.0629 28.8334 22.4209 29.2724 20.75 29.2694V31C22.7979 31 24.7189 30.452 26.3746 29.4944L25.5093 27.9968ZM30.2685 19.7508C30.2716 21.4217 29.8325 23.0637 28.9959 24.5101L30.4935 25.3754C31.4825 23.6661 32.0019 21.7257 31.9992 19.7508H30.2685ZM14.0536 12.9852C15.8337 11.2178 18.2415 10.2287 20.75 10.2323V8.50167C17.7852 8.49785 14.9396 9.6669 12.8352 11.7553L14.0536 12.9852Z" fill="black"/>
<defs>
<filter id="filter0_d_235_807" x="0" y="0" width="40" height="42" filterUnits="userSpaceOnUse" color-interpolation-filters="sRGB">
<feFlood flood-opacity="0" result="BackgroundImageFix"/>
<feColorMatrix in="SourceAlpha" type="matrix" values="0 0 0 0 0 0 0 0 0 0 0 0 0 0 0 0 0 0 127 0" result="hardAlpha"/>
<feOffset dy="2"/>
<feColorMatrix type="matrix" values="0 0 0 0 0 0 0 0 0 0 0 0 0 0 0 0 0 0 1 0"/>
<feBlend mode="normal" in2="BackgroundImageFix" result="effect1_dropShadow_235_807"/>
<feBlend mode="normal" in="SourceGraphic" in2="effect1_dropShadow_235_807" result="shape"/>
</filter>
</defs>
</svg>
