<svg width="92" height="85" viewBox="0 0 92 85" fill="none" xmlns="http://www.w3.org/2000/svg">
<g filter="url(#filter0_d_253_2050)">
<g filter="url(#filter1_d_253_2050)">
<rect x="25" y="20" width="42" height="42" rx="21" fill="url(#paint0_linear_253_2050)"/>
</g>
<path d="M52.3566 45.8184C51.8188 45.6663 51.1652 45.7895 50.8962 46.0938L49.0551 49.4509L46.4231 50.9051L43.7616 49.4509L41.95 46.0938C41.6811 45.7895 41.0275 45.6663 40.4896 45.8184C39.9518 45.9706 39.1929 46.5578 39.4618 46.8621L41.95 50.1276L45.4495 52.8077C45.6334 53.0157 46.0112 53.1485 46.4231 53.1485C46.835 53.1485 47.2129 53.0176 47.3967 52.8077L50.8962 50.1276L53.3176 46.8621C53.5865 46.5578 52.8945 45.9706 52.3566 45.8184Z" fill="white"/>
<path fill-rule="evenodd" clip-rule="evenodd" d="M38.4951 33.9988L46.3455 32.1733L54.5208 33.9988L53.522 35.8703C53.4093 36.1325 53.42 36.3456 53.6508 36.5171C53.8815 36.6887 54.1945 36.7851 54.5208 36.7851C54.8472 36.7851 55.2316 36.6842 55.3909 36.5171C55.5502 36.35 55.7343 36.1327 55.8954 35.8217L56.7897 32.8201C56.7897 32.5775 56.6601 32.3448 56.4293 32.1733C56.1986 32.0018 55.8856 31.9054 55.5593 31.9054C51.4676 31.275 48.8982 29.8503 46.3455 29.8251C44.0059 29.8019 41.6502 31.1432 37.5122 31.9054C37.1859 31.9054 36.8729 32.0018 36.6422 32.1733C36.4114 32.3448 36.2818 32.5775 36.2818 32.8201L37.045 35.8217C37.0764 35.9751 37.3364 36.3864 37.5122 36.5171C37.743 36.6887 38.056 36.7851 38.3823 36.7851C38.7087 36.7851 39.0216 36.6887 39.2524 36.5171C39.4832 36.3456 39.5495 36.0238 39.4368 35.8703L38.4951 33.9988Z" fill="white"/>
<path d="M55.8839 39.7088C55.6947 39.5262 55.4674 39.435 55.2021 39.4353L52.2458 39.4392C51.9805 39.4396 49.3546 39.532 49.1648 39.7151C48.9655 39.9074 48.8704 40.1453 48.8795 40.4288C48.908 40.4288 48.9968 40.4275 49.146 40.4251C49.2953 40.4226 51.7955 40.4218 51.85 40.424C51.9044 40.4262 51.985 40.4352 52.0916 40.4511C52.1981 40.467 52.2893 40.4954 52.365 40.5365C52.4408 40.5775 52.5141 40.6323 52.5851 40.7008C52.7744 40.8834 52.8688 41.1028 52.8684 41.3589C52.8681 41.6149 52.773 41.8345 52.5833 42.0177C52.5121 42.0864 52.4386 42.1413 52.3627 42.1826C52.2869 42.2238 52.1956 42.2525 52.089 42.2687C51.9824 42.2848 51.9018 42.2941 51.8473 42.2964C51.7929 42.2988 49.2926 42.2996 49.1434 42.2975C48.9942 42.2954 48.9053 42.2944 48.8769 42.2944C48.867 42.5871 48.9614 42.8293 49.1601 43.0211C49.3494 43.2038 51.975 43.2942 52.2404 43.2939L55.1753 43.2969C55.4312 43.2966 55.6563 43.2025 55.8508 43.0148C56.0406 42.8317 56.1404 42.6166 56.1502 42.3697L56.1601 40.36C56.1605 40.104 56.0684 39.8869 55.8839 39.7088ZM43.4796 39.7088C43.2904 39.5262 40.3411 39.435 40.0758 39.4354L37.1408 39.4324C36.8755 39.4327 36.6479 39.5245 36.4582 39.7076C36.2732 39.8862 36.1757 40.1035 36.1659 40.3596L36.156 42.3692C36.1556 42.6253 36.2477 42.8424 36.4322 43.0205C36.6215 43.2031 36.8487 43.2943 37.114 43.2939L40.0703 43.2901C40.3262 43.2897 43.2734 43.1957 43.4679 43.008C43.6671 42.8157 43.7646 42.58 43.7602 42.3011C43.7318 42.3012 43.643 42.3024 43.4937 42.3049C43.3445 42.3074 40.5206 42.3075 40.4661 42.3053C40.4117 42.3031 40.3311 42.294 40.2246 42.2782C40.118 42.2623 40.0268 42.2339 39.9511 42.1928C39.8753 42.1518 39.802 42.097 39.731 42.0285C39.5418 41.8458 39.4473 41.6265 39.4477 41.3704C39.448 41.1143 39.5431 40.8947 39.7329 40.7116C39.804 40.6429 39.8775 40.5879 39.9534 40.5467C40.0292 40.5054 40.1205 40.4767 40.2271 40.4606C40.3337 40.4444 40.4143 40.4352 40.4688 40.4328C40.5232 40.4305 43.3471 40.4303 43.4964 40.4324C43.6456 40.4345 43.7344 40.4355 43.7628 40.4355C43.7727 40.1429 43.6783 39.9006 43.4796 39.7088ZM57.2502 38.3901C57.8179 38.9381 58.0965 39.5962 58.086 40.3644L58.0761 42.374C58.075 43.1331 57.7898 43.7873 57.2205 44.3368C56.6465 44.8908 55.9615 45.1638 55.1656 45.1557L52.2306 45.1527C51.4442 45.1537 48.3687 44.8809 47.801 44.3329C47.219 43.7713 46.9334 43.0926 46.9439 42.297L45.6932 42.2986C45.7016 43.0942 45.4164 43.7713 44.8376 44.3299C44.2683 44.8794 40.8637 45.1546 40.0677 45.1557L37.1114 45.1595C36.3155 45.1606 35.6337 44.8871 35.0659 44.3391C34.4982 43.7912 34.2196 43.1331 34.2301 42.3649L34.24 40.3552C34.2411 39.5962 34.5263 38.9419 35.0956 38.3925C35.6696 37.8385 36.3546 37.5655 37.1505 37.5736L40.0855 37.5766C40.8719 37.5756 44.271 37.8491 44.8388 38.397C45.4207 38.9587 45.7064 39.6373 45.6958 40.433L46.9466 40.4314C46.9382 39.6357 47.2234 38.9586 47.8022 38.4C48.3715 37.8506 51.4524 37.5746 52.2484 37.5736L55.2047 37.5697C56.0006 37.5687 56.6824 37.8422 57.2502 38.3901Z" fill="url(#paint1_linear_253_2050)"/>
</g>
<defs>
<filter id="filter0_d_253_2050" x="0" y="0" width="92" height="92" filterUnits="userSpaceOnUse" color-interpolation-filters="sRGB">
<feFlood flood-opacity="0" result="BackgroundImageFix"/>
<feColorMatrix in="SourceAlpha" type="matrix" values="0 0 0 0 0 0 0 0 0 0 0 0 0 0 0 0 0 0 127 0" result="hardAlpha"/>
<feOffset dy="5"/>
<feGaussianBlur stdDeviation="12.5"/>
<feComposite in2="hardAlpha" operator="out"/>
<feColorMatrix type="matrix" values="0 0 0 0 0.878431 0 0 0 0 0.654902 0 0 0 0 0.854902 0 0 0 1 0"/>
<feBlend mode="normal" in2="BackgroundImageFix" result="effect1_dropShadow_253_2050"/>
<feBlend mode="normal" in="SourceGraphic" in2="effect1_dropShadow_253_2050" result="shape"/>
</filter>
<filter id="filter1_d_253_2050" x="24" y="20" width="44" height="45" filterUnits="userSpaceOnUse" color-interpolation-filters="sRGB">
<feFlood flood-opacity="0" result="BackgroundImageFix"/>
<feColorMatrix in="SourceAlpha" type="matrix" values="0 0 0 0 0 0 0 0 0 0 0 0 0 0 0 0 0 0 127 0" result="hardAlpha"/>
<feOffset dy="2"/>
<feGaussianBlur stdDeviation="0.5"/>
<feColorMatrix type="matrix" values="0 0 0 0 0.754167 0 0 0 0 0.754167 0 0 0 0 0.754167 0 0 0 0.9 0"/>
<feBlend mode="normal" in2="BackgroundImageFix" result="effect1_dropShadow_253_2050"/>
<feBlend mode="normal" in="SourceGraphic" in2="effect1_dropShadow_253_2050" result="shape"/>
</filter>
<linearGradient id="paint0_linear_253_2050" x1="46" y1="17" x2="46" y2="67.25" gradientUnits="userSpaceOnUse">
<stop stop-color="#E0A7DA"/>
<stop offset="0.495" stop-color="#914186"/>
<stop offset="1" stop-color="#413F3F"/>
</linearGradient>
<linearGradient id="paint1_linear_253_2050" x1="34.2118" y1="41.3801" x2="58.0416" y2="41.3801" gradientUnits="userSpaceOnUse">
<stop stop-color="#000137"/>
<stop offset="0.29" stop-color="#780000"/>
<stop offset="0.51" stop-color="#F10202"/>
<stop offset="0.725" stop-color="#780000"/>
<stop offset="1" stop-color="#000137"/>
</linearGradient>
</defs>
</svg>
