<svg width="56" height="58" viewBox="0 0 56 58" fill="none" xmlns="http://www.w3.org/2000/svg">
<g filter="url(#filter0_d_235_808)">
<rect width="56" height="56" rx="28" fill="white"/>
<rect x="0.5" y="0.5" width="55" height="55" rx="27.5" stroke="#020202"/>
</g>
<path d="M36.4756 34.4246C35.7584 34.2217 34.887 34.386 34.5284 34.7918L32.0735 39.2679L28.5643 41.2068L25.0156 39.2679L22.6001 34.7918C22.2416 34.386 21.3701 34.2217 20.6529 34.4246C19.9358 34.6274 18.9239 35.4104 19.2825 35.8161L22.6001 40.1701L27.2661 43.7435C27.5112 44.0209 28.0151 44.1981 28.5643 44.1981C29.1135 44.1981 29.6173 44.0234 29.8624 43.7435L34.5284 40.1701L37.7569 35.8161C38.1155 35.4104 37.1927 34.6274 36.4756 34.4246Z" fill="black"/>
<path fill-rule="evenodd" clip-rule="evenodd" d="M17.9935 18.665L28.4607 16.231L39.3612 18.665L38.0294 21.1604C37.8791 21.51 37.8934 21.7941 38.2011 22.0228C38.5087 22.2516 38.9261 22.3801 39.3612 22.3801C39.7963 22.3801 40.3089 22.2456 40.5213 22.0228C40.7337 21.8 40.9791 21.5102 41.194 21.0956L42.3864 17.0935C42.3864 16.77 42.2135 16.4598 41.9058 16.231C41.5982 16.0023 41.1809 15.8738 40.7457 15.8738C35.2902 15.0334 31.8644 13.1337 28.4607 13.1001C25.3412 13.0692 22.2004 14.8576 16.6831 15.8738C16.2479 15.8738 15.8306 16.0023 15.5229 16.231C15.2153 16.4598 15.0424 16.77 15.0424 17.0935L16.0601 21.0956C16.1019 21.3002 16.4486 21.8486 16.6831 22.0228C16.9907 22.2516 17.408 22.3801 17.8432 22.3801C18.2783 22.3801 18.6956 22.2516 19.0033 22.0228C19.3109 21.7941 19.3994 21.365 19.2492 21.1604L17.9935 18.665Z" fill="black"/>
<path d="M41.1784 26.2784C40.9261 26.0349 40.6231 25.9133 40.2693 25.9138L36.3276 25.9189C35.9738 25.9194 32.4726 26.0426 32.2196 26.2868C31.954 26.5433 31.8272 26.8605 31.8393 27.2384C31.8772 27.2384 31.9956 27.2367 32.1946 27.2334C32.3936 27.2301 35.7272 27.229 35.7999 27.232C35.8725 27.2349 35.9799 27.247 36.122 27.2681C36.2641 27.2893 36.3856 27.3272 36.4866 27.382C36.5876 27.4367 36.6854 27.5097 36.78 27.6011C37.0324 27.8446 37.1583 28.1371 37.1578 28.4785C37.1574 28.8199 37.0306 29.1127 36.7776 29.3569C36.6827 29.4485 36.5847 29.5218 36.4835 29.5768C36.3824 29.6318 36.2607 29.6701 36.1186 29.6916C35.9764 29.7131 35.869 29.7254 35.7964 29.7286C35.7237 29.7317 32.3901 29.7328 32.1911 29.73C31.9921 29.7272 31.8737 29.7259 31.8358 29.7259C31.8226 30.1161 31.9485 30.4391 32.2134 30.6948C32.4658 30.9383 35.9666 31.059 36.3204 31.0585L40.2337 31.0626C40.5748 31.0621 40.875 30.9367 41.1344 30.6864C41.3874 30.4422 41.5204 30.1555 41.5335 29.8263L41.5468 27.1467C41.5472 26.8053 41.4245 26.5159 41.1784 26.2784ZM24.6394 26.2785C24.3871 26.0349 20.4547 25.9134 20.1009 25.9138L16.1876 25.9098C15.8339 25.9103 15.5305 26.0326 15.2775 26.2768C15.0308 26.5149 14.9009 26.8047 14.8878 27.1461L14.8745 29.8256C14.8741 30.1671 14.9968 30.4565 15.2429 30.694C15.4952 30.9375 15.7982 31.059 16.152 31.0586L20.0937 31.0534C20.4348 31.053 24.3644 30.9276 24.6237 30.6773C24.8894 30.4209 25.0194 30.1067 25.0136 29.7348C24.9757 29.7349 24.8572 29.7366 24.6582 29.7399C24.4592 29.7432 20.6941 29.7434 20.6214 29.7404C20.5488 29.7375 20.4414 29.7254 20.2993 29.7042C20.1572 29.6831 20.0357 29.6451 19.9347 29.5904C19.8337 29.5357 19.7359 29.4626 19.6413 29.3713C19.3889 29.1278 19.263 28.8353 19.2635 28.4939C19.264 28.1524 19.3907 27.8596 19.6437 27.6154C19.7386 27.5239 19.8366 27.4506 19.9378 27.3956C20.0389 27.3406 20.1606 27.3023 20.3027 27.2808C20.4449 27.2593 20.5523 27.2469 20.6249 27.2438C20.6976 27.2406 24.4627 27.2405 24.6617 27.2432C24.8607 27.246 24.9791 27.2474 25.017 27.2473C25.0302 26.8571 24.9043 26.5342 24.6394 26.2785ZM43.0002 24.5202C43.7572 25.2508 44.1286 26.1282 44.1146 27.1525L44.1013 29.8321C44.0999 30.8441 43.7197 31.7164 42.9606 32.4491C42.1953 33.1878 41.282 33.5517 40.2207 33.5409L36.3074 33.5369C35.2588 33.5382 31.1582 33.1745 30.4012 32.4439C29.6253 31.695 29.2444 30.7901 29.2585 29.7293L27.5908 29.7315C27.602 30.7923 27.2217 31.6951 26.45 32.4399C25.691 33.1725 21.1515 33.5395 20.0902 33.5409L16.1485 33.546C15.0873 33.5474 14.1781 33.1828 13.4211 32.4522C12.6641 31.7216 12.2927 30.8441 12.3067 29.8199L12.32 27.1403C12.3214 26.1282 12.7016 25.2559 13.4607 24.5233C14.2261 23.7846 15.1393 23.4207 16.2006 23.4315L20.1139 23.4355C21.1625 23.4341 25.6946 23.7988 26.4516 24.5294C27.2276 25.2783 27.6085 26.1831 27.5943 27.244L29.262 27.2418C29.2508 26.181 29.6311 25.2782 30.4028 24.5334C31.1619 23.8008 35.2698 23.4329 36.3311 23.4315L40.2728 23.4263C41.3341 23.4249 42.2432 23.7895 43.0002 24.5202Z" fill="url(#paint0_linear_235_808)"/>
<defs>
<filter id="filter0_d_235_808" x="0" y="0" width="56" height="58" filterUnits="userSpaceOnUse" color-interpolation-filters="sRGB">
<feFlood flood-opacity="0" result="BackgroundImageFix"/>
<feColorMatrix in="SourceAlpha" type="matrix" values="0 0 0 0 0 0 0 0 0 0 0 0 0 0 0 0 0 0 127 0" result="hardAlpha"/>
<feOffset dy="2"/>
<feColorMatrix type="matrix" values="0 0 0 0 0 0 0 0 0 0 0 0 0 0 0 0 0 0 1 0"/>
<feBlend mode="normal" in2="BackgroundImageFix" result="effect1_dropShadow_235_808"/>
<feBlend mode="normal" in="SourceGraphic" in2="effect1_dropShadow_235_808" result="shape"/>
</filter>
<linearGradient id="paint0_linear_235_808" x1="12.2823" y1="28.5068" x2="44.0554" y2="28.5068" gradientUnits="userSpaceOnUse">
<stop stop-color="#000137"/>
<stop offset="0.29" stop-color="#780000"/>
<stop offset="0.51" stop-color="#F10202"/>
<stop offset="0.725" stop-color="#780000"/>
<stop offset="1" stop-color="#000137"/>
</linearGradient>
</defs>
</svg>
