<svg width="338" height="152" viewBox="0 0 338 152" fill="none" xmlns="http://www.w3.org/2000/svg">
<g filter="url(#filter0_d_512_381)">
<rect x="9" y="1" width="320" height="134" rx="20" fill="url(#paint0_linear_512_381)"/>
<rect x="9" y="1" width="320" height="134" rx="20" stroke="#E2E8F0"/>
</g>
<path fill-rule="evenodd" clip-rule="evenodd" d="M240.484 134.779C240.164 130.826 240 126.824 240 122.779C240 68.3767 269.594 21.6032 311.982 1C321.613 2.43974 329 10.7468 329 20.7792V114.779C329 125.825 320.046 134.779 309 134.779H240.484Z" fill="url(#paint1_linear_512_381)"/>
<path d="M49.4 42.4C47.192 42.4 45.4 44.192 45.4 46.4V55.2C45.4 56.0487 45.0629 56.8626 44.4627 57.4627C43.8626 58.0629 43.0487 58.4 42.2 58.4C41.3513 58.4 40.5374 58.0629 39.9373 57.4627C39.3371 56.8626 39 56.0487 39 55.2V46.4C39 43.6417 40.0957 40.9965 42.0461 39.0461C43.9965 37.0957 46.6417 36 49.4 36H58.2C59.0487 36 59.8626 36.3371 60.4627 36.9373C61.0629 37.5374 61.4 38.3513 61.4 39.2C61.4 40.0487 61.0629 40.8626 60.4627 41.4627C59.8626 42.0629 59.0487 42.4 58.2 42.4H49.4ZM49.4 93.6C47.192 93.6 45.4 91.808 45.4 89.6V80.8C45.4 79.9513 45.0629 79.1374 44.4627 78.5373C43.8626 77.9371 43.0487 77.6 42.2 77.6C41.3513 77.6 40.5374 77.9371 39.9373 78.5373C39.3371 79.1374 39 79.9513 39 80.8V89.6C39 90.9657 39.269 92.3181 39.7917 93.5799C40.3143 94.8417 41.0804 95.9882 42.0461 96.9539C43.0118 97.9196 44.1583 98.6857 45.4201 99.2084C46.6819 99.731 48.0343 100 49.4 100H58.2C59.0487 100 59.8626 99.6629 60.4627 99.0627C61.0629 98.4626 61.4 97.6487 61.4 96.8C61.4 95.9513 61.0629 95.1374 60.4627 94.5373C59.8626 93.9371 59.0487 93.6 58.2 93.6H49.4ZM96.6 46.4C96.6 44.192 94.808 42.4 92.6 42.4H83.8C82.9513 42.4 82.1374 42.0629 81.5373 41.4627C80.9371 40.8626 80.6 40.0487 80.6 39.2C80.6 38.3513 80.9371 37.5374 81.5373 36.9373C82.1374 36.3371 82.9513 36 83.8 36H92.6C93.9657 36 95.3181 36.269 96.5799 36.7917C97.8417 37.3143 98.9882 38.0804 99.9539 39.0461C100.92 40.0118 101.686 41.1583 102.208 42.4201C102.731 43.6819 103 45.0343 103 46.4V55.2C103 56.0487 102.663 56.8626 102.063 57.4627C101.463 58.0629 100.649 58.4 99.8 58.4C98.9513 58.4 98.1374 58.0629 97.5373 57.4627C96.9371 56.8626 96.6 56.0487 96.6 55.2V46.4ZM92.6 93.6C94.808 93.6 96.6 91.808 96.6 89.6V80.8C96.6 79.9513 96.9371 79.1374 97.5373 78.5373C98.1374 77.9371 98.9513 77.6 99.8 77.6C100.649 77.6 101.463 77.9371 102.063 78.5373C102.663 79.1374 103 79.9513 103 80.8V89.6C103 90.9657 102.731 92.3181 102.208 93.5799C101.686 94.8417 100.92 95.9882 99.9539 96.9539C98.9882 97.9196 97.8417 98.6857 96.5799 99.2084C95.3181 99.731 93.9657 100 92.6 100H83.8C82.9513 100 82.1374 99.6629 81.5373 99.0627C80.9371 98.4626 80.6 97.6487 80.6 96.8C80.6 95.9513 80.9371 95.1374 81.5373 94.5373C82.1374 93.9371 82.9513 93.6 83.8 93.6H92.6ZM54.2 55.2C54.2 54.3513 54.5371 53.5374 55.1373 52.9373C55.7374 52.3371 56.5513 52 57.4 52H84.6C85.4487 52 86.2626 52.3371 86.8627 52.9373C87.4629 53.5374 87.8 54.3513 87.8 55.2V60C87.8 60.8487 87.4629 61.6626 86.8627 62.2627C86.2626 62.8629 85.4487 63.2 84.6 63.2C83.7513 63.2 82.9374 62.8629 82.3373 62.2627C81.7371 61.6626 81.4 60.8487 81.4 60V58.4H74.2V77.6H78.2C79.0487 77.6 79.8626 77.9371 80.4627 78.5373C81.0629 79.1374 81.4 79.9513 81.4 80.8C81.4 81.6487 81.0629 82.4626 80.4627 83.0627C79.8626 83.6629 79.0487 84 78.2 84H63.8C62.9513 84 62.1374 83.6629 61.5373 83.0627C60.9371 82.4626 60.6 81.6487 60.6 80.8C60.6 79.9513 60.9371 79.1374 61.5373 78.5373C62.1374 77.9371 62.9513 77.6 63.8 77.6H67.8V58.4H60.6V60C60.6 60.8487 60.2629 61.6626 59.6627 62.2627C59.0626 62.8629 58.2487 63.2 57.4 63.2C56.5513 63.2 55.7374 62.8629 55.1373 62.2627C54.5371 61.6626 54.2 60.8487 54.2 60V55.2Z" fill="url(#paint2_linear_512_381)"/>
<path d="M129.893 57.4688L128.416 66H127.326L128.809 57.4688H129.893ZM132.553 57.4688L132.389 58.3945H125.99L126.154 57.4688H132.553ZM133.566 65.2793L136.238 59.6602H137.41L133.689 66.9844C133.592 67.1914 133.477 67.3906 133.344 67.582C133.215 67.7734 133.066 67.9453 132.898 68.0977C132.734 68.25 132.549 68.3691 132.342 68.4551C132.135 68.541 131.906 68.584 131.656 68.584C131.551 68.5801 131.445 68.5684 131.34 68.5488C131.23 68.5293 131.125 68.5078 131.023 68.4844L131.088 67.5938C131.135 67.6016 131.182 67.6074 131.229 67.6113C131.275 67.6191 131.32 67.625 131.363 67.6289C131.625 67.6367 131.85 67.5996 132.037 67.5176C132.229 67.4355 132.393 67.3145 132.529 67.1543C132.67 66.9941 132.795 66.8027 132.904 66.5801L133.566 65.2793ZM133.273 59.6602L134.029 64.6406L134.1 65.7598L133.309 66.1465L132.16 59.6602H133.273ZM139.162 60.9434L137.861 68.4375H136.795L138.318 59.6602H139.291L139.162 60.9434ZM142.977 62.7422L142.965 62.8652C142.914 63.248 142.82 63.6348 142.684 64.0254C142.551 64.4121 142.369 64.7656 142.139 65.0859C141.908 65.4062 141.625 65.6621 141.289 65.8535C140.957 66.0449 140.566 66.1348 140.117 66.123C139.723 66.1152 139.385 66.0293 139.104 65.8652C138.822 65.6973 138.596 65.4766 138.424 65.2031C138.252 64.9258 138.129 64.6172 138.055 64.2773C137.984 63.9336 137.961 63.582 137.984 63.2227L138.066 62.5723C138.133 62.1895 138.244 61.8164 138.4 61.4531C138.561 61.0859 138.764 60.7559 139.01 60.4629C139.256 60.1699 139.547 59.9414 139.883 59.7773C140.223 59.6094 140.607 59.5312 141.037 59.543C141.471 59.5547 141.822 59.6602 142.092 59.8594C142.365 60.0547 142.572 60.3105 142.713 60.627C142.857 60.9395 142.947 61.2812 142.982 61.6523C143.018 62.0195 143.016 62.3828 142.977 62.7422ZM141.898 62.8594L141.916 62.7305C141.943 62.4961 141.949 62.248 141.934 61.9863C141.922 61.7246 141.873 61.4805 141.787 61.2539C141.705 61.0234 141.574 60.834 141.395 60.6855C141.219 60.5371 140.979 60.459 140.674 60.4512C140.432 60.4434 140.201 60.4844 139.982 60.5742C139.768 60.6602 139.572 60.7832 139.396 60.9434C139.221 61.0996 139.07 61.2812 138.945 61.4883C138.82 61.6914 138.729 61.9062 138.67 62.1328L138.418 63.6621C138.414 63.9395 138.475 64.1973 138.6 64.4355C138.725 64.6699 138.895 64.8594 139.109 65.0039C139.328 65.1484 139.576 65.2246 139.854 65.2324C140.178 65.2402 140.459 65.1758 140.697 65.0391C140.939 64.8984 141.143 64.7109 141.307 64.4766C141.471 64.2383 141.602 63.9785 141.699 63.6973C141.797 63.4121 141.863 63.1328 141.898 62.8594ZM146.445 66.1172C146.012 66.1094 145.635 66.0234 145.314 65.8594C144.998 65.6914 144.738 65.4668 144.535 65.1855C144.336 64.9004 144.193 64.5762 144.107 64.2129C144.021 63.8496 143.996 63.4688 144.031 63.0703L144.055 62.8184C144.094 62.4121 144.193 62.0137 144.354 61.623C144.514 61.2285 144.727 60.873 144.992 60.5566C145.262 60.2402 145.578 59.9902 145.941 59.8066C146.309 59.6191 146.715 59.5312 147.16 59.543C147.602 59.5508 147.969 59.6445 148.262 59.8242C148.555 60.0039 148.783 60.2422 148.947 60.5391C149.115 60.832 149.225 61.1621 149.275 61.5293C149.326 61.8926 149.33 62.2656 149.287 62.6484L149.223 63.1348H144.623L144.764 62.25L148.273 62.2559L148.291 62.1621C148.33 61.8809 148.314 61.6094 148.244 61.3477C148.174 61.0859 148.045 60.8711 147.857 60.7031C147.674 60.5312 147.426 60.4414 147.113 60.4336C146.789 60.4219 146.508 60.4883 146.27 60.6328C146.031 60.7734 145.832 60.9648 145.672 61.207C145.512 61.4453 145.385 61.707 145.291 61.9922C145.201 62.2734 145.139 62.5488 145.104 62.8184L145.08 63.0645C145.057 63.3145 145.064 63.5664 145.104 63.8203C145.143 64.0742 145.217 64.3066 145.326 64.5176C145.439 64.7246 145.596 64.8945 145.795 65.0273C145.994 65.1562 146.24 65.2246 146.533 65.2324C146.889 65.2402 147.207 65.1641 147.488 65.0039C147.773 64.8398 148.033 64.6328 148.268 64.3828L148.871 64.8984C148.688 65.168 148.469 65.3945 148.215 65.5781C147.961 65.7617 147.684 65.8984 147.383 65.9883C147.082 66.0781 146.77 66.1211 146.445 66.1172ZM153.166 62.9355L153.184 62.8008C153.23 62.375 153.336 61.9648 153.5 61.5703C153.668 61.1758 153.889 60.8242 154.162 60.5156C154.436 60.207 154.76 59.9648 155.135 59.7891C155.51 59.6133 155.928 59.5312 156.389 59.543C156.834 59.5508 157.215 59.6465 157.531 59.8301C157.852 60.0137 158.109 60.2578 158.305 60.5625C158.504 60.8633 158.643 61.2031 158.721 61.582C158.799 61.9609 158.818 62.3516 158.779 62.7539L158.768 62.8887C158.717 63.3145 158.607 63.7227 158.439 64.1133C158.271 64.5039 158.049 64.8516 157.771 65.1562C157.498 65.4609 157.174 65.7012 156.799 65.877C156.424 66.0488 156.008 66.1289 155.551 66.1172C155.109 66.1094 154.729 66.0156 154.408 65.8359C154.092 65.6523 153.836 65.4102 153.641 65.1094C153.445 64.8086 153.309 64.4707 153.23 64.0957C153.152 63.7207 153.131 63.334 153.166 62.9355ZM154.238 62.8008L154.227 62.9414C154.199 63.1875 154.197 63.4434 154.221 63.709C154.248 63.9746 154.311 64.2207 154.408 64.4473C154.51 64.6738 154.656 64.8594 154.848 65.0039C155.039 65.1484 155.287 65.2246 155.592 65.2324C155.916 65.2402 156.201 65.1777 156.447 65.0449C156.693 64.9082 156.902 64.7246 157.074 64.4941C157.25 64.2637 157.389 64.0078 157.49 63.7266C157.596 63.4453 157.666 63.166 157.701 62.8887L157.713 62.7539C157.74 62.5078 157.74 62.252 157.713 61.9863C157.689 61.7168 157.627 61.4668 157.525 61.2363C157.428 61.002 157.283 60.8125 157.092 60.668C156.9 60.5195 156.652 60.4414 156.348 60.4336C156.023 60.4219 155.736 60.4863 155.486 60.627C155.24 60.7637 155.031 60.9492 154.859 61.1836C154.688 61.418 154.549 61.6777 154.443 61.9629C154.342 62.2441 154.273 62.5234 154.238 62.8008ZM161.516 60.7031L160.596 66H159.535L160.637 59.6602H161.668L161.516 60.7031ZM163.572 59.6074L163.473 60.627C163.391 60.6113 163.307 60.5977 163.221 60.5859C163.139 60.5742 163.057 60.5684 162.975 60.5684C162.721 60.5645 162.492 60.6035 162.289 60.6855C162.09 60.7637 161.912 60.875 161.756 61.0195C161.604 61.1641 161.473 61.334 161.363 61.5293C161.258 61.7246 161.174 61.9355 161.111 62.1621L160.777 62.3379C160.82 62.0215 160.891 61.6973 160.988 61.3652C161.09 61.0332 161.229 60.7266 161.404 60.4453C161.584 60.1641 161.809 59.9375 162.078 59.7656C162.352 59.5938 162.68 59.5137 163.062 59.5254C163.148 59.5254 163.232 59.5332 163.314 59.5488C163.4 59.5645 163.486 59.584 163.572 59.6074ZM168.377 60.9434L167.076 68.4375H166.01L167.533 59.6602H168.506L168.377 60.9434ZM172.191 62.7422L172.18 62.8652C172.129 63.248 172.035 63.6348 171.898 64.0254C171.766 64.4121 171.584 64.7656 171.354 65.0859C171.123 65.4062 170.84 65.6621 170.504 65.8535C170.172 66.0449 169.781 66.1348 169.332 66.123C168.938 66.1152 168.6 66.0293 168.318 65.8652C168.037 65.6973 167.811 65.4766 167.639 65.2031C167.467 64.9258 167.344 64.6172 167.27 64.2773C167.199 63.9336 167.176 63.582 167.199 63.2227L167.281 62.5723C167.348 62.1895 167.459 61.8164 167.615 61.4531C167.775 61.0859 167.979 60.7559 168.225 60.4629C168.471 60.1699 168.762 59.9414 169.098 59.7773C169.438 59.6094 169.822 59.5312 170.252 59.543C170.686 59.5547 171.037 59.6602 171.307 59.8594C171.58 60.0547 171.787 60.3105 171.928 60.627C172.072 60.9395 172.162 61.2812 172.197 61.6523C172.232 62.0195 172.23 62.3828 172.191 62.7422ZM171.113 62.8594L171.131 62.7305C171.158 62.4961 171.164 62.248 171.148 61.9863C171.137 61.7246 171.088 61.4805 171.002 61.2539C170.92 61.0234 170.789 60.834 170.609 60.6855C170.434 60.5371 170.193 60.459 169.889 60.4512C169.646 60.4434 169.416 60.4844 169.197 60.5742C168.982 60.6602 168.787 60.7832 168.611 60.9434C168.436 61.0996 168.285 61.2812 168.16 61.4883C168.035 61.6914 167.943 61.9062 167.885 62.1328L167.633 63.6621C167.629 63.9395 167.689 64.1973 167.814 64.4355C167.939 64.6699 168.109 64.8594 168.324 65.0039C168.543 65.1484 168.791 65.2246 169.068 65.2324C169.393 65.2402 169.674 65.1758 169.912 65.0391C170.154 64.8984 170.357 64.7109 170.521 64.4766C170.686 64.2383 170.816 63.9785 170.914 63.6973C171.012 63.4121 171.078 63.1328 171.113 62.8594ZM176.809 64.916L177.336 61.6406C177.363 61.3984 177.34 61.1855 177.266 61.002C177.195 60.8184 177.076 60.6758 176.908 60.5742C176.744 60.4727 176.537 60.418 176.287 60.4102C176.068 60.4062 175.854 60.4414 175.643 60.5156C175.436 60.5898 175.256 60.7012 175.104 60.8496C174.951 60.998 174.852 61.1855 174.805 61.4121L173.75 61.418C173.777 61.1016 173.877 60.8262 174.049 60.5918C174.221 60.3535 174.436 60.1562 174.693 60C174.951 59.8398 175.229 59.7227 175.525 59.6484C175.822 59.5703 176.111 59.5332 176.393 59.5371C176.818 59.5449 177.188 59.6367 177.5 59.8125C177.816 59.9844 178.055 60.2266 178.215 60.5391C178.375 60.8516 178.434 61.2266 178.391 61.6641L177.904 64.6172C177.869 64.832 177.848 65.0488 177.84 65.2676C177.836 65.4824 177.861 65.6934 177.916 65.9004L177.904 66L176.832 66.0059C176.789 65.8262 176.768 65.6445 176.768 65.4609C176.771 65.2773 176.785 65.0957 176.809 64.916ZM177.459 62.1562L177.336 62.918L176.334 62.9121C176.123 62.9121 175.9 62.9277 175.666 62.959C175.432 62.9902 175.209 63.0488 174.998 63.1348C174.787 63.2207 174.609 63.3457 174.465 63.5098C174.32 63.6699 174.232 63.8789 174.201 64.1367C174.178 64.3477 174.203 64.5312 174.277 64.6875C174.355 64.8398 174.473 64.959 174.629 65.0449C174.785 65.1309 174.967 65.1758 175.174 65.1797C175.443 65.1836 175.709 65.1309 175.971 65.0215C176.232 64.9121 176.461 64.7559 176.656 64.5527C176.852 64.3496 176.986 64.1152 177.061 63.8496L177.447 64.3711C177.373 64.6289 177.252 64.8672 177.084 65.0859C176.916 65.3008 176.717 65.4863 176.486 65.6426C176.26 65.7988 176.016 65.9199 175.754 66.0059C175.492 66.0918 175.23 66.1328 174.969 66.1289C174.613 66.1211 174.291 66.041 174.002 65.8887C173.717 65.7363 173.49 65.5234 173.322 65.25C173.158 64.9727 173.088 64.6504 173.111 64.2832C173.135 63.8809 173.24 63.543 173.428 63.2695C173.615 62.9961 173.855 62.7773 174.148 62.6133C174.445 62.4492 174.77 62.332 175.121 62.2617C175.473 62.1875 175.82 62.1504 176.164 62.1504L177.459 62.1562ZM183.23 64.2832C183.266 64.041 183.221 63.8516 183.096 63.7148C182.975 63.5781 182.814 63.4746 182.615 63.4043C182.42 63.3301 182.229 63.2695 182.041 63.2227C181.807 63.1641 181.57 63.0918 181.332 63.0059C181.094 62.9199 180.875 62.8105 180.676 62.6777C180.48 62.541 180.324 62.373 180.207 62.1738C180.094 61.9707 180.043 61.7246 180.055 61.4355C180.07 61.123 180.152 60.8477 180.301 60.6094C180.453 60.3711 180.648 60.1719 180.887 60.0117C181.129 59.8516 181.393 59.7324 181.678 59.6543C181.963 59.5762 182.246 59.5391 182.527 59.543C182.926 59.5508 183.287 59.6328 183.611 59.7891C183.939 59.9453 184.199 60.1699 184.391 60.4629C184.582 60.7559 184.672 61.1113 184.66 61.5293L183.611 61.5234C183.619 61.3008 183.574 61.1094 183.477 60.9492C183.379 60.7891 183.244 60.666 183.072 60.5801C182.9 60.4902 182.705 60.4434 182.486 60.4395C182.279 60.4355 182.076 60.4688 181.877 60.5391C181.678 60.6055 181.508 60.7109 181.367 60.8555C181.227 60.9961 181.141 61.1797 181.109 61.4062C181.086 61.5742 181.111 61.7129 181.186 61.8223C181.26 61.9277 181.361 62.0137 181.49 62.0801C181.623 62.1426 181.762 62.1953 181.906 62.2383C182.055 62.2773 182.189 62.3125 182.311 62.3438C182.631 62.4336 182.947 62.5469 183.26 62.6836C183.572 62.8203 183.826 63.0098 184.021 63.252C184.217 63.4902 184.305 63.8047 184.285 64.1953C184.27 64.5273 184.182 64.8164 184.021 65.0625C183.865 65.3047 183.662 65.5059 183.412 65.666C183.166 65.8223 182.895 65.9375 182.598 66.0117C182.301 66.0859 182.004 66.1211 181.707 66.1172C181.297 66.1094 180.914 66.0254 180.559 65.8652C180.207 65.7012 179.926 65.4668 179.715 65.1621C179.504 64.8535 179.404 64.4785 179.416 64.0371L180.477 64.043C180.477 64.2969 180.529 64.5117 180.635 64.6875C180.744 64.8594 180.895 64.9902 181.086 65.0801C181.277 65.1699 181.496 65.2168 181.742 65.2207C181.949 65.2246 182.16 65.1973 182.375 65.1387C182.594 65.0801 182.781 64.9824 182.938 64.8457C183.098 64.7051 183.195 64.5176 183.23 64.2832ZM189.014 59.6602L188.867 60.4922H185.533L185.68 59.6602H189.014ZM187.074 58.1191H188.129L187.057 64.4414C187.045 64.5781 187.049 64.7012 187.068 64.8105C187.088 64.9199 187.135 65.0078 187.209 65.0742C187.283 65.1367 187.396 65.1699 187.549 65.1738C187.635 65.1738 187.719 65.168 187.801 65.1562C187.887 65.1406 187.973 65.127 188.059 65.1152L187.982 66.0059C187.857 66.041 187.729 66.0664 187.596 66.082C187.467 66.1016 187.338 66.1094 187.209 66.1055C186.885 66.1016 186.631 66.0195 186.447 65.8594C186.264 65.6992 186.139 65.4922 186.072 65.2383C186.006 64.9844 185.986 64.7129 186.014 64.4238L187.074 58.1191ZM191.82 66.1172C191.387 66.1094 191.01 66.0234 190.689 65.8594C190.373 65.6914 190.113 65.4668 189.91 65.1855C189.711 64.9004 189.568 64.5762 189.482 64.2129C189.396 63.8496 189.371 63.4688 189.406 63.0703L189.43 62.8184C189.469 62.4121 189.568 62.0137 189.729 61.623C189.889 61.2285 190.102 60.873 190.367 60.5566C190.637 60.2402 190.953 59.9902 191.316 59.8066C191.684 59.6191 192.09 59.5312 192.535 59.543C192.977 59.5508 193.344 59.6445 193.637 59.8242C193.93 60.0039 194.158 60.2422 194.322 60.5391C194.49 60.832 194.6 61.1621 194.65 61.5293C194.701 61.8926 194.705 62.2656 194.662 62.6484L194.598 63.1348H189.998L190.139 62.25L193.648 62.2559L193.666 62.1621C193.705 61.8809 193.689 61.6094 193.619 61.3477C193.549 61.0859 193.42 60.8711 193.232 60.7031C193.049 60.5312 192.801 60.4414 192.488 60.4336C192.164 60.4219 191.883 60.4883 191.645 60.6328C191.406 60.7734 191.207 60.9648 191.047 61.207C190.887 61.4453 190.76 61.707 190.666 61.9922C190.576 62.2734 190.514 62.5488 190.479 62.8184L190.455 63.0645C190.432 63.3145 190.439 63.5664 190.479 63.8203C190.518 64.0742 190.592 64.3066 190.701 64.5176C190.814 64.7246 190.971 64.8945 191.17 65.0273C191.369 65.1562 191.615 65.2246 191.908 65.2324C192.264 65.2402 192.582 65.1641 192.863 65.0039C193.148 64.8398 193.408 64.6328 193.643 64.3828L194.246 64.8984C194.062 65.168 193.844 65.3945 193.59 65.5781C193.336 65.7617 193.059 65.8984 192.758 65.9883C192.457 66.0781 192.145 66.1211 191.82 66.1172ZM202.098 64.916L202.625 61.6406C202.652 61.3984 202.629 61.1855 202.555 61.002C202.484 60.8184 202.365 60.6758 202.197 60.5742C202.033 60.4727 201.826 60.418 201.576 60.4102C201.357 60.4062 201.143 60.4414 200.932 60.5156C200.725 60.5898 200.545 60.7012 200.393 60.8496C200.24 60.998 200.141 61.1855 200.094 61.4121L199.039 61.418C199.066 61.1016 199.166 60.8262 199.338 60.5918C199.51 60.3535 199.725 60.1562 199.982 60C200.24 59.8398 200.518 59.7227 200.814 59.6484C201.111 59.5703 201.4 59.5332 201.682 59.5371C202.107 59.5449 202.477 59.6367 202.789 59.8125C203.105 59.9844 203.344 60.2266 203.504 60.5391C203.664 60.8516 203.723 61.2266 203.68 61.6641L203.193 64.6172C203.158 64.832 203.137 65.0488 203.129 65.2676C203.125 65.4824 203.15 65.6934 203.205 65.9004L203.193 66L202.121 66.0059C202.078 65.8262 202.057 65.6445 202.057 65.4609C202.061 65.2773 202.074 65.0957 202.098 64.916ZM202.748 62.1562L202.625 62.918L201.623 62.9121C201.412 62.9121 201.189 62.9277 200.955 62.959C200.721 62.9902 200.498 63.0488 200.287 63.1348C200.076 63.2207 199.898 63.3457 199.754 63.5098C199.609 63.6699 199.521 63.8789 199.49 64.1367C199.467 64.3477 199.492 64.5312 199.566 64.6875C199.645 64.8398 199.762 64.959 199.918 65.0449C200.074 65.1309 200.256 65.1758 200.463 65.1797C200.732 65.1836 200.998 65.1309 201.26 65.0215C201.521 64.9121 201.75 64.7559 201.945 64.5527C202.141 64.3496 202.275 64.1152 202.35 63.8496L202.736 64.3711C202.662 64.6289 202.541 64.8672 202.373 65.0859C202.205 65.3008 202.006 65.4863 201.775 65.6426C201.549 65.7988 201.305 65.9199 201.043 66.0059C200.781 66.0918 200.52 66.1328 200.258 66.1289C199.902 66.1211 199.58 66.041 199.291 65.8887C199.006 65.7363 198.779 65.5234 198.611 65.25C198.447 64.9727 198.377 64.6504 198.4 64.2832C198.424 63.8809 198.529 63.543 198.717 63.2695C198.904 62.9961 199.145 62.7773 199.438 62.6133C199.734 62.4492 200.059 62.332 200.41 62.2617C200.762 62.1875 201.109 62.1504 201.453 62.1504L202.748 62.1562ZM213.934 57.4688H215.035L214.051 63.2285C213.965 63.8223 213.764 64.3379 213.447 64.7754C213.131 65.2129 212.729 65.5508 212.24 65.7891C211.756 66.0234 211.215 66.1348 210.617 66.123C210.051 66.1113 209.562 65.9844 209.152 65.7422C208.746 65.5 208.443 65.166 208.244 64.7402C208.049 64.3105 207.984 63.8105 208.051 63.2402L209.035 57.4688H210.125L209.146 63.2461C209.104 63.6172 209.129 63.9473 209.223 64.2363C209.32 64.5254 209.488 64.7559 209.727 64.9277C209.969 65.0957 210.285 65.1855 210.676 65.1973C211.09 65.209 211.455 65.1367 211.771 64.9805C212.092 64.8203 212.352 64.5918 212.551 64.2949C212.754 63.998 212.887 63.6465 212.949 63.2402L213.934 57.4688ZM216.746 57.4688L219.418 57.4746C219.938 57.4863 220.396 57.5859 220.795 57.7734C221.193 57.9609 221.496 58.2383 221.703 58.6055C221.914 58.9688 221.996 59.4277 221.949 59.9824C221.91 60.4238 221.785 60.8047 221.574 61.125C221.367 61.4414 221.1 61.707 220.771 61.9219C220.443 62.1328 220.08 62.3008 219.682 62.4258L219.354 62.543H216.705L216.857 61.623L218.738 61.6289C219.082 61.6289 219.404 61.5664 219.705 61.4414C220.01 61.3164 220.264 61.1328 220.467 60.8906C220.674 60.6445 220.801 60.3418 220.848 59.9824C220.891 59.6387 220.857 59.3516 220.748 59.1211C220.639 58.8906 220.467 58.7148 220.232 58.5938C220.002 58.4727 219.723 58.4082 219.395 58.4004L217.689 58.3945L216.371 66H215.264L216.746 57.4688ZM220.133 66L218.791 62.1328L219.881 62.127L221.311 65.9238L221.305 66H220.133ZM227.627 65.0801L227.463 66H223.32L223.479 65.0801H227.627ZM225.025 57.4688L223.543 66H222.436L223.918 57.4688H225.025ZM235.602 64.7051L236.938 57H238.004L236.439 66H235.473L235.602 64.7051ZM231.781 62.9473L231.793 62.8242C231.844 62.4336 231.938 62.043 232.074 61.6523C232.215 61.2617 232.404 60.9043 232.643 60.5801C232.881 60.2559 233.17 59.998 233.51 59.8066C233.85 59.6152 234.246 59.5254 234.699 59.5371C235.105 59.5488 235.445 59.6445 235.719 59.8242C235.992 60.0039 236.207 60.2422 236.363 60.5391C236.523 60.832 236.631 61.1543 236.686 61.5059C236.744 61.8574 236.762 62.2109 236.738 62.5664L236.674 63.1055C236.607 63.4844 236.498 63.8555 236.346 64.2188C236.193 64.582 235.996 64.9102 235.754 65.2031C235.516 65.4922 235.229 65.7207 234.893 65.8887C234.561 66.0566 234.18 66.1348 233.75 66.123C233.336 66.1074 232.992 66 232.719 65.8008C232.449 65.6016 232.238 65.3457 232.086 65.0332C231.938 64.7168 231.84 64.377 231.793 64.0137C231.75 63.6465 231.746 63.291 231.781 62.9473ZM232.871 62.8125L232.859 62.9355C232.832 63.1699 232.822 63.418 232.83 63.6797C232.842 63.9375 232.887 64.1816 232.965 64.4121C233.043 64.6387 233.17 64.8262 233.346 64.9746C233.521 65.1191 233.76 65.1973 234.061 65.209C234.381 65.2168 234.678 65.1445 234.951 64.9922C235.225 64.8398 235.459 64.6367 235.654 64.3828C235.85 64.1289 235.99 63.8535 236.076 63.5566L236.305 62.1328C236.316 61.918 236.291 61.7129 236.229 61.5176C236.166 61.3184 236.072 61.1406 235.947 60.9844C235.826 60.8281 235.676 60.7031 235.496 60.6094C235.32 60.5117 235.123 60.4609 234.904 60.457C234.576 60.4453 234.293 60.5098 234.055 60.6504C233.816 60.7871 233.615 60.9727 233.451 61.207C233.291 61.4375 233.164 61.6934 233.07 61.9746C232.977 62.2559 232.91 62.5352 232.871 62.8125ZM240.312 59.6602L239.211 66H238.15L239.252 59.6602H240.312ZM239.463 57.9961C239.463 57.8125 239.52 57.6602 239.633 57.5391C239.75 57.4141 239.9 57.3496 240.084 57.3457C240.268 57.3418 240.418 57.3984 240.535 57.5156C240.656 57.6328 240.715 57.7812 240.711 57.9609C240.711 58.1406 240.65 58.291 240.529 58.4121C240.412 58.5293 240.264 58.5898 240.084 58.5938C239.904 58.5977 239.756 58.5449 239.639 58.4355C239.521 58.3223 239.463 58.1758 239.463 57.9961ZM242.879 60.7031L241.959 66H240.898L242 59.6602H243.031L242.879 60.7031ZM244.936 59.6074L244.836 60.627C244.754 60.6113 244.67 60.5977 244.584 60.5859C244.502 60.5742 244.42 60.5684 244.338 60.5684C244.084 60.5645 243.855 60.6035 243.652 60.6855C243.453 60.7637 243.275 60.875 243.119 61.0195C242.967 61.1641 242.836 61.334 242.727 61.5293C242.621 61.7246 242.537 61.9355 242.475 62.1621L242.141 62.3379C242.184 62.0215 242.254 61.6973 242.352 61.3652C242.453 61.0332 242.592 60.7266 242.768 60.4453C242.947 60.1641 243.172 59.9375 243.441 59.7656C243.715 59.5938 244.043 59.5137 244.426 59.5254C244.512 59.5254 244.596 59.5332 244.678 59.5488C244.764 59.5645 244.85 59.584 244.936 59.6074ZM247.414 66.1172C246.98 66.1094 246.604 66.0234 246.283 65.8594C245.967 65.6914 245.707 65.4668 245.504 65.1855C245.305 64.9004 245.162 64.5762 245.076 64.2129C244.99 63.8496 244.965 63.4688 245 63.0703L245.023 62.8184C245.062 62.4121 245.162 62.0137 245.322 61.623C245.482 61.2285 245.695 60.873 245.961 60.5566C246.23 60.2402 246.547 59.9902 246.91 59.8066C247.277 59.6191 247.684 59.5312 248.129 59.543C248.57 59.5508 248.938 59.6445 249.23 59.8242C249.523 60.0039 249.752 60.2422 249.916 60.5391C250.084 60.832 250.193 61.1621 250.244 61.5293C250.295 61.8926 250.299 62.2656 250.256 62.6484L250.191 63.1348H245.592L245.732 62.25L249.242 62.2559L249.26 62.1621C249.299 61.8809 249.283 61.6094 249.213 61.3477C249.143 61.0859 249.014 60.8711 248.826 60.7031C248.643 60.5312 248.395 60.4414 248.082 60.4336C247.758 60.4219 247.477 60.4883 247.238 60.6328C247 60.7734 246.801 60.9648 246.641 61.207C246.48 61.4453 246.354 61.707 246.26 61.9922C246.17 62.2734 246.107 62.5488 246.072 62.8184L246.049 63.0645C246.025 63.3145 246.033 63.5664 246.072 63.8203C246.111 64.0742 246.186 64.3066 246.295 64.5176C246.408 64.7246 246.564 64.8945 246.764 65.0273C246.963 65.1562 247.209 65.2246 247.502 65.2324C247.857 65.2402 248.176 65.1641 248.457 65.0039C248.742 64.8398 249.002 64.6328 249.236 64.3828L249.84 64.8984C249.656 65.168 249.438 65.3945 249.184 65.5781C248.93 65.7617 248.652 65.8984 248.352 65.9883C248.051 66.0781 247.738 66.1211 247.414 66.1172ZM253.549 65.2324C253.807 65.2363 254.047 65.1875 254.27 65.0859C254.492 64.9844 254.682 64.8398 254.838 64.6523C254.994 64.4648 255.105 64.248 255.172 64.002L256.18 63.9961C256.117 64.4219 255.951 64.7949 255.682 65.1152C255.416 65.4355 255.09 65.6855 254.703 65.8652C254.32 66.041 253.92 66.125 253.502 66.1172C253.057 66.1094 252.678 66.0176 252.365 65.8418C252.057 65.6621 251.809 65.4238 251.621 65.127C251.434 64.8301 251.305 64.4961 251.234 64.125C251.164 63.75 251.148 63.3652 251.188 62.9707L251.211 62.7188C251.258 62.293 251.361 61.8887 251.521 61.5059C251.682 61.1191 251.895 60.7773 252.16 60.4805C252.43 60.1797 252.748 59.9453 253.115 59.7773C253.482 59.6094 253.895 59.5312 254.352 59.543C254.797 59.5508 255.184 59.6562 255.512 59.8594C255.84 60.0586 256.094 60.3301 256.273 60.6738C256.453 61.0176 256.543 61.4082 256.543 61.8457L255.547 61.8398C255.543 61.5898 255.494 61.3594 255.4 61.1484C255.307 60.9375 255.168 60.7676 254.984 60.6387C254.801 60.5098 254.574 60.4395 254.305 60.4277C253.98 60.4199 253.697 60.4805 253.455 60.6094C253.217 60.7383 253.014 60.916 252.846 61.1426C252.682 61.3652 252.551 61.6133 252.453 61.8867C252.359 62.1602 252.295 62.4375 252.26 62.7188L252.23 62.9648C252.207 63.2148 252.203 63.4707 252.219 63.7324C252.238 63.9941 252.293 64.2383 252.383 64.4648C252.473 64.6875 252.611 64.8691 252.799 65.0098C252.986 65.1504 253.236 65.2246 253.549 65.2324ZM260.686 59.6602L260.539 60.4922H257.205L257.352 59.6602H260.686ZM258.746 58.1191H259.801L258.729 64.4414C258.717 64.5781 258.721 64.7012 258.74 64.8105C258.76 64.9199 258.807 65.0078 258.881 65.0742C258.955 65.1367 259.068 65.1699 259.221 65.1738C259.307 65.1738 259.391 65.168 259.473 65.1562C259.559 65.1406 259.645 65.127 259.73 65.1152L259.654 66.0059C259.529 66.041 259.4 66.0664 259.268 66.082C259.139 66.1016 259.01 66.1094 258.881 66.1055C258.557 66.1016 258.303 66.0195 258.119 65.8594C257.936 65.6992 257.811 65.4922 257.744 65.2383C257.678 64.9844 257.658 64.7129 257.686 64.4238L258.746 58.1191ZM263.521 57L261.957 66H260.896L262.455 57H263.521ZM265.496 65.2793L268.168 59.6602H269.34L265.619 66.9844C265.521 67.1914 265.406 67.3906 265.273 67.582C265.145 67.7734 264.996 67.9453 264.828 68.0977C264.664 68.25 264.479 68.3691 264.271 68.4551C264.064 68.541 263.836 68.584 263.586 68.584C263.48 68.5801 263.375 68.5684 263.27 68.5488C263.16 68.5293 263.055 68.5078 262.953 68.4844L263.018 67.5938C263.064 67.6016 263.111 67.6074 263.158 67.6113C263.205 67.6191 263.25 67.625 263.293 67.6289C263.555 67.6367 263.779 67.5996 263.967 67.5176C264.158 67.4355 264.322 67.3145 264.459 67.1543C264.6 66.9941 264.725 66.8027 264.834 66.5801L265.496 65.2793ZM265.203 59.6602L265.959 64.6406L266.029 65.7598L265.238 66.1465L264.09 59.6602H265.203ZM274.355 59.6602L273.254 66H272.193L273.295 59.6602H274.355ZM273.506 57.9961C273.506 57.8125 273.562 57.6602 273.676 57.5391C273.793 57.4141 273.943 57.3496 274.127 57.3457C274.311 57.3418 274.461 57.3984 274.578 57.5156C274.699 57.6328 274.758 57.7812 274.754 57.9609C274.754 58.1406 274.693 58.291 274.572 58.4121C274.455 58.5293 274.307 58.5898 274.127 58.5938C273.947 58.5977 273.799 58.5449 273.682 58.4355C273.564 58.3223 273.506 58.1758 273.506 57.9961ZM276.857 61.0781L276.002 66H274.941L276.043 59.6602H277.045L276.857 61.0781ZM276.365 62.5898L275.932 62.5781C275.986 62.1992 276.086 61.8281 276.23 61.4648C276.379 61.0977 276.572 60.7676 276.811 60.4746C277.053 60.1816 277.34 59.9512 277.672 59.7832C278.008 59.6113 278.391 59.5312 278.82 59.543C279.16 59.5508 279.443 59.6172 279.67 59.7422C279.9 59.8633 280.08 60.0293 280.209 60.2402C280.338 60.4512 280.424 60.6953 280.467 60.9727C280.51 61.2461 280.514 61.5371 280.479 61.8457L279.787 66H278.721L279.424 61.8281C279.451 61.5742 279.441 61.3457 279.395 61.1426C279.352 60.9355 279.254 60.7715 279.102 60.6504C278.953 60.5254 278.738 60.459 278.457 60.4512C278.16 60.4434 277.893 60.5 277.654 60.6211C277.416 60.7422 277.207 60.9082 277.027 61.1191C276.852 61.3262 276.707 61.5586 276.594 61.8164C276.484 62.0703 276.408 62.3281 276.365 62.5898ZM285.061 59.6602L284.914 60.4922H281.58L281.727 59.6602H285.061ZM283.121 58.1191H284.176L283.104 64.4414C283.092 64.5781 283.096 64.7012 283.115 64.8105C283.135 64.9199 283.182 65.0078 283.256 65.0742C283.33 65.1367 283.443 65.1699 283.596 65.1738C283.682 65.1738 283.766 65.168 283.848 65.1562C283.934 65.1406 284.02 65.127 284.105 65.1152L284.029 66.0059C283.904 66.041 283.775 66.0664 283.643 66.082C283.514 66.1016 283.385 66.1094 283.256 66.1055C282.932 66.1016 282.678 66.0195 282.494 65.8594C282.311 65.6992 282.186 65.4922 282.119 65.2383C282.053 64.9844 282.033 64.7129 282.061 64.4238L283.121 58.1191ZM285.342 62.9355L285.359 62.8008C285.406 62.375 285.512 61.9648 285.676 61.5703C285.844 61.1758 286.064 60.8242 286.338 60.5156C286.611 60.207 286.936 59.9648 287.311 59.7891C287.686 59.6133 288.104 59.5312 288.564 59.543C289.01 59.5508 289.391 59.6465 289.707 59.8301C290.027 60.0137 290.285 60.2578 290.48 60.5625C290.68 60.8633 290.818 61.2031 290.896 61.582C290.975 61.9609 290.994 62.3516 290.955 62.7539L290.943 62.8887C290.893 63.3145 290.783 63.7227 290.615 64.1133C290.447 64.5039 290.225 64.8516 289.947 65.1562C289.674 65.4609 289.35 65.7012 288.975 65.877C288.6 66.0488 288.184 66.1289 287.727 66.1172C287.285 66.1094 286.904 66.0156 286.584 65.8359C286.268 65.6523 286.012 65.4102 285.816 65.1094C285.621 64.8086 285.484 64.4707 285.406 64.0957C285.328 63.7207 285.307 63.334 285.342 62.9355ZM286.414 62.8008L286.402 62.9414C286.375 63.1875 286.373 63.4434 286.396 63.709C286.424 63.9746 286.486 64.2207 286.584 64.4473C286.686 64.6738 286.832 64.8594 287.023 65.0039C287.215 65.1484 287.463 65.2246 287.768 65.2324C288.092 65.2402 288.377 65.1777 288.623 65.0449C288.869 64.9082 289.078 64.7246 289.25 64.4941C289.426 64.2637 289.564 64.0078 289.666 63.7266C289.771 63.4453 289.842 63.166 289.877 62.8887L289.889 62.7539C289.916 62.5078 289.916 62.252 289.889 61.9863C289.865 61.7168 289.803 61.4668 289.701 61.2363C289.604 61.002 289.459 60.8125 289.268 60.668C289.076 60.5195 288.828 60.4414 288.523 60.4336C288.199 60.4219 287.912 60.4863 287.662 60.627C287.416 60.7637 287.207 60.9492 287.035 61.1836C286.863 61.418 286.725 61.6777 286.619 61.9629C286.518 62.2441 286.449 62.5234 286.414 62.8008ZM130.789 79.293L131.873 79.2812C131.756 79.8672 131.535 80.375 131.211 80.8047C130.891 81.2344 130.486 81.5645 129.998 81.7949C129.514 82.0254 128.971 82.1328 128.369 82.1172C127.83 82.1055 127.377 81.9824 127.01 81.748C126.646 81.5137 126.361 81.2051 126.154 80.8223C125.951 80.4395 125.816 80.0176 125.75 79.5566C125.688 79.0957 125.688 78.6309 125.75 78.1621L125.873 77.3125C125.951 76.7969 126.092 76.3008 126.295 75.8242C126.502 75.3438 126.77 74.916 127.098 74.541C127.43 74.166 127.82 73.8711 128.27 73.6562C128.723 73.4414 129.236 73.3398 129.811 73.3516C130.385 73.3633 130.865 73.4922 131.252 73.7383C131.639 73.9844 131.932 74.3203 132.131 74.7461C132.334 75.1719 132.443 75.6602 132.459 76.2109H131.369C131.357 75.8516 131.301 75.5273 131.199 75.2383C131.098 74.9492 130.932 74.7188 130.701 74.5469C130.471 74.375 130.158 74.2832 129.764 74.2715C129.334 74.2598 128.957 74.3398 128.633 74.5117C128.312 74.6836 128.039 74.918 127.812 75.2148C127.586 75.5078 127.404 75.8359 127.268 76.1992C127.131 76.5625 127.033 76.9297 126.975 77.3008L126.846 78.168C126.803 78.4766 126.787 78.8047 126.799 79.1523C126.811 79.4961 126.867 79.8223 126.969 80.1309C127.074 80.4355 127.242 80.6875 127.473 80.8867C127.707 81.082 128.023 81.1855 128.422 81.1973C128.859 81.2129 129.232 81.1445 129.541 80.9922C129.85 80.8398 130.105 80.6191 130.309 80.3301C130.512 80.0371 130.672 79.6914 130.789 79.293ZM135.482 73L133.918 82H132.857L134.416 73H135.482ZM139.438 80.916L139.965 77.6406C139.992 77.3984 139.969 77.1855 139.895 77.002C139.824 76.8184 139.705 76.6758 139.537 76.5742C139.373 76.4727 139.166 76.418 138.916 76.4102C138.697 76.4062 138.482 76.4414 138.271 76.5156C138.064 76.5898 137.885 76.7012 137.732 76.8496C137.58 76.998 137.48 77.1855 137.434 77.4121L136.379 77.418C136.406 77.1016 136.506 76.8262 136.678 76.5918C136.85 76.3535 137.064 76.1562 137.322 76C137.58 75.8398 137.857 75.7227 138.154 75.6484C138.451 75.5703 138.74 75.5332 139.021 75.5371C139.447 75.5449 139.816 75.6367 140.129 75.8125C140.445 75.9844 140.684 76.2266 140.844 76.5391C141.004 76.8516 141.062 77.2266 141.02 77.6641L140.533 80.6172C140.498 80.832 140.477 81.0488 140.469 81.2676C140.465 81.4824 140.49 81.6934 140.545 81.9004L140.533 82L139.461 82.0059C139.418 81.8262 139.396 81.6445 139.396 81.4609C139.4 81.2773 139.414 81.0957 139.438 80.916ZM140.088 78.1562L139.965 78.918L138.963 78.9121C138.752 78.9121 138.529 78.9277 138.295 78.959C138.061 78.9902 137.838 79.0488 137.627 79.1348C137.416 79.2207 137.238 79.3457 137.094 79.5098C136.949 79.6699 136.861 79.8789 136.83 80.1367C136.807 80.3477 136.832 80.5312 136.906 80.6875C136.984 80.8398 137.102 80.959 137.258 81.0449C137.414 81.1309 137.596 81.1758 137.803 81.1797C138.072 81.1836 138.338 81.1309 138.6 81.0215C138.861 80.9121 139.09 80.7559 139.285 80.5527C139.48 80.3496 139.615 80.1152 139.689 79.8496L140.076 80.3711C140.002 80.6289 139.881 80.8672 139.713 81.0859C139.545 81.3008 139.346 81.4863 139.115 81.6426C138.889 81.7988 138.645 81.9199 138.383 82.0059C138.121 82.0918 137.859 82.1328 137.598 82.1289C137.242 82.1211 136.92 82.041 136.631 81.8887C136.346 81.7363 136.119 81.5234 135.951 81.25C135.787 80.9727 135.717 80.6504 135.74 80.2832C135.764 79.8809 135.869 79.543 136.057 79.2695C136.244 78.9961 136.484 78.7773 136.777 78.6133C137.074 78.4492 137.398 78.332 137.75 78.2617C138.102 78.1875 138.449 78.1504 138.793 78.1504L140.088 78.1562ZM145.859 80.2832C145.895 80.041 145.85 79.8516 145.725 79.7148C145.604 79.5781 145.443 79.4746 145.244 79.4043C145.049 79.3301 144.857 79.2695 144.67 79.2227C144.436 79.1641 144.199 79.0918 143.961 79.0059C143.723 78.9199 143.504 78.8105 143.305 78.6777C143.109 78.541 142.953 78.373 142.836 78.1738C142.723 77.9707 142.672 77.7246 142.684 77.4355C142.699 77.123 142.781 76.8477 142.93 76.6094C143.082 76.3711 143.277 76.1719 143.516 76.0117C143.758 75.8516 144.021 75.7324 144.307 75.6543C144.592 75.5762 144.875 75.5391 145.156 75.543C145.555 75.5508 145.916 75.6328 146.24 75.7891C146.568 75.9453 146.828 76.1699 147.02 76.4629C147.211 76.7559 147.301 77.1113 147.289 77.5293L146.24 77.5234C146.248 77.3008 146.203 77.1094 146.105 76.9492C146.008 76.7891 145.873 76.666 145.701 76.5801C145.529 76.4902 145.334 76.4434 145.115 76.4395C144.908 76.4355 144.705 76.4688 144.506 76.5391C144.307 76.6055 144.137 76.7109 143.996 76.8555C143.855 76.9961 143.77 77.1797 143.738 77.4062C143.715 77.5742 143.74 77.7129 143.814 77.8223C143.889 77.9277 143.99 78.0137 144.119 78.0801C144.252 78.1426 144.391 78.1953 144.535 78.2383C144.684 78.2773 144.818 78.3125 144.939 78.3438C145.26 78.4336 145.576 78.5469 145.889 78.6836C146.201 78.8203 146.455 79.0098 146.65 79.252C146.846 79.4902 146.934 79.8047 146.914 80.1953C146.898 80.5273 146.811 80.8164 146.65 81.0625C146.494 81.3047 146.291 81.5059 146.041 81.666C145.795 81.8223 145.523 81.9375 145.227 82.0117C144.93 82.0859 144.633 82.1211 144.336 82.1172C143.926 82.1094 143.543 82.0254 143.188 81.8652C142.836 81.7012 142.555 81.4668 142.344 81.1621C142.133 80.8535 142.033 80.4785 142.045 80.0371L143.105 80.043C143.105 80.2969 143.158 80.5117 143.264 80.6875C143.373 80.8594 143.523 80.9902 143.715 81.0801C143.906 81.1699 144.125 81.2168 144.371 81.2207C144.578 81.2246 144.789 81.1973 145.004 81.1387C145.223 81.0801 145.41 80.9824 145.566 80.8457C145.727 80.7051 145.824 80.5176 145.859 80.2832ZM151.871 80.2832C151.906 80.041 151.861 79.8516 151.736 79.7148C151.615 79.5781 151.455 79.4746 151.256 79.4043C151.061 79.3301 150.869 79.2695 150.682 79.2227C150.447 79.1641 150.211 79.0918 149.973 79.0059C149.734 78.9199 149.516 78.8105 149.316 78.6777C149.121 78.541 148.965 78.373 148.848 78.1738C148.734 77.9707 148.684 77.7246 148.695 77.4355C148.711 77.123 148.793 76.8477 148.941 76.6094C149.094 76.3711 149.289 76.1719 149.527 76.0117C149.77 75.8516 150.033 75.7324 150.318 75.6543C150.604 75.5762 150.887 75.5391 151.168 75.543C151.566 75.5508 151.928 75.6328 152.252 75.7891C152.58 75.9453 152.84 76.1699 153.031 76.4629C153.223 76.7559 153.312 77.1113 153.301 77.5293L152.252 77.5234C152.26 77.3008 152.215 77.1094 152.117 76.9492C152.02 76.7891 151.885 76.666 151.713 76.5801C151.541 76.4902 151.346 76.4434 151.127 76.4395C150.92 76.4355 150.717 76.4688 150.518 76.5391C150.318 76.6055 150.148 76.7109 150.008 76.8555C149.867 76.9961 149.781 77.1797 149.75 77.4062C149.727 77.5742 149.752 77.7129 149.826 77.8223C149.9 77.9277 150.002 78.0137 150.131 78.0801C150.264 78.1426 150.402 78.1953 150.547 78.2383C150.695 78.2773 150.83 78.3125 150.951 78.3438C151.271 78.4336 151.588 78.5469 151.9 78.6836C152.213 78.8203 152.467 79.0098 152.662 79.252C152.857 79.4902 152.945 79.8047 152.926 80.1953C152.91 80.5273 152.822 80.8164 152.662 81.0625C152.506 81.3047 152.303 81.5059 152.053 81.666C151.807 81.8223 151.535 81.9375 151.238 82.0117C150.941 82.0859 150.645 82.1211 150.348 82.1172C149.938 82.1094 149.555 82.0254 149.199 81.8652C148.848 81.7012 148.566 81.4668 148.355 81.1621C148.145 80.8535 148.045 80.4785 148.057 80.0371L149.117 80.043C149.117 80.2969 149.17 80.5117 149.275 80.6875C149.385 80.8594 149.535 80.9902 149.727 81.0801C149.918 81.1699 150.137 81.2168 150.383 81.2207C150.59 81.2246 150.801 81.1973 151.016 81.1387C151.234 81.0801 151.422 80.9824 151.578 80.8457C151.738 80.7051 151.836 80.5176 151.871 80.2832ZM156.219 75.6602L155.117 82H154.057L155.158 75.6602H156.219ZM155.369 73.9961C155.369 73.8125 155.426 73.6602 155.539 73.5391C155.656 73.4141 155.807 73.3496 155.99 73.3457C156.174 73.3418 156.324 73.3984 156.441 73.5156C156.562 73.6328 156.621 73.7812 156.617 73.9609C156.617 74.1406 156.557 74.291 156.436 74.4121C156.318 74.5293 156.17 74.5898 155.99 74.5938C155.811 74.5977 155.662 74.5449 155.545 74.4355C155.428 74.3223 155.369 74.1758 155.369 73.9961ZM158.381 82H157.32L158.516 74.998C158.57 74.5723 158.695 74.1992 158.891 73.8789C159.086 73.5547 159.346 73.3027 159.67 73.123C159.994 72.9434 160.379 72.8555 160.824 72.8594C160.953 72.8633 161.082 72.875 161.211 72.8945C161.34 72.9102 161.467 72.9316 161.592 72.959L161.463 73.8496C161.373 73.8301 161.279 73.8145 161.182 73.8027C161.088 73.791 160.994 73.7832 160.9 73.7793C160.65 73.7793 160.434 73.832 160.25 73.9375C160.066 74.0391 159.918 74.1816 159.805 74.3652C159.695 74.5449 159.621 74.7539 159.582 74.9922L158.381 82ZM160.789 75.6602L160.643 76.4922H157.303L157.455 75.6602H160.789ZM164.891 80.4766L165.723 75.6602H166.789L165.688 82H164.674L164.891 80.4766ZM165.289 79.1992L165.723 79.1816C165.672 79.5801 165.582 79.959 165.453 80.3184C165.324 80.6738 165.148 80.9902 164.926 81.2676C164.707 81.541 164.434 81.7559 164.105 81.9121C163.781 82.0645 163.396 82.1348 162.951 82.123C162.604 82.1113 162.312 82.041 162.078 81.9121C161.848 81.7832 161.666 81.6094 161.533 81.3906C161.4 81.1719 161.312 80.9219 161.27 80.6406C161.227 80.3594 161.221 80.0625 161.252 79.75L161.938 75.6602H162.998L162.312 79.7676C162.297 79.9395 162.295 80.1094 162.307 80.2773C162.318 80.4414 162.354 80.5918 162.412 80.7285C162.471 80.8652 162.561 80.9766 162.682 81.0625C162.807 81.1445 162.971 81.1895 163.174 81.1973C163.596 81.2129 163.953 81.1348 164.246 80.9629C164.539 80.7871 164.771 80.5449 164.943 80.2363C165.115 79.9277 165.23 79.582 165.289 79.1992ZM169.262 76.7031L168.342 82H167.281L168.383 75.6602H169.414L169.262 76.7031ZM171.318 75.6074L171.219 76.627C171.137 76.6113 171.053 76.5977 170.967 76.5859C170.885 76.5742 170.803 76.5684 170.721 76.5684C170.467 76.5645 170.238 76.6035 170.035 76.6855C169.836 76.7637 169.658 76.875 169.502 77.0195C169.35 77.1641 169.219 77.334 169.109 77.5293C169.004 77.7246 168.92 77.9355 168.857 78.1621L168.523 78.3379C168.566 78.0215 168.637 77.6973 168.734 77.3652C168.836 77.0332 168.975 76.7266 169.15 76.4453C169.33 76.1641 169.555 75.9375 169.824 75.7656C170.098 75.5938 170.426 75.5137 170.809 75.5254C170.895 75.5254 170.979 75.5332 171.061 75.5488C171.146 75.5645 171.232 75.584 171.318 75.6074ZM173.943 73L172.379 82H171.318L172.877 73H173.943ZM180.705 75.6602L180.559 76.4922H177.225L177.371 75.6602H180.705ZM178.766 74.1191H179.82L178.748 80.4414C178.736 80.5781 178.74 80.7012 178.76 80.8105C178.779 80.9199 178.826 81.0078 178.9 81.0742C178.975 81.1367 179.088 81.1699 179.24 81.1738C179.326 81.1738 179.41 81.168 179.492 81.1562C179.578 81.1406 179.664 81.127 179.75 81.1152L179.674 82.0059C179.549 82.041 179.42 82.0664 179.287 82.082C179.158 82.1016 179.029 82.1094 178.9 82.1055C178.576 82.1016 178.322 82.0195 178.139 81.8594C177.955 81.6992 177.83 81.4922 177.764 81.2383C177.697 80.9844 177.678 80.7129 177.705 80.4238L178.766 74.1191ZM180.986 78.9355L181.004 78.8008C181.051 78.375 181.156 77.9648 181.32 77.5703C181.488 77.1758 181.709 76.8242 181.982 76.5156C182.256 76.207 182.58 75.9648 182.955 75.7891C183.33 75.6133 183.748 75.5312 184.209 75.543C184.654 75.5508 185.035 75.6465 185.352 75.8301C185.672 76.0137 185.93 76.2578 186.125 76.5625C186.324 76.8633 186.463 77.2031 186.541 77.582C186.619 77.9609 186.639 78.3516 186.6 78.7539L186.588 78.8887C186.537 79.3145 186.428 79.7227 186.26 80.1133C186.092 80.5039 185.869 80.8516 185.592 81.1562C185.318 81.4609 184.994 81.7012 184.619 81.877C184.244 82.0488 183.828 82.1289 183.371 82.1172C182.93 82.1094 182.549 82.0156 182.229 81.8359C181.912 81.6523 181.656 81.4102 181.461 81.1094C181.266 80.8086 181.129 80.4707 181.051 80.0957C180.973 79.7207 180.951 79.334 180.986 78.9355ZM182.059 78.8008L182.047 78.9414C182.02 79.1875 182.018 79.4434 182.041 79.709C182.068 79.9746 182.131 80.2207 182.229 80.4473C182.33 80.6738 182.477 80.8594 182.668 81.0039C182.859 81.1484 183.107 81.2246 183.412 81.2324C183.736 81.2402 184.021 81.1777 184.268 81.0449C184.514 80.9082 184.723 80.7246 184.895 80.4941C185.07 80.2637 185.209 80.0078 185.311 79.7266C185.416 79.4453 185.486 79.166 185.521 78.8887L185.533 78.7539C185.561 78.5078 185.561 78.252 185.533 77.9863C185.51 77.7168 185.447 77.4668 185.346 77.2363C185.248 77.002 185.104 76.8125 184.912 76.668C184.721 76.5195 184.473 76.4414 184.168 76.4336C183.844 76.4219 183.557 76.4863 183.307 76.627C183.061 76.7637 182.852 76.9492 182.68 77.1836C182.508 77.418 182.369 77.6777 182.264 77.9629C182.162 78.2441 182.094 78.5234 182.059 78.8008ZM193.76 84.4375L195.078 76.8145L195.365 75.6602H196.35L194.82 84.4375H193.76ZM190.59 78.9414L190.607 78.8184C190.654 78.4238 190.748 78.0312 190.889 77.6406C191.029 77.2461 191.217 76.8887 191.451 76.5684C191.689 76.248 191.98 75.9941 192.324 75.8066C192.668 75.6191 193.068 75.5293 193.525 75.5371C193.932 75.5488 194.273 75.6445 194.551 75.8242C194.828 76.0039 195.047 76.2402 195.207 76.5332C195.371 76.8262 195.482 77.1504 195.541 77.5059C195.604 77.8574 195.623 78.2109 195.6 78.5664L195.535 79.1055C195.469 79.4883 195.357 79.8613 195.201 80.2246C195.045 80.5879 194.844 80.916 194.598 81.209C194.352 81.498 194.061 81.7266 193.725 81.8945C193.389 82.0586 193.006 82.1348 192.576 82.123C192.154 82.1074 191.805 82.002 191.527 81.8066C191.254 81.6074 191.041 81.3516 190.889 81.0391C190.74 80.7266 190.643 80.3867 190.596 80.0195C190.553 79.6523 190.551 79.293 190.59 78.9414ZM191.68 78.8184L191.662 78.9414C191.635 79.1758 191.627 79.4238 191.639 79.6855C191.65 79.9473 191.697 80.1934 191.779 80.4238C191.861 80.6543 191.99 80.8457 192.166 80.998C192.342 81.1465 192.58 81.2266 192.881 81.2383C193.205 81.2461 193.506 81.1719 193.783 81.0156C194.064 80.8594 194.305 80.6523 194.504 80.3945C194.703 80.1328 194.848 79.8535 194.938 79.5566L195.166 78.1328C195.174 77.918 195.145 77.7109 195.078 77.5117C195.016 77.3086 194.92 77.1289 194.791 76.9727C194.666 76.8125 194.514 76.6836 194.334 76.5859C194.154 76.4883 193.953 76.4375 193.73 76.4336C193.402 76.4219 193.117 76.4863 192.875 76.627C192.637 76.7676 192.436 76.957 192.271 77.1953C192.107 77.4297 191.977 77.6895 191.879 77.9746C191.781 78.2598 191.715 78.541 191.68 78.8184ZM200.961 80.4766L201.793 75.6602H202.859L201.758 82H200.744L200.961 80.4766ZM201.359 79.1992L201.793 79.1816C201.742 79.5801 201.652 79.959 201.523 80.3184C201.395 80.6738 201.219 80.9902 200.996 81.2676C200.777 81.541 200.504 81.7559 200.176 81.9121C199.852 82.0645 199.467 82.1348 199.021 82.123C198.674 82.1113 198.383 82.041 198.148 81.9121C197.918 81.7832 197.736 81.6094 197.604 81.3906C197.471 81.1719 197.383 80.9219 197.34 80.6406C197.297 80.3594 197.291 80.0625 197.322 79.75L198.008 75.6602H199.068L198.383 79.7676C198.367 79.9395 198.365 80.1094 198.377 80.2773C198.389 80.4414 198.424 80.5918 198.482 80.7285C198.541 80.8652 198.631 80.9766 198.752 81.0625C198.877 81.1445 199.041 81.1895 199.244 81.1973C199.666 81.2129 200.023 81.1348 200.316 80.9629C200.609 80.7871 200.842 80.5449 201.014 80.2363C201.186 79.9277 201.301 79.582 201.359 79.1992ZM205.602 75.6602L204.5 82H203.439L204.541 75.6602H205.602ZM204.752 73.9961C204.752 73.8125 204.809 73.6602 204.922 73.5391C205.039 73.4141 205.189 73.3496 205.373 73.3457C205.557 73.3418 205.707 73.3984 205.824 73.5156C205.945 73.6328 206.004 73.7812 206 73.9609C206 74.1406 205.939 74.291 205.818 74.4121C205.701 74.5293 205.553 74.5898 205.373 74.5938C205.193 74.5977 205.045 74.5449 204.928 74.4355C204.811 74.3223 204.752 74.1758 204.752 73.9961ZM208.83 81.2324C209.088 81.2363 209.328 81.1875 209.551 81.0859C209.773 80.9844 209.963 80.8398 210.119 80.6523C210.275 80.4648 210.387 80.248 210.453 80.002L211.461 79.9961C211.398 80.4219 211.232 80.7949 210.963 81.1152C210.697 81.4355 210.371 81.6855 209.984 81.8652C209.602 82.041 209.201 82.125 208.783 82.1172C208.338 82.1094 207.959 82.0176 207.646 81.8418C207.338 81.6621 207.09 81.4238 206.902 81.127C206.715 80.8301 206.586 80.4961 206.516 80.125C206.445 79.75 206.43 79.3652 206.469 78.9707L206.492 78.7188C206.539 78.293 206.643 77.8887 206.803 77.5059C206.963 77.1191 207.176 76.7773 207.441 76.4805C207.711 76.1797 208.029 75.9453 208.396 75.7773C208.764 75.6094 209.176 75.5312 209.633 75.543C210.078 75.5508 210.465 75.6562 210.793 75.8594C211.121 76.0586 211.375 76.3301 211.555 76.6738C211.734 77.0176 211.824 77.4082 211.824 77.8457L210.828 77.8398C210.824 77.5898 210.775 77.3594 210.682 77.1484C210.588 76.9375 210.449 76.7676 210.266 76.6387C210.082 76.5098 209.855 76.4395 209.586 76.4277C209.262 76.4199 208.979 76.4805 208.736 76.6094C208.498 76.7383 208.295 76.916 208.127 77.1426C207.963 77.3652 207.832 77.6133 207.734 77.8867C207.641 78.1602 207.576 78.4375 207.541 78.7188L207.512 78.9648C207.488 79.2148 207.484 79.4707 207.5 79.7324C207.52 79.9941 207.574 80.2383 207.664 80.4648C207.754 80.6875 207.893 80.8691 208.08 81.0098C208.268 81.1504 208.518 81.2246 208.83 81.2324ZM214.912 73L213.348 82H212.281L213.846 73H214.912ZM218.252 75.6602L215.111 78.5664L213.219 80.2715L213.348 79.0176L214.613 77.7285L216.869 75.6602H218.252ZM216.184 82L214.473 78.918L215.146 78.0098L217.344 82H216.184ZM220.9 73L219.336 82H218.275L219.834 73H220.9ZM222.875 81.2793L225.547 75.6602H226.719L222.998 82.9844C222.9 83.1914 222.785 83.3906 222.652 83.582C222.523 83.7734 222.375 83.9453 222.207 84.0977C222.043 84.25 221.857 84.3691 221.65 84.4551C221.443 84.541 221.215 84.584 220.965 84.584C220.859 84.5801 220.754 84.5684 220.648 84.5488C220.539 84.5293 220.434 84.5078 220.332 84.4844L220.396 83.5938C220.443 83.6016 220.49 83.6074 220.537 83.6113C220.584 83.6191 220.629 83.625 220.672 83.6289C220.934 83.6367 221.158 83.5996 221.346 83.5176C221.537 83.4355 221.701 83.3145 221.838 83.1543C221.979 82.9941 222.104 82.8027 222.213 82.5801L222.875 81.2793ZM222.582 75.6602L223.338 80.6406L223.408 81.7598L222.617 82.1465L221.469 75.6602H222.582ZM233.316 80.916L233.844 77.6406C233.871 77.3984 233.848 77.1855 233.773 77.002C233.703 76.8184 233.584 76.6758 233.416 76.5742C233.252 76.4727 233.045 76.418 232.795 76.4102C232.576 76.4062 232.361 76.4414 232.15 76.5156C231.943 76.5898 231.764 76.7012 231.611 76.8496C231.459 76.998 231.359 77.1855 231.312 77.4121L230.258 77.418C230.285 77.1016 230.385 76.8262 230.557 76.5918C230.729 76.3535 230.943 76.1562 231.201 76C231.459 75.8398 231.736 75.7227 232.033 75.6484C232.33 75.5703 232.619 75.5332 232.9 75.5371C233.326 75.5449 233.695 75.6367 234.008 75.8125C234.324 75.9844 234.562 76.2266 234.723 76.5391C234.883 76.8516 234.941 77.2266 234.898 77.6641L234.412 80.6172C234.377 80.832 234.355 81.0488 234.348 81.2676C234.344 81.4824 234.369 81.6934 234.424 81.9004L234.412 82L233.34 82.0059C233.297 81.8262 233.275 81.6445 233.275 81.4609C233.279 81.2773 233.293 81.0957 233.316 80.916ZM233.967 78.1562L233.844 78.918L232.842 78.9121C232.631 78.9121 232.408 78.9277 232.174 78.959C231.939 78.9902 231.717 79.0488 231.506 79.1348C231.295 79.2207 231.117 79.3457 230.973 79.5098C230.828 79.6699 230.74 79.8789 230.709 80.1367C230.686 80.3477 230.711 80.5312 230.785 80.6875C230.863 80.8398 230.98 80.959 231.137 81.0449C231.293 81.1309 231.475 81.1758 231.682 81.1797C231.951 81.1836 232.217 81.1309 232.479 81.0215C232.74 80.9121 232.969 80.7559 233.164 80.5527C233.359 80.3496 233.494 80.1152 233.568 79.8496L233.955 80.3711C233.881 80.6289 233.76 80.8672 233.592 81.0859C233.424 81.3008 233.225 81.4863 232.994 81.6426C232.768 81.7988 232.523 81.9199 232.262 82.0059C232 82.0918 231.738 82.1328 231.477 82.1289C231.121 82.1211 230.799 82.041 230.51 81.8887C230.225 81.7363 229.998 81.5234 229.83 81.25C229.666 80.9727 229.596 80.6504 229.619 80.2832C229.643 79.8809 229.748 79.543 229.936 79.2695C230.123 78.9961 230.363 78.7773 230.656 78.6133C230.953 78.4492 231.277 78.332 231.629 78.2617C231.98 78.1875 232.328 78.1504 232.672 78.1504L233.967 78.1562ZM239.738 80.2832C239.773 80.041 239.729 79.8516 239.604 79.7148C239.482 79.5781 239.322 79.4746 239.123 79.4043C238.928 79.3301 238.736 79.2695 238.549 79.2227C238.314 79.1641 238.078 79.0918 237.84 79.0059C237.602 78.9199 237.383 78.8105 237.184 78.6777C236.988 78.541 236.832 78.373 236.715 78.1738C236.602 77.9707 236.551 77.7246 236.562 77.4355C236.578 77.123 236.66 76.8477 236.809 76.6094C236.961 76.3711 237.156 76.1719 237.395 76.0117C237.637 75.8516 237.9 75.7324 238.186 75.6543C238.471 75.5762 238.754 75.5391 239.035 75.543C239.434 75.5508 239.795 75.6328 240.119 75.7891C240.447 75.9453 240.707 76.1699 240.898 76.4629C241.09 76.7559 241.18 77.1113 241.168 77.5293L240.119 77.5234C240.127 77.3008 240.082 77.1094 239.984 76.9492C239.887 76.7891 239.752 76.666 239.58 76.5801C239.408 76.4902 239.213 76.4434 238.994 76.4395C238.787 76.4355 238.584 76.4688 238.385 76.5391C238.186 76.6055 238.016 76.7109 237.875 76.8555C237.734 76.9961 237.648 77.1797 237.617 77.4062C237.594 77.5742 237.619 77.7129 237.693 77.8223C237.768 77.9277 237.869 78.0137 237.998 78.0801C238.131 78.1426 238.27 78.1953 238.414 78.2383C238.562 78.2773 238.697 78.3125 238.818 78.3438C239.139 78.4336 239.455 78.5469 239.768 78.6836C240.08 78.8203 240.334 79.0098 240.529 79.252C240.725 79.4902 240.812 79.8047 240.793 80.1953C240.777 80.5273 240.689 80.8164 240.529 81.0625C240.373 81.3047 240.17 81.5059 239.92 81.666C239.674 81.8223 239.402 81.9375 239.105 82.0117C238.809 82.0859 238.512 82.1211 238.215 82.1172C237.805 82.1094 237.422 82.0254 237.066 81.8652C236.715 81.7012 236.434 81.4668 236.223 81.1621C236.012 80.8535 235.912 80.4785 235.924 80.0371L236.984 80.043C236.984 80.2969 237.037 80.5117 237.143 80.6875C237.252 80.8594 237.402 80.9902 237.594 81.0801C237.785 81.1699 238.004 81.2168 238.25 81.2207C238.457 81.2246 238.668 81.1973 238.883 81.1387C239.102 81.0801 239.289 80.9824 239.445 80.8457C239.605 80.7051 239.703 80.5176 239.738 80.2832ZM245.75 80.2832C245.785 80.041 245.74 79.8516 245.615 79.7148C245.494 79.5781 245.334 79.4746 245.135 79.4043C244.939 79.3301 244.748 79.2695 244.561 79.2227C244.326 79.1641 244.09 79.0918 243.852 79.0059C243.613 78.9199 243.395 78.8105 243.195 78.6777C243 78.541 242.844 78.373 242.727 78.1738C242.613 77.9707 242.562 77.7246 242.574 77.4355C242.59 77.123 242.672 76.8477 242.82 76.6094C242.973 76.3711 243.168 76.1719 243.406 76.0117C243.648 75.8516 243.912 75.7324 244.197 75.6543C244.482 75.5762 244.766 75.5391 245.047 75.543C245.445 75.5508 245.807 75.6328 246.131 75.7891C246.459 75.9453 246.719 76.1699 246.91 76.4629C247.102 76.7559 247.191 77.1113 247.18 77.5293L246.131 77.5234C246.139 77.3008 246.094 77.1094 245.996 76.9492C245.898 76.7891 245.764 76.666 245.592 76.5801C245.42 76.4902 245.225 76.4434 245.006 76.4395C244.799 76.4355 244.596 76.4688 244.396 76.5391C244.197 76.6055 244.027 76.7109 243.887 76.8555C243.746 76.9961 243.66 77.1797 243.629 77.4062C243.605 77.5742 243.631 77.7129 243.705 77.8223C243.779 77.9277 243.881 78.0137 244.01 78.0801C244.143 78.1426 244.281 78.1953 244.426 78.2383C244.574 78.2773 244.709 78.3125 244.83 78.3438C245.15 78.4336 245.467 78.5469 245.779 78.6836C246.092 78.8203 246.346 79.0098 246.541 79.252C246.736 79.4902 246.824 79.8047 246.805 80.1953C246.789 80.5273 246.701 80.8164 246.541 81.0625C246.385 81.3047 246.182 81.5059 245.932 81.666C245.686 81.8223 245.414 81.9375 245.117 82.0117C244.82 82.0859 244.523 82.1211 244.227 82.1172C243.816 82.1094 243.434 82.0254 243.078 81.8652C242.727 81.7012 242.445 81.4668 242.234 81.1621C242.023 80.8535 241.924 80.4785 241.936 80.0371L242.996 80.043C242.996 80.2969 243.049 80.5117 243.154 80.6875C243.264 80.8594 243.414 80.9902 243.605 81.0801C243.797 81.1699 244.016 81.2168 244.262 81.2207C244.469 81.2246 244.68 81.1973 244.895 81.1387C245.113 81.0801 245.301 80.9824 245.457 80.8457C245.617 80.7051 245.715 80.5176 245.75 80.2832ZM250.531 82.1172C250.098 82.1094 249.721 82.0234 249.4 81.8594C249.084 81.6914 248.824 81.4668 248.621 81.1855C248.422 80.9004 248.279 80.5762 248.193 80.2129C248.107 79.8496 248.082 79.4688 248.117 79.0703L248.141 78.8184C248.18 78.4121 248.279 78.0137 248.439 77.623C248.6 77.2285 248.812 76.873 249.078 76.5566C249.348 76.2402 249.664 75.9902 250.027 75.8066C250.395 75.6191 250.801 75.5312 251.246 75.543C251.688 75.5508 252.055 75.6445 252.348 75.8242C252.641 76.0039 252.869 76.2422 253.033 76.5391C253.201 76.832 253.311 77.1621 253.361 77.5293C253.412 77.8926 253.416 78.2656 253.373 78.6484L253.309 79.1348H248.709L248.85 78.25L252.359 78.2559L252.377 78.1621C252.416 77.8809 252.4 77.6094 252.33 77.3477C252.26 77.0859 252.131 76.8711 251.943 76.7031C251.76 76.5312 251.512 76.4414 251.199 76.4336C250.875 76.4219 250.594 76.4883 250.355 76.6328C250.117 76.7734 249.918 76.9648 249.758 77.207C249.598 77.4453 249.471 77.707 249.377 77.9922C249.287 78.2734 249.225 78.5488 249.189 78.8184L249.166 79.0645C249.143 79.3145 249.15 79.5664 249.189 79.8203C249.229 80.0742 249.303 80.3066 249.412 80.5176C249.525 80.7246 249.682 80.8945 249.881 81.0273C250.08 81.1562 250.326 81.2246 250.619 81.2324C250.975 81.2402 251.293 81.1641 251.574 81.0039C251.859 80.8398 252.119 80.6328 252.354 80.3828L252.957 80.8984C252.773 81.168 252.555 81.3945 252.301 81.5781C252.047 81.7617 251.77 81.8984 251.469 81.9883C251.168 82.0781 250.855 82.1211 250.531 82.1172ZM257.938 80.2832C257.973 80.041 257.928 79.8516 257.803 79.7148C257.682 79.5781 257.521 79.4746 257.322 79.4043C257.127 79.3301 256.936 79.2695 256.748 79.2227C256.514 79.1641 256.277 79.0918 256.039 79.0059C255.801 78.9199 255.582 78.8105 255.383 78.6777C255.188 78.541 255.031 78.373 254.914 78.1738C254.801 77.9707 254.75 77.7246 254.762 77.4355C254.777 77.123 254.859 76.8477 255.008 76.6094C255.16 76.3711 255.355 76.1719 255.594 76.0117C255.836 75.8516 256.1 75.7324 256.385 75.6543C256.67 75.5762 256.953 75.5391 257.234 75.543C257.633 75.5508 257.994 75.6328 258.318 75.7891C258.646 75.9453 258.906 76.1699 259.098 76.4629C259.289 76.7559 259.379 77.1113 259.367 77.5293L258.318 77.5234C258.326 77.3008 258.281 77.1094 258.184 76.9492C258.086 76.7891 257.951 76.666 257.779 76.5801C257.607 76.4902 257.412 76.4434 257.193 76.4395C256.986 76.4355 256.783 76.4688 256.584 76.5391C256.385 76.6055 256.215 76.7109 256.074 76.8555C255.934 76.9961 255.848 77.1797 255.816 77.4062C255.793 77.5742 255.818 77.7129 255.893 77.8223C255.967 77.9277 256.068 78.0137 256.197 78.0801C256.33 78.1426 256.469 78.1953 256.613 78.2383C256.762 78.2773 256.896 78.3125 257.018 78.3438C257.338 78.4336 257.654 78.5469 257.967 78.6836C258.279 78.8203 258.533 79.0098 258.729 79.252C258.924 79.4902 259.012 79.8047 258.992 80.1953C258.977 80.5273 258.889 80.8164 258.729 81.0625C258.572 81.3047 258.369 81.5059 258.119 81.666C257.873 81.8223 257.602 81.9375 257.305 82.0117C257.008 82.0859 256.711 82.1211 256.414 82.1172C256.004 82.1094 255.621 82.0254 255.266 81.8652C254.914 81.7012 254.633 81.4668 254.422 81.1621C254.211 80.8535 254.111 80.4785 254.123 80.0371L255.184 80.043C255.184 80.2969 255.236 80.5117 255.342 80.6875C255.451 80.8594 255.602 80.9902 255.793 81.0801C255.984 81.1699 256.203 81.2168 256.449 81.2207C256.656 81.2246 256.867 81.1973 257.082 81.1387C257.301 81.0801 257.488 80.9824 257.645 80.8457C257.805 80.7051 257.902 80.5176 257.938 80.2832ZM263.949 80.2832C263.984 80.041 263.939 79.8516 263.814 79.7148C263.693 79.5781 263.533 79.4746 263.334 79.4043C263.139 79.3301 262.947 79.2695 262.76 79.2227C262.525 79.1641 262.289 79.0918 262.051 79.0059C261.812 78.9199 261.594 78.8105 261.395 78.6777C261.199 78.541 261.043 78.373 260.926 78.1738C260.812 77.9707 260.762 77.7246 260.773 77.4355C260.789 77.123 260.871 76.8477 261.02 76.6094C261.172 76.3711 261.367 76.1719 261.605 76.0117C261.848 75.8516 262.111 75.7324 262.396 75.6543C262.682 75.5762 262.965 75.5391 263.246 75.543C263.645 75.5508 264.006 75.6328 264.33 75.7891C264.658 75.9453 264.918 76.1699 265.109 76.4629C265.301 76.7559 265.391 77.1113 265.379 77.5293L264.33 77.5234C264.338 77.3008 264.293 77.1094 264.195 76.9492C264.098 76.7891 263.963 76.666 263.791 76.5801C263.619 76.4902 263.424 76.4434 263.205 76.4395C262.998 76.4355 262.795 76.4688 262.596 76.5391C262.396 76.6055 262.227 76.7109 262.086 76.8555C261.945 76.9961 261.859 77.1797 261.828 77.4062C261.805 77.5742 261.83 77.7129 261.904 77.8223C261.979 77.9277 262.08 78.0137 262.209 78.0801C262.342 78.1426 262.48 78.1953 262.625 78.2383C262.773 78.2773 262.908 78.3125 263.029 78.3438C263.35 78.4336 263.666 78.5469 263.979 78.6836C264.291 78.8203 264.545 79.0098 264.74 79.252C264.936 79.4902 265.023 79.8047 265.004 80.1953C264.988 80.5273 264.9 80.8164 264.74 81.0625C264.584 81.3047 264.381 81.5059 264.131 81.666C263.885 81.8223 263.613 81.9375 263.316 82.0117C263.02 82.0859 262.723 82.1211 262.426 82.1172C262.016 82.1094 261.633 82.0254 261.277 81.8652C260.926 81.7012 260.645 81.4668 260.434 81.1621C260.223 80.8535 260.123 80.4785 260.135 80.0371L261.195 80.043C261.195 80.2969 261.248 80.5117 261.354 80.6875C261.463 80.8594 261.613 80.9902 261.805 81.0801C261.996 81.1699 262.215 81.2168 262.461 81.2207C262.668 81.2246 262.879 81.1973 263.094 81.1387C263.312 81.0801 263.5 80.9824 263.656 80.8457C263.816 80.7051 263.914 80.5176 263.949 80.2832ZM271.25 75.6602L270.148 82H269.088L270.189 75.6602H271.25ZM270.4 73.9961C270.4 73.8125 270.457 73.6602 270.57 73.5391C270.688 73.4141 270.838 73.3496 271.021 73.3457C271.205 73.3418 271.355 73.3984 271.473 73.5156C271.594 73.6328 271.652 73.7812 271.648 73.9609C271.648 74.1406 271.588 74.291 271.467 74.4121C271.35 74.5293 271.201 74.5898 271.021 74.5938C270.842 74.5977 270.693 74.5449 270.576 74.4355C270.459 74.3223 270.4 74.1758 270.4 73.9961ZM275.521 75.6602L275.375 76.4922H272.041L272.188 75.6602H275.521ZM273.582 74.1191H274.637L273.564 80.4414C273.553 80.5781 273.557 80.7012 273.576 80.8105C273.596 80.9199 273.643 81.0078 273.717 81.0742C273.791 81.1367 273.904 81.1699 274.057 81.1738C274.143 81.1738 274.227 81.168 274.309 81.1562C274.395 81.1406 274.48 81.127 274.566 81.1152L274.49 82.0059C274.365 82.041 274.236 82.0664 274.104 82.082C273.975 82.1016 273.846 82.1094 273.717 82.1055C273.393 82.1016 273.139 82.0195 272.955 81.8594C272.771 81.6992 272.646 81.4922 272.58 81.2383C272.514 80.9844 272.494 80.7129 272.521 80.4238L273.582 74.1191ZM279.559 80.2832C279.594 80.041 279.549 79.8516 279.424 79.7148C279.303 79.5781 279.143 79.4746 278.943 79.4043C278.748 79.3301 278.557 79.2695 278.369 79.2227C278.135 79.1641 277.898 79.0918 277.66 79.0059C277.422 78.9199 277.203 78.8105 277.004 78.6777C276.809 78.541 276.652 78.373 276.535 78.1738C276.422 77.9707 276.371 77.7246 276.383 77.4355C276.398 77.123 276.48 76.8477 276.629 76.6094C276.781 76.3711 276.977 76.1719 277.215 76.0117C277.457 75.8516 277.721 75.7324 278.006 75.6543C278.291 75.5762 278.574 75.5391 278.855 75.543C279.254 75.5508 279.615 75.6328 279.939 75.7891C280.268 75.9453 280.527 76.1699 280.719 76.4629C280.91 76.7559 281 77.1113 280.988 77.5293L279.939 77.5234C279.947 77.3008 279.902 77.1094 279.805 76.9492C279.707 76.7891 279.572 76.666 279.4 76.5801C279.229 76.4902 279.033 76.4434 278.814 76.4395C278.607 76.4355 278.404 76.4688 278.205 76.5391C278.006 76.6055 277.836 76.7109 277.695 76.8555C277.555 76.9961 277.469 77.1797 277.438 77.4062C277.414 77.5742 277.439 77.7129 277.514 77.8223C277.588 77.9277 277.689 78.0137 277.818 78.0801C277.951 78.1426 278.09 78.1953 278.234 78.2383C278.383 78.2773 278.518 78.3125 278.639 78.3438C278.959 78.4336 279.275 78.5469 279.588 78.6836C279.9 78.8203 280.154 79.0098 280.35 79.252C280.545 79.4902 280.633 79.8047 280.613 80.1953C280.598 80.5273 280.51 80.8164 280.35 81.0625C280.193 81.3047 279.99 81.5059 279.74 81.666C279.494 81.8223 279.223 81.9375 278.926 82.0117C278.629 82.0859 278.332 82.1211 278.035 82.1172C277.625 82.1094 277.242 82.0254 276.887 81.8652C276.535 81.7012 276.254 81.4668 276.043 81.1621C275.832 80.8535 275.732 80.4785 275.744 80.0371L276.805 80.043C276.805 80.2969 276.857 80.5117 276.963 80.6875C277.072 80.8594 277.223 80.9902 277.414 81.0801C277.605 81.1699 277.824 81.2168 278.07 81.2207C278.277 81.2246 278.488 81.1973 278.703 81.1387C278.922 81.0801 279.109 80.9824 279.266 80.8457C279.426 80.7051 279.523 80.5176 279.559 80.2832ZM129.102 96.2832C129.137 96.041 129.092 95.8516 128.967 95.7148C128.846 95.5781 128.686 95.4746 128.486 95.4043C128.291 95.3301 128.1 95.2695 127.912 95.2227C127.678 95.1641 127.441 95.0918 127.203 95.0059C126.965 94.9199 126.746 94.8105 126.547 94.6777C126.352 94.541 126.195 94.373 126.078 94.1738C125.965 93.9707 125.914 93.7246 125.926 93.4355C125.941 93.123 126.023 92.8477 126.172 92.6094C126.324 92.3711 126.52 92.1719 126.758 92.0117C127 91.8516 127.264 91.7324 127.549 91.6543C127.834 91.5762 128.117 91.5391 128.398 91.543C128.797 91.5508 129.158 91.6328 129.482 91.7891C129.811 91.9453 130.07 92.1699 130.262 92.4629C130.453 92.7559 130.543 93.1113 130.531 93.5293L129.482 93.5234C129.49 93.3008 129.445 93.1094 129.348 92.9492C129.25 92.7891 129.115 92.666 128.943 92.5801C128.771 92.4902 128.576 92.4434 128.357 92.4395C128.15 92.4355 127.947 92.4688 127.748 92.5391C127.549 92.6055 127.379 92.7109 127.238 92.8555C127.098 92.9961 127.012 93.1797 126.98 93.4062C126.957 93.5742 126.982 93.7129 127.057 93.8223C127.131 93.9277 127.232 94.0137 127.361 94.0801C127.494 94.1426 127.633 94.1953 127.777 94.2383C127.926 94.2773 128.061 94.3125 128.182 94.3438C128.502 94.4336 128.818 94.5469 129.131 94.6836C129.443 94.8203 129.697 95.0098 129.893 95.252C130.088 95.4902 130.176 95.8047 130.156 96.1953C130.141 96.5273 130.053 96.8164 129.893 97.0625C129.736 97.3047 129.533 97.5059 129.283 97.666C129.037 97.8223 128.766 97.9375 128.469 98.0117C128.172 98.0859 127.875 98.1211 127.578 98.1172C127.168 98.1094 126.785 98.0254 126.43 97.8652C126.078 97.7012 125.797 97.4668 125.586 97.1621C125.375 96.8535 125.275 96.4785 125.287 96.0371L126.348 96.043C126.348 96.2969 126.4 96.5117 126.506 96.6875C126.615 96.8594 126.766 96.9902 126.957 97.0801C127.148 97.1699 127.367 97.2168 127.613 97.2207C127.82 97.2246 128.031 97.1973 128.246 97.1387C128.465 97.0801 128.652 96.9824 128.809 96.8457C128.969 96.7051 129.066 96.5176 129.102 96.2832ZM135.031 96.916L135.559 93.6406C135.586 93.3984 135.562 93.1855 135.488 93.002C135.418 92.8184 135.299 92.6758 135.131 92.5742C134.967 92.4727 134.76 92.418 134.51 92.4102C134.291 92.4062 134.076 92.4414 133.865 92.5156C133.658 92.5898 133.479 92.7012 133.326 92.8496C133.174 92.998 133.074 93.1855 133.027 93.4121L131.973 93.418C132 93.1016 132.1 92.8262 132.271 92.5918C132.443 92.3535 132.658 92.1562 132.916 92C133.174 91.8398 133.451 91.7227 133.748 91.6484C134.045 91.5703 134.334 91.5332 134.615 91.5371C135.041 91.5449 135.41 91.6367 135.723 91.8125C136.039 91.9844 136.277 92.2266 136.438 92.5391C136.598 92.8516 136.656 93.2266 136.613 93.6641L136.127 96.6172C136.092 96.832 136.07 97.0488 136.062 97.2676C136.059 97.4824 136.084 97.6934 136.139 97.9004L136.127 98L135.055 98.0059C135.012 97.8262 134.99 97.6445 134.99 97.4609C134.994 97.2773 135.008 97.0957 135.031 96.916ZM135.682 94.1562L135.559 94.918L134.557 94.9121C134.346 94.9121 134.123 94.9277 133.889 94.959C133.654 94.9902 133.432 95.0488 133.221 95.1348C133.01 95.2207 132.832 95.3457 132.688 95.5098C132.543 95.6699 132.455 95.8789 132.424 96.1367C132.4 96.3477 132.426 96.5312 132.5 96.6875C132.578 96.8398 132.695 96.959 132.852 97.0449C133.008 97.1309 133.189 97.1758 133.396 97.1797C133.666 97.1836 133.932 97.1309 134.193 97.0215C134.455 96.9121 134.684 96.7559 134.879 96.5527C135.074 96.3496 135.209 96.1152 135.283 95.8496L135.67 96.3711C135.596 96.6289 135.475 96.8672 135.307 97.0859C135.139 97.3008 134.939 97.4863 134.709 97.6426C134.482 97.7988 134.238 97.9199 133.977 98.0059C133.715 98.0918 133.453 98.1328 133.191 98.1289C132.836 98.1211 132.514 98.041 132.225 97.8887C131.939 97.7363 131.713 97.5234 131.545 97.25C131.381 96.9727 131.311 96.6504 131.334 96.2832C131.357 95.8809 131.463 95.543 131.65 95.2695C131.838 94.9961 132.078 94.7773 132.371 94.6133C132.668 94.4492 132.992 94.332 133.344 94.2617C133.695 94.1875 134.043 94.1504 134.387 94.1504L135.682 94.1562ZM139.115 98H138.055L139.25 90.998C139.305 90.5723 139.43 90.1992 139.625 89.8789C139.82 89.5547 140.08 89.3027 140.404 89.123C140.729 88.9434 141.113 88.8555 141.559 88.8594C141.688 88.8633 141.816 88.875 141.945 88.8945C142.074 88.9102 142.201 88.9316 142.326 88.959L142.197 89.8496C142.107 89.8301 142.014 89.8145 141.916 89.8027C141.822 89.791 141.729 89.7832 141.635 89.7793C141.385 89.7793 141.168 89.832 140.984 89.9375C140.801 90.0391 140.652 90.1816 140.539 90.3652C140.43 90.5449 140.355 90.7539 140.316 90.9922L139.115 98ZM141.523 91.6602L141.377 92.4922H138.037L138.189 91.6602H141.523ZM144.137 98.1172C143.703 98.1094 143.326 98.0234 143.006 97.8594C142.689 97.6914 142.43 97.4668 142.227 97.1855C142.027 96.9004 141.885 96.5762 141.799 96.2129C141.713 95.8496 141.688 95.4688 141.723 95.0703L141.746 94.8184C141.785 94.4121 141.885 94.0137 142.045 93.623C142.205 93.2285 142.418 92.873 142.684 92.5566C142.953 92.2402 143.27 91.9902 143.633 91.8066C144 91.6191 144.406 91.5312 144.852 91.543C145.293 91.5508 145.66 91.6445 145.953 91.8242C146.246 92.0039 146.475 92.2422 146.639 92.5391C146.807 92.832 146.916 93.1621 146.967 93.5293C147.018 93.8926 147.021 94.2656 146.979 94.6484L146.914 95.1348H142.314L142.455 94.25L145.965 94.2559L145.982 94.1621C146.021 93.8809 146.006 93.6094 145.936 93.3477C145.865 93.0859 145.736 92.8711 145.549 92.7031C145.365 92.5312 145.117 92.4414 144.805 92.4336C144.48 92.4219 144.199 92.4883 143.961 92.6328C143.723 92.7734 143.523 92.9648 143.363 93.207C143.203 93.4453 143.076 93.707 142.982 93.9922C142.893 94.2734 142.83 94.5488 142.795 94.8184L142.771 95.0645C142.748 95.3145 142.756 95.5664 142.795 95.8203C142.834 96.0742 142.908 96.3066 143.018 96.5176C143.131 96.7246 143.287 96.8945 143.486 97.0273C143.686 97.1562 143.932 97.2246 144.225 97.2324C144.58 97.2402 144.898 97.1641 145.18 97.0039C145.465 96.8398 145.725 96.6328 145.959 96.3828L146.562 96.8984C146.379 97.168 146.16 97.3945 145.906 97.5781C145.652 97.7617 145.375 97.8984 145.074 97.9883C144.773 98.0781 144.461 98.1211 144.137 98.1172ZM151.314 91.6602L151.168 92.4922H147.834L147.98 91.6602H151.314ZM149.375 90.1191H150.43L149.357 96.4414C149.346 96.5781 149.35 96.7012 149.369 96.8105C149.389 96.9199 149.436 97.0078 149.51 97.0742C149.584 97.1367 149.697 97.1699 149.85 97.1738C149.936 97.1738 150.02 97.168 150.102 97.1562C150.188 97.1406 150.273 97.127 150.359 97.1152L150.283 98.0059C150.158 98.041 150.029 98.0664 149.896 98.082C149.768 98.1016 149.639 98.1094 149.51 98.1055C149.186 98.1016 148.932 98.0195 148.748 97.8594C148.564 97.6992 148.439 97.4922 148.373 97.2383C148.307 96.9844 148.287 96.7129 148.314 96.4238L149.375 90.1191ZM153.289 97.2793L155.961 91.6602H157.133L153.412 98.9844C153.314 99.1914 153.199 99.3906 153.066 99.582C152.938 99.7734 152.789 99.9453 152.621 100.098C152.457 100.25 152.271 100.369 152.064 100.455C151.857 100.541 151.629 100.584 151.379 100.584C151.273 100.58 151.168 100.568 151.062 100.549C150.953 100.529 150.848 100.508 150.746 100.484L150.811 99.5938C150.857 99.6016 150.904 99.6074 150.951 99.6113C150.998 99.6191 151.043 99.625 151.086 99.6289C151.348 99.6367 151.572 99.5996 151.76 99.5176C151.951 99.4355 152.115 99.3145 152.252 99.1543C152.393 98.9941 152.518 98.8027 152.627 98.5801L153.289 97.2793ZM152.996 91.6602L153.752 96.6406L153.822 97.7598L153.031 98.1465L151.883 91.6602H152.996ZM156.436 97.4434C156.436 97.252 156.496 97.0918 156.617 96.9629C156.742 96.834 156.9 96.7676 157.092 96.7637C157.283 96.7598 157.439 96.8184 157.561 96.9395C157.686 97.0605 157.746 97.2168 157.742 97.4082C157.742 97.5996 157.68 97.7578 157.555 97.8828C157.434 98.0078 157.277 98.0723 157.086 98.0762C156.898 98.0801 156.742 98.0234 156.617 97.9062C156.492 97.7891 156.432 97.6348 156.436 97.4434Z" fill="white"/>
<path d="M128.232 36.8182V47H125.771V36.8182H128.232ZM139.442 36.8182V47H137.354L133.302 41.1236H133.237V47H130.776V36.8182H132.894L136.901 42.6847H136.986V36.8182H139.442ZM141.989 47V36.8182H146.195C146.958 36.8182 147.616 36.9673 148.169 37.2656C148.726 37.5606 149.155 37.9732 149.457 38.5036C149.758 39.0305 149.909 39.6437 149.909 40.343C149.909 41.0457 149.755 41.6605 149.447 42.1875C149.142 42.7112 148.706 43.1172 148.139 43.4055C147.572 43.6939 146.9 43.8381 146.121 43.8381H143.526V41.8991H145.663C146.035 41.8991 146.344 41.8345 146.593 41.7053C146.845 41.576 147.036 41.3954 147.165 41.1634C147.294 40.928 147.359 40.6546 147.359 40.343C147.359 40.0282 147.294 39.7564 147.165 39.5277C147.036 39.2957 146.845 39.1167 146.593 38.9908C146.341 38.8648 146.031 38.8018 145.663 38.8018H144.45V47H141.989ZM158.282 36.8182H160.738V43.3857C160.738 44.1446 160.557 44.8059 160.196 45.3693C159.835 45.9295 159.331 46.3636 158.685 46.6719C158.038 46.9768 157.288 47.1293 156.433 47.1293C155.567 47.1293 154.812 46.9768 154.165 46.6719C153.519 46.3636 153.017 45.9295 152.659 45.3693C152.301 44.8059 152.122 44.1446 152.122 43.3857V36.8182H154.583V43.1719C154.583 43.5232 154.659 43.8364 154.812 44.1115C154.968 44.3866 155.185 44.602 155.463 44.7578C155.741 44.9136 156.065 44.9915 156.433 44.9915C156.8 44.9915 157.122 44.9136 157.397 44.7578C157.675 44.602 157.893 44.3866 158.048 44.1115C158.204 43.8364 158.282 43.5232 158.282 43.1719V36.8182ZM162.947 38.8168V36.8182H171.553V38.8168H168.466V47H166.04V38.8168H162.947ZM177.361 36.3409L174.079 48.5312H172.006L175.287 36.3409H177.361ZM179.267 47V36.8182H183.473C184.235 36.8182 184.893 36.9673 185.446 37.2656C186.003 37.5606 186.432 37.9732 186.734 38.5036C187.036 39.0305 187.186 39.6437 187.186 40.343C187.186 41.0457 187.032 41.6605 186.724 42.1875C186.419 42.7112 185.983 43.1172 185.417 43.4055C184.85 43.6939 184.177 43.8381 183.398 43.8381H180.803V41.8991H182.941C183.312 41.8991 183.622 41.8345 183.87 41.7053C184.122 41.576 184.313 41.3954 184.442 41.1634C184.571 40.928 184.636 40.6546 184.636 40.343C184.636 40.0282 184.571 39.7564 184.442 39.5277C184.313 39.2957 184.122 39.1167 183.87 38.9908C183.618 38.8648 183.309 38.8018 182.941 38.8018H181.728V47H179.267ZM190.371 47H187.727L191.162 36.8182H194.438L197.874 47H195.229L192.837 39.3835H192.758L190.371 47ZM190.018 42.9929H195.547V44.8622H190.018V42.9929ZM205.159 39.8707C205.126 39.5062 204.978 39.2228 204.716 39.0206C204.458 38.8151 204.088 38.7124 203.608 38.7124C203.29 38.7124 203.024 38.7538 202.812 38.8366C202.6 38.9195 202.441 39.0339 202.335 39.1797C202.229 39.3222 202.174 39.4863 202.171 39.6719C202.164 39.8243 202.194 39.9586 202.26 40.0746C202.33 40.1906 202.43 40.2933 202.559 40.3828C202.691 40.469 202.85 40.5452 203.036 40.6115C203.222 40.6778 203.43 40.7358 203.662 40.7855L204.537 40.9844C205.041 41.0938 205.485 41.2396 205.87 41.4219C206.258 41.6042 206.582 41.8213 206.844 42.0732C207.109 42.325 207.31 42.6151 207.446 42.9432C207.582 43.2713 207.651 43.6392 207.655 44.0469C207.651 44.6899 207.489 45.2417 207.167 45.7024C206.846 46.1631 206.384 46.5161 205.78 46.7614C205.18 47.0066 204.456 47.1293 203.608 47.1293C202.756 47.1293 202.014 47.0017 201.381 46.7464C200.747 46.4912 200.255 46.1035 199.904 45.5831C199.553 45.0627 199.372 44.4048 199.362 43.6094H201.719C201.738 43.9375 201.826 44.2109 201.982 44.4297C202.138 44.6484 202.352 44.8142 202.623 44.9268C202.898 45.0395 203.217 45.0959 203.578 45.0959C203.909 45.0959 204.191 45.0511 204.423 44.9616C204.658 44.8722 204.839 44.7479 204.965 44.5888C205.091 44.4297 205.156 44.2474 205.159 44.0419C205.156 43.8497 205.096 43.6856 204.98 43.5497C204.864 43.4105 204.685 43.2912 204.443 43.1918C204.204 43.089 203.899 42.9946 203.528 42.9084L202.464 42.6598C201.583 42.4576 200.888 42.1312 200.381 41.6804C199.874 41.2263 199.622 40.6132 199.626 39.8409C199.622 39.2112 199.791 38.6593 200.133 38.1854C200.474 37.7114 200.946 37.3419 201.55 37.0767C202.153 36.8116 202.84 36.679 203.613 36.679C204.402 36.679 205.086 36.8132 205.666 37.0817C206.249 37.3468 206.702 37.7197 207.023 38.2003C207.345 38.6809 207.509 39.2377 207.515 39.8707H205.159ZM209.564 38.8168V36.8182H218.17V38.8168H215.083V47H212.657V38.8168H209.564ZM220.372 47V36.8182H227.472V38.8168H222.833V40.9048H227.109V42.9084H222.833V45.0014H227.472V47H220.372ZM240.18 36.8182H242.636V43.3857C242.636 44.1446 242.456 44.8059 242.094 45.3693C241.733 45.9295 241.229 46.3636 240.583 46.6719C239.937 46.9768 239.186 47.1293 238.331 47.1293C237.466 47.1293 236.71 46.9768 236.064 46.6719C235.418 46.3636 234.915 45.9295 234.558 45.3693C234.2 44.8059 234.021 44.1446 234.021 43.3857V36.8182H236.482V43.1719C236.482 43.5232 236.558 43.8364 236.71 44.1115C236.866 44.3866 237.083 44.602 237.362 44.7578C237.64 44.9136 237.963 44.9915 238.331 44.9915C238.699 44.9915 239.02 44.9136 239.295 44.7578C239.574 44.602 239.791 44.3866 239.947 44.1115C240.103 43.8364 240.18 43.5232 240.18 43.1719V36.8182ZM245.179 47V36.8182H249.385C250.147 36.8182 250.805 36.9557 251.358 37.2308C251.915 37.5026 252.345 37.8937 252.646 38.4041C252.948 38.9112 253.099 39.5128 253.099 40.2088C253.099 40.9148 252.944 41.5147 252.636 42.0085C252.328 42.4991 251.89 42.8736 251.324 43.1321C250.757 43.3873 250.086 43.5149 249.31 43.5149H246.65V41.576H248.853C249.224 41.576 249.534 41.5279 249.782 41.4318C250.034 41.3324 250.225 41.1832 250.354 40.9844C250.483 40.7822 250.548 40.5237 250.548 40.2088C250.548 39.8939 250.483 39.6338 250.354 39.4283C250.225 39.2195 250.034 39.0637 249.782 38.9609C249.531 38.8549 249.221 38.8018 248.853 38.8018H247.64V47H245.179ZM250.911 42.3466L253.447 47H250.762L248.276 42.3466H250.911ZM255.448 47V36.8182H257.909V45.0014H262.145V47H255.448Z" fill="white"/>
<defs>
<filter id="filter0_d_512_381" x="0.5" y="0.5" width="337" height="151" filterUnits="userSpaceOnUse" color-interpolation-filters="sRGB">
<feFlood flood-opacity="0" result="BackgroundImageFix"/>
<feColorMatrix in="SourceAlpha" type="matrix" values="0 0 0 0 0 0 0 0 0 0 0 0 0 0 0 0 0 0 127 0" result="hardAlpha"/>
<feOffset dy="8"/>
<feGaussianBlur stdDeviation="4"/>
<feComposite in2="hardAlpha" operator="out"/>
<feColorMatrix type="matrix" values="0 0 0 0 0.945098 0 0 0 0 0.960784 0 0 0 0 0.976471 0 0 0 1 0"/>
<feBlend mode="normal" in2="BackgroundImageFix" result="effect1_dropShadow_512_381"/>
<feBlend mode="normal" in="SourceGraphic" in2="effect1_dropShadow_512_381" result="shape"/>
</filter>
<linearGradient id="paint0_linear_512_381" x1="17.5" y1="14.5" x2="323" y2="121" gradientUnits="userSpaceOnUse">
<stop stop-color="#6F3266"/>
<stop offset="1" stop-color="#C27CB5"/>
</linearGradient>
<linearGradient id="paint1_linear_512_381" x1="256.067" y1="55.6519" x2="499.509" y2="226.58" gradientUnits="userSpaceOnUse">
<stop stop-color="white" stop-opacity="0.15"/>
<stop offset="1" stop-color="#999999"/>
</linearGradient>
<linearGradient id="paint2_linear_512_381" x1="71" y1="36" x2="71" y2="100" gradientUnits="userSpaceOnUse">
<stop stop-color="#F46AE1"/>
<stop offset="1" stop-color="#999999"/>
</linearGradient>
</defs>
</svg>
