<svg width="66" height="66" viewBox="0 0 66 66" fill="none" xmlns="http://www.w3.org/2000/svg">
<path d="M7.65 11.4C7.65 9.33007 9.33007 7.65 11.4 7.65H20.2C21.115 7.65 21.9925 7.28652 22.6395 6.63952C23.2865 5.99252 23.65 5.115 23.65 4.2C23.65 3.285 23.2865 2.40748 22.6395 1.76048C21.9925 1.11348 21.115 0.75 20.2 0.75H11.4C8.57544 0.75 5.86658 1.87205 3.86931 3.86931C1.87205 5.86658 0.75 8.57544 0.75 11.4V20.2C0.75 21.115 1.11348 21.9925 1.76048 22.6395C2.40748 23.2865 3.285 23.65 4.2 23.65C5.115 23.65 5.99252 23.2865 6.63952 22.6395C7.28652 21.9925 7.65 21.115 7.65 20.2V11.4ZM11.4 58.35C9.33007 58.35 7.65 56.6699 7.65 54.6V45.8C7.65 44.885 7.28652 44.0075 6.63952 43.3605C5.99252 42.7135 5.115 42.35 4.2 42.35C3.285 42.35 2.40748 42.7135 1.76048 43.3605C1.11348 44.0075 0.75 44.885 0.75 45.8V54.6C0.75 55.9986 1.02547 57.3835 1.56068 58.6756C2.0959 59.9677 2.88037 61.1417 3.86931 62.1307C4.85826 63.1196 6.0323 63.9041 7.32442 64.4393C8.61654 64.9745 10.0014 65.25 11.4 65.25H20.2C21.115 65.25 21.9925 64.8865 22.6395 64.2395C23.2865 63.5925 23.65 62.715 23.65 61.8C23.65 60.885 23.2865 60.0075 22.6395 59.3605C21.9925 58.7135 21.115 58.35 20.2 58.35H11.4ZM54.6 7.65C56.6699 7.65 58.35 9.33007 58.35 11.4V20.2C58.35 21.115 58.7135 21.9925 59.3605 22.6395C60.0075 23.2865 60.885 23.65 61.8 23.65C62.715 23.65 63.5925 23.2865 64.2395 22.6395C64.8865 21.9925 65.25 21.115 65.25 20.2V11.4C65.25 10.0014 64.9745 8.61654 64.4393 7.32442C63.9041 6.0323 63.1196 4.85826 62.1307 3.86931C61.1417 2.88037 59.9677 2.0959 58.6756 1.56068C57.3835 1.02547 55.9986 0.75 54.6 0.75H45.8C44.885 0.75 44.0075 1.11348 43.3605 1.76048C42.7135 2.40748 42.35 3.285 42.35 4.2C42.35 5.115 42.7135 5.99252 43.3605 6.63952C44.0075 7.28652 44.885 7.65 45.8 7.65H54.6ZM58.35 54.6C58.35 56.6699 56.6699 58.35 54.6 58.35H45.8C44.885 58.35 44.0075 58.7135 43.3605 59.3605C42.7135 60.0075 42.35 60.885 42.35 61.8C42.35 62.715 42.7135 63.5925 43.3605 64.2395C44.0075 64.8865 44.885 65.25 45.8 65.25H54.6C55.9986 65.25 57.3835 64.9745 58.6756 64.4393C59.9677 63.9041 61.1417 63.1196 62.1307 62.1307C63.1196 61.1417 63.9041 59.9677 64.4393 58.6756C64.9745 57.3835 65.25 55.9986 65.25 54.6V45.8C65.25 44.885 64.8865 44.0075 64.2395 43.3605C63.5925 42.7135 62.715 42.35 61.8 42.35C60.885 42.35 60.0075 42.7135 59.3605 43.3605C58.7135 44.0075 58.35 44.885 58.35 45.8V54.6ZM16.9605 17.7605C16.3135 18.4075 15.95 19.285 15.95 20.2V25C15.95 25.915 16.3135 26.7925 16.9605 27.4395C17.6075 28.0865 18.485 28.45 19.4 28.45C20.315 28.45 21.1925 28.0865 21.8395 27.4395C22.4865 26.7925 22.85 25.915 22.85 25V23.65H29.55V42.35H25.8C24.885 42.35 24.0075 42.7135 23.3605 43.3605C22.7135 44.0075 22.35 44.885 22.35 45.8C22.35 46.715 22.7135 47.5925 23.3605 48.2395C24.0075 48.8865 24.885 49.25 25.8 49.25H40.2C41.115 49.25 41.9925 48.8865 42.6395 48.2395C43.2865 47.5925 43.65 46.715 43.65 45.8C43.65 44.885 43.2865 44.0075 42.6395 43.3605C41.9925 42.7135 41.115 42.35 40.2 42.35H36.45V23.65H43.15V25C43.15 25.915 43.5135 26.7925 44.1605 27.4395C44.8075 28.0865 45.685 28.45 46.6 28.45C47.515 28.45 48.3925 28.0865 49.0395 27.4395C49.6865 26.7925 50.05 25.915 50.05 25V20.2C50.05 19.285 49.6865 18.4075 49.0395 17.7605C48.3925 17.1135 47.515 16.75 46.6 16.75H19.4C18.485 16.75 17.6075 17.1135 16.9605 17.7605Z" fill="url(#paint0_linear_422_1086)" stroke="white" stroke-width="0.5"/>
<defs>
<linearGradient id="paint0_linear_422_1086" x1="33" y1="1" x2="33" y2="65" gradientUnits="userSpaceOnUse">
<stop stop-color="#914186"/>
<stop offset="1" stop-color="#2B1328"/>
</linearGradient>
</defs>
</svg>
