<svg width="1045" height="337" viewBox="0 0 1045 337" fill="none" xmlns="http://www.w3.org/2000/svg">
<path d="M250.647 223.088C244.024 221.215 235.976 222.732 232.665 226.479L209.996 267.814L177.589 285.719L144.819 267.814L122.513 226.479C119.202 222.732 111.154 221.215 104.532 223.088C97.9091 224.961 88.5646 232.192 91.8759 235.938L122.513 276.146L165.602 309.145C167.865 311.706 172.517 313.342 177.589 313.342C182.661 313.342 187.313 311.729 189.577 309.145L232.665 276.146L262.479 235.938C265.79 232.192 257.269 224.961 250.647 223.088Z" fill="white"/>
<path fill-rule="evenodd" clip-rule="evenodd" d="M79.9727 77.5542L176.633 55.0777L277.294 77.5542L264.995 100.598C263.608 103.827 263.74 106.45 266.581 108.562C269.422 110.675 273.276 111.861 277.294 111.861C281.312 111.861 286.045 110.62 288.007 108.562C289.969 106.505 292.235 103.829 294.219 99.9994L305.23 63.0417C305.23 60.0546 303.634 57.1899 300.793 55.0777C297.951 52.9655 294.098 51.7789 290.08 51.7789C239.7 44.0176 208.064 26.4754 176.633 26.1645C147.826 25.8796 118.821 42.3946 67.8715 51.7789C63.8533 51.7789 59.9997 52.9655 57.1584 55.0777C54.3171 57.1899 52.7209 60.0546 52.7209 63.0417L62.1189 99.9994C62.5051 101.889 65.7066 106.953 67.8715 108.562C70.7128 110.675 74.5664 111.861 78.5845 111.861C82.6027 111.861 86.4563 110.675 89.2976 108.562C92.1389 106.45 92.9559 102.488 91.5685 100.598L79.9727 77.5542Z" fill="white"/>
<path d="M294.076 147.862C291.745 145.613 288.947 144.49 285.68 144.494L249.28 144.542C246.013 144.546 213.681 145.684 211.345 147.939C208.892 150.307 207.721 153.236 207.833 156.727C208.183 156.727 209.276 156.711 211.114 156.68C212.951 156.65 243.736 156.64 244.407 156.667C245.078 156.694 246.069 156.806 247.381 157.001C248.694 157.196 249.816 157.547 250.749 158.052C251.681 158.558 252.585 159.232 253.458 160.076C255.789 162.325 256.951 165.025 256.947 168.178C256.943 171.331 255.772 174.035 253.436 176.29C252.559 177.136 251.654 177.813 250.72 178.321C249.786 178.829 248.663 179.182 247.35 179.381C246.037 179.579 245.045 179.693 244.374 179.722C243.704 179.751 212.919 179.761 211.082 179.736C209.244 179.71 208.15 179.697 207.8 179.698C207.679 183.301 208.841 186.284 211.288 188.645C213.618 190.894 245.947 192.008 249.214 192.004L285.351 192.041C288.501 192.037 291.274 190.879 293.669 188.568C296.005 186.313 297.234 183.665 297.355 180.624L297.477 155.88C297.481 152.727 296.348 150.054 294.076 147.862ZM141.345 147.862C139.015 145.613 102.701 144.491 99.4339 144.495L63.2963 144.458C60.0297 144.462 57.2281 145.592 54.8916 147.847C52.6135 150.045 51.4139 152.721 51.2928 155.874L51.1706 180.619C51.1662 183.771 52.2999 186.444 54.5719 188.637C56.9021 190.886 59.7005 192.008 62.9672 192.004L99.3674 191.957C102.517 191.953 138.805 190.795 141.2 188.483C143.654 186.115 144.854 183.214 144.8 179.78C144.45 179.78 143.356 179.796 141.519 179.827C139.681 179.857 104.911 179.859 104.241 179.832C103.57 179.804 102.578 179.693 101.266 179.498C99.9539 179.302 98.8314 178.952 97.8988 178.446C96.9662 177.941 96.063 177.266 95.1891 176.423C92.859 174.174 91.6961 171.473 91.7005 168.32C91.7049 165.167 92.8754 162.463 95.2119 160.208C96.0881 159.363 96.9932 158.686 97.9272 158.178C98.8613 157.67 99.9847 157.317 101.297 157.118C102.61 156.919 103.602 156.805 104.273 156.776C104.944 156.747 139.714 156.746 141.551 156.771C143.388 156.797 144.482 156.81 144.832 156.809C144.954 153.206 143.791 150.223 141.345 147.862ZM310.898 131.625C317.889 138.372 321.319 146.475 321.189 155.933L321.067 180.678C321.054 190.024 317.543 198.079 310.533 204.845C303.465 211.666 295.031 215.027 285.232 214.927L249.094 214.89C239.411 214.903 201.543 211.544 194.553 204.797C187.387 197.881 183.87 189.525 184 179.729L168.6 179.749C168.703 189.545 165.191 197.882 158.065 204.76C151.056 211.526 109.135 214.915 99.3352 214.927L62.935 214.975C53.1349 214.988 44.7396 211.621 37.7491 204.874C30.7585 198.127 27.3282 190.024 27.4581 180.565L27.5803 155.821C27.5934 146.475 31.1047 138.419 38.1142 131.654C45.1821 124.832 53.616 121.471 63.4159 121.571L99.5535 121.608C109.237 121.596 151.089 124.963 158.08 131.71C165.245 138.626 168.763 146.982 168.632 156.778L184.032 156.758C183.929 146.962 187.441 138.625 194.568 131.747C201.577 124.981 239.512 121.584 249.312 121.571L285.712 121.524C295.513 121.511 303.908 124.878 310.898 131.625Z" fill="url(#paint0_linear_145_784)"/>
<path d="M406.5 217.5C391.6 217.5 380.2 213.75 372.3 206.25C364.5 198.65 360.6 187.35 360.6 172.35C360.6 156.85 364.35 144.5 371.85 135.3C379.35 126.1 390.5 121.5 405.3 121.5C417.8 121.5 428.55 123.85 437.55 128.55V134.85C437.55 138.25 437.35 141.85 436.95 145.65C436.65 149.45 436.2 152.45 435.6 154.65H417L415.5 143.55C412.2 142.75 408.1 142.35 403.2 142.35C397.7 142.35 392.2 142.95 386.7 144.15C384.3 152.45 383.1 161.55 383.1 171.45C383.1 180.25 385 186.65 388.8 190.65C392.6 194.65 399 196.65 408 196.65C413.5 196.65 418.35 196.05 422.55 194.85C426.85 193.55 430.9 191.75 434.7 189.45L443.4 207C438.6 210.5 433.3 213.15 427.5 214.95C421.7 216.65 414.7 217.5 406.5 217.5ZM475.489 216.9C473.089 216.3 470.389 215.15 467.389 213.45C464.489 211.75 461.989 209.85 459.889 207.75C457.889 205.55 456.889 203.45 456.889 201.45V115.35H479.089V189.45C479.089 192.15 479.389 194.35 479.989 196.05H482.089L490.189 191.7L497.239 201.6C494.939 205.3 491.639 208.8 487.339 212.1C483.039 215.3 479.089 216.9 475.489 216.9ZM524.084 217.2C516.884 217.2 511.534 215.5 508.034 212.1C504.634 208.7 502.934 203.7 502.934 197.1C502.934 181.6 514.534 173.85 537.734 173.85C539.634 173.85 542.234 174 545.534 174.3V167.7C545.534 165.1 544.934 163.4 543.734 162.6C542.634 161.7 540.584 161.25 537.584 161.25C534.884 161.25 532.484 161.45 530.384 161.85L528.884 169.05H510.284C508.984 164.75 508.334 160.25 508.334 155.55V151.8C512.834 149.4 517.484 147.55 522.284 146.25C527.184 144.95 532.934 144.3 539.534 144.3C548.734 144.3 555.784 146.15 560.684 149.85C565.584 153.55 568.034 159.05 568.034 166.35V216H549.134L547.784 206.1H546.584C543.784 209.9 540.634 212.7 537.134 214.5C533.734 216.3 529.384 217.2 524.084 217.2ZM531.884 199.05C534.784 199.05 537.334 198.6 539.534 197.7C541.734 196.8 543.834 195.45 545.834 193.65V188.4C543.034 187.9 539.634 187.65 535.634 187.65C532.534 187.65 529.584 188 526.784 188.7C526.184 190.1 525.884 191.8 525.884 193.8C525.884 197.3 527.884 199.05 531.884 199.05ZM610.703 217.2C599.403 217.2 589.803 215.25 581.903 211.35L588.203 194.1C591.803 195.6 595.503 196.75 599.303 197.55C603.103 198.35 606.653 198.75 609.953 198.75C614.153 198.75 617.753 198.5 620.753 198C621.253 197.4 621.503 196.5 621.503 195.3C621.503 194.1 620.803 193.2 619.403 192.6C618.103 192 615.153 191.15 610.553 190.05C603.653 188.45 598.303 186.85 594.503 185.25C590.703 183.55 587.753 181.2 585.653 178.2C583.553 175.2 582.503 171.05 582.503 165.75C582.503 151.05 593.003 143.7 614.003 143.7C618.803 143.7 623.553 144.2 628.253 145.2C633.053 146.1 637.103 147.3 640.403 148.8V153.75C640.403 155.75 640.203 158.4 639.803 161.7C639.403 164.9 638.953 167.2 638.453 168.6H620.453L619.253 161.85C617.253 161.45 615.003 161.25 612.503 161.25C607.303 161.25 604.703 162.9 604.703 166.2C604.703 168.1 605.653 169.45 607.553 170.25C609.453 171.05 613.053 172 618.353 173.1C624.253 174.3 628.953 175.65 632.453 177.15C635.953 178.55 638.653 180.75 640.553 183.75C642.553 186.65 643.553 190.7 643.553 195.9C643.553 203 640.953 208.35 635.753 211.95C630.653 215.45 622.303 217.2 610.703 217.2ZM682.92 217.2C671.62 217.2 662.02 215.25 654.12 211.35L660.42 194.1C664.02 195.6 667.72 196.75 671.52 197.55C675.32 198.35 678.87 198.75 682.17 198.75C686.37 198.75 689.97 198.5 692.97 198C693.47 197.4 693.72 196.5 693.72 195.3C693.72 194.1 693.02 193.2 691.62 192.6C690.32 192 687.37 191.15 682.77 190.05C675.87 188.45 670.52 186.85 666.72 185.25C662.92 183.55 659.97 181.2 657.87 178.2C655.77 175.2 654.72 171.05 654.72 165.75C654.72 151.05 665.22 143.7 686.22 143.7C691.02 143.7 695.77 144.2 700.47 145.2C705.27 146.1 709.32 147.3 712.62 148.8V153.75C712.62 155.75 712.42 158.4 712.02 161.7C711.62 164.9 711.17 167.2 710.67 168.6H692.67L691.47 161.85C689.47 161.45 687.22 161.25 684.72 161.25C679.52 161.25 676.92 162.9 676.92 166.2C676.92 168.1 677.87 169.45 679.77 170.25C681.67 171.05 685.27 172 690.57 173.1C696.47 174.3 701.17 175.65 704.67 177.15C708.17 178.55 710.87 180.75 712.77 183.75C714.77 186.65 715.77 190.7 715.77 195.9C715.77 203 713.17 208.35 707.97 211.95C702.87 215.45 694.52 217.2 682.92 217.2ZM730.686 115.35H753.186V135.45H730.686V115.35ZM730.836 145.2H753.036V216H730.836V145.2ZM776.941 164.1H765.691L768.691 145.2H776.941V134.7C776.941 130.9 778.541 127.4 781.741 124.2C784.941 120.9 788.741 118.2 793.141 116.1C797.641 115.2 802.741 114.75 808.441 114.75C814.141 114.75 819.541 115.85 824.641 118.05L818.791 137.55C815.591 136.35 812.241 135.75 808.741 135.75C805.341 135.75 802.441 136.2 800.041 137.1C799.341 138.9 798.991 141.25 798.991 144.15V145.2H816.391L813.391 164.1H798.991V216H776.941V164.1Z" fill="white"/>
<path d="M853.779 217.2C846.879 217.2 841.579 215.35 837.879 211.65C834.179 207.85 832.329 202.25 832.329 194.85V145.2H854.829V195.6C857.129 196.4 859.679 196.8 862.479 196.8C868.579 196.8 873.279 195.1 876.579 191.7V145.2H899.079V216H879.279L878.379 205.2H877.179C873.979 209.2 870.579 212.2 866.979 214.2C863.479 216.2 859.079 217.2 853.779 217.2ZM918.336 145.2H938.586L939.486 159.6H940.986C943.686 154.7 946.736 151 950.136 148.5C953.636 145.9 957.936 144.6 963.036 144.6C963.836 144.6 964.886 145 966.186 145.8C967.586 146.6 968.636 147.4 969.336 148.2L967.086 167.55H960.786C952.186 167.55 945.436 169.8 940.536 174.3V216H918.336V145.2ZM999.611 216.9C997.211 216.3 994.511 215.15 991.511 213.45C988.611 211.75 986.111 209.85 984.011 207.75C982.011 205.55 981.011 203.45 981.011 201.45V115.35H1003.21V189.45C1003.21 192.15 1003.51 194.35 1004.11 196.05H1006.21L1014.31 191.7L1021.36 201.6C1019.06 205.3 1015.76 208.8 1011.46 212.1C1007.16 215.3 1003.21 216.9 999.611 216.9Z" fill="url(#paint1_linear_145_784)"/>
<defs>
<linearGradient id="paint0_linear_145_784" x1="27.2321" y1="168.44" x2="320.643" y2="168.44" gradientUnits="userSpaceOnUse">
<stop stop-color="#000137"/>
<stop offset="0.29" stop-color="#780000"/>
<stop offset="0.51" stop-color="#F10202"/>
<stop offset="0.725" stop-color="#780000"/>
<stop offset="1" stop-color="#000137"/>
</linearGradient>
<linearGradient id="paint1_linear_145_784" x1="835.423" y1="145.5" x2="1028.26" y2="146.397" gradientUnits="userSpaceOnUse">
<stop offset="0.00249637" stop-color="#000137"/>
<stop offset="0.305821" stop-color="#780004"/>
<stop offset="0.463127" stop-color="#F10202"/>
<stop offset="0.658818" stop-color="#780008"/>
<stop offset="0.931018" stop-color="#000137"/>
</linearGradient>
</defs>
</svg>
