<svg width="40" height="42" viewBox="0 0 40 42" fill="none" xmlns="http://www.w3.org/2000/svg">
<g filter="url(#filter0_d_235_806)">
<rect width="40" height="40" rx="20" fill="white"/>
<rect x="0.5" y="0.5" width="39" height="39" rx="19.5" stroke="#020202"/>
</g>
<path d="M16 20C16 18.585 16 17.878 16.44 17.44C16.879 17 17.586 17 19 17H21C22.415 17 23.122 17 23.56 17.44C24 17.879 24 18.586 24 20V29V26C24 24.585 24 23.878 24.44 23.44C24.879 23 25.586 23 27 23C28.415 23 29.122 23 29.56 23.44C30 23.879 30 24.586 30 26V29M16 24V29C16 27.586 16 26.879 15.56 26.44C15.122 26 14.415 26 13 26C11.586 26 10.879 26 10.44 26.44C10 26.878 10 27.585 10 29" stroke="black" stroke-width="1.5" stroke-linecap="round"/>
<path d="M19.146 10.023C19.526 9.34 19.716 9 20 9C20.284 9 20.474 9.34 20.854 10.023L20.952 10.199C21.06 10.393 21.114 10.489 21.198 10.553C21.283 10.617 21.388 10.641 21.598 10.688L21.788 10.732C22.526 10.899 22.895 10.982 22.983 11.264C23.071 11.547 22.819 11.841 22.316 12.429L22.186 12.581C22.043 12.748 21.971 12.831 21.939 12.935C21.907 13.039 21.918 13.15 21.939 13.373L21.959 13.576C22.035 14.361 22.073 14.754 21.844 14.928C21.614 15.103 21.268 14.943 20.577 14.625L20.399 14.543C20.202 14.453 20.104 14.407 20 14.407C19.896 14.407 19.798 14.453 19.601 14.543L19.423 14.625C18.732 14.943 18.386 15.103 18.156 14.928C17.926 14.754 17.965 14.361 18.041 13.576L18.061 13.373C18.082 13.15 18.093 13.039 18.061 12.935C18.029 12.832 17.957 12.748 17.814 12.581L17.684 12.429C17.181 11.841 16.929 11.547 17.017 11.264C17.105 10.982 17.474 10.899 18.212 10.732L18.402 10.688C18.612 10.641 18.717 10.618 18.802 10.553C18.886 10.489 18.94 10.393 19.048 10.199L19.146 10.023Z" stroke="#780000" stroke-width="1.5"/>
<defs>
<filter id="filter0_d_235_806" x="0" y="0" width="40" height="42" filterUnits="userSpaceOnUse" color-interpolation-filters="sRGB">
<feFlood flood-opacity="0" result="BackgroundImageFix"/>
<feColorMatrix in="SourceAlpha" type="matrix" values="0 0 0 0 0 0 0 0 0 0 0 0 0 0 0 0 0 0 127 0" result="hardAlpha"/>
<feOffset dy="2"/>
<feColorMatrix type="matrix" values="0 0 0 0 0 0 0 0 0 0 0 0 0 0 0 0 0 0 1 0"/>
<feBlend mode="normal" in2="BackgroundImageFix" result="effect1_dropShadow_235_806"/>
<feBlend mode="normal" in="SourceGraphic" in2="effect1_dropShadow_235_806" result="shape"/>
</filter>
</defs>
</svg>
