<svg width="556" height="556" viewBox="0 0 556 556" fill="none" xmlns="http://www.w3.org/2000/svg">
<path d="M381.288 351.983C372.324 349.447 361.43 351.502 356.948 356.573L326.261 412.526L282.394 436.764L238.034 412.526L207.84 356.573C203.358 351.502 192.464 349.447 183.5 351.983C174.535 354.519 161.886 364.306 166.368 369.378L207.84 423.805L266.167 468.474C269.231 471.941 275.529 474.156 282.394 474.156C289.259 474.156 295.557 471.973 298.621 468.474L356.948 423.805L397.306 369.378C401.788 364.306 390.253 354.519 381.288 351.983Z" fill="black"/>
<path d="M440.076 250.153C436.922 247.109 433.133 245.589 428.711 245.595L379.438 245.659C375.016 245.665 331.25 247.206 328.087 250.258C324.766 253.464 323.181 257.429 323.333 262.154C323.807 262.153 325.287 262.132 327.775 262.091C330.262 262.049 371.934 262.036 372.842 262.073C373.75 262.109 375.092 262.26 376.868 262.525C378.644 262.789 380.164 263.263 381.426 263.948C382.689 264.632 383.911 265.545 385.094 266.686C388.248 269.731 389.823 273.387 389.817 277.655C389.811 281.923 388.226 285.583 385.063 288.635C383.877 289.78 382.652 290.696 381.388 291.384C380.123 292.071 378.603 292.55 376.826 292.819C375.049 293.088 373.706 293.242 372.798 293.281C371.89 293.321 330.218 293.334 327.731 293.299C325.243 293.264 323.763 293.247 323.289 293.248C323.124 298.126 324.698 302.163 328.01 305.359C331.164 308.404 374.926 309.912 379.348 309.906L428.266 309.956C432.53 309.951 436.283 308.384 439.525 305.255C442.688 302.202 444.351 298.618 444.515 294.502L444.68 261.007C444.686 256.739 443.151 253.121 440.076 250.153ZM233.331 250.153C230.177 247.109 181.021 245.59 176.599 245.596L127.681 245.545C123.259 245.551 119.467 247.08 116.304 250.133C113.22 253.109 111.596 256.731 111.433 260.999L111.267 294.495C111.261 298.762 112.796 302.38 115.871 305.349C119.026 308.393 122.814 309.912 127.236 309.907L176.509 309.842C180.773 309.837 229.894 308.269 233.136 305.14C236.457 301.935 238.081 298.008 238.009 293.359C237.535 293.36 236.054 293.381 233.567 293.422C231.08 293.464 184.014 293.466 183.105 293.429C182.197 293.392 180.855 293.241 179.079 292.977C177.303 292.713 175.783 292.238 174.521 291.554C173.258 290.87 172.036 289.957 170.853 288.815C167.699 285.771 166.124 282.115 166.13 277.847C166.136 273.579 167.721 269.919 170.884 266.866C172.07 265.721 173.295 264.805 174.559 264.118C175.824 263.43 177.344 262.952 179.121 262.683C180.899 262.414 182.241 262.26 183.149 262.22C184.057 262.181 231.123 262.179 233.611 262.214C236.098 262.248 237.579 262.266 238.052 262.265C238.217 257.387 236.643 253.35 233.331 250.153ZM462.848 228.174C472.311 237.307 476.954 248.276 476.778 261.079L476.613 294.575C476.595 307.226 471.842 318.13 462.354 327.288C452.786 336.522 441.37 341.072 428.104 340.937L379.186 340.886C366.078 340.903 314.819 336.357 305.356 327.224C295.657 317.862 290.896 306.551 291.072 293.29L270.226 293.317C270.365 306.578 265.611 317.863 255.965 327.174C246.476 336.332 189.731 340.919 176.465 340.937L127.192 341.001C113.926 341.018 102.562 336.46 93.0991 327.327C83.6363 318.194 78.9928 307.226 79.1687 294.422L79.3341 260.927C79.3518 248.276 84.1049 237.371 93.5933 228.213C103.161 218.979 114.577 214.43 127.843 214.565L176.761 214.615C189.869 214.598 246.522 219.156 255.985 228.289C265.684 237.651 270.446 248.962 270.269 262.223L291.116 262.196C290.976 248.935 295.73 237.649 305.377 228.339C314.865 219.181 366.216 214.582 379.482 214.565L428.755 214.501C442.021 214.483 453.385 219.041 462.848 228.174Z" fill="url(#paint0_linear_186_747)"/>
<path fill-rule="evenodd" clip-rule="evenodd" d="M150.256 154.981L281.1 124.556L417.36 154.981L400.712 186.175C398.834 190.545 399.012 194.096 402.858 196.955C406.704 199.815 411.921 201.421 417.36 201.421C422.799 201.421 429.206 199.741 431.862 196.955C434.517 194.17 437.585 190.548 440.27 185.364L455.176 135.336C455.176 131.293 453.015 127.415 449.169 124.556C445.323 121.697 440.106 120.09 434.667 120.09C366.471 109.584 323.647 85.8383 281.1 85.4175C242.105 85.0317 202.843 107.387 133.875 120.09C128.436 120.09 123.219 121.697 119.373 124.556C115.527 127.415 113.366 131.293 113.366 135.336L126.088 185.364C126.611 187.922 130.944 194.777 133.875 196.955C137.721 199.815 142.937 201.421 148.377 201.421C153.816 201.421 159.032 199.815 162.878 196.955C166.724 194.096 167.83 188.732 165.952 186.175L150.256 154.981Z" fill="black"/>
<defs>
<linearGradient id="paint0_linear_186_747" x1="78.8627" y1="278.009" x2="476.039" y2="278.009" gradientUnits="userSpaceOnUse">
<stop stop-color="#000137"/>
<stop offset="0.29" stop-color="#780000"/>
<stop offset="0.51" stop-color="#F10202"/>
<stop offset="0.725" stop-color="#780000"/>
<stop offset="1" stop-color="#000137"/>
</linearGradient>
</defs>
</svg>
