<svg width="338" height="152" viewBox="0 0 338 152" fill="none" xmlns="http://www.w3.org/2000/svg">
<g filter="url(#filter0_d_512_380)">
<rect x="9" y="1" width="320" height="134" rx="20" fill="url(#paint0_linear_512_380)"/>
<rect x="9" y="1" width="320" height="134" rx="20" stroke="#E2E8F0"/>
</g>
<path fill-rule="evenodd" clip-rule="evenodd" d="M240.484 134.779C240.164 130.826 240 126.824 240 122.779C240 68.3767 269.594 21.6032 311.982 1C321.613 2.43974 329 10.7468 329 20.7792V114.779C329 125.825 320.046 134.779 309 134.779H240.484Z" fill="url(#paint1_linear_512_380)"/>
<path d="M98.8882 73.2782C97.9539 73.2782 97.0579 73.6495 96.3972 74.3105C95.7365 74.9715 95.3654 75.868 95.3654 76.8028V78.1422L90.1516 72.9257C88.3106 71.0983 85.8225 70.073 83.2292 70.073C80.636 70.073 78.1478 71.0983 76.3068 72.9257L73.8409 75.393L65.1042 66.6518C63.2375 64.874 60.759 63.8825 58.1818 63.8825C55.6047 63.8825 53.1262 64.874 51.2595 66.6518L46.0457 71.8683V52.1303C46.0457 51.1955 46.4168 50.299 47.0775 49.638C47.7381 48.977 48.6342 48.6057 49.5685 48.6057H74.2284C75.1627 48.6057 76.0587 48.2343 76.7194 47.5733C77.3801 46.9123 77.7512 46.0158 77.7512 45.081C77.7512 44.1462 77.3801 43.2497 76.7194 42.5887C76.0587 41.9277 75.1627 41.5564 74.2284 41.5564H49.5685C46.7656 41.5564 44.0774 42.6704 42.0954 44.6534C40.1135 46.6364 39 49.3259 39 52.1303V94.4261C39 97.2304 40.1135 99.92 42.0954 101.903C44.0774 103.886 46.7656 105 49.5685 105H91.8426C94.6455 105 97.3336 103.886 99.3156 101.903C101.298 99.92 102.411 97.2304 102.411 94.4261V76.8028C102.411 75.868 102.04 74.9715 101.379 74.3105C100.719 73.6495 99.8225 73.2782 98.8882 73.2782ZM49.5685 97.9507C48.6342 97.9507 47.7381 97.5794 47.0775 96.9184C46.4168 96.2574 46.0457 95.3609 46.0457 94.4261V81.8431L56.2619 71.6216C56.7794 71.1281 57.4669 70.8529 58.1818 70.8529C58.8968 70.8529 59.5842 71.1281 60.1018 71.6216L71.2692 82.7947L86.4174 97.9507H49.5685ZM95.3654 94.4261C95.3603 95.1008 95.1379 95.7559 94.7313 96.2941L78.8433 80.3275L81.3093 77.8602C81.5618 77.6023 81.8633 77.3974 82.196 77.2575C82.5287 77.1177 82.886 77.0456 83.2468 77.0456C83.6077 77.0456 83.965 77.1177 84.2977 77.2575C84.6304 77.3974 84.9318 77.6023 85.1844 77.8602L95.3654 88.1169V94.4261ZM111.958 42.5785L101.389 32.0046C101.054 31.6837 100.659 31.4321 100.227 31.2644C99.3692 30.9119 98.4072 30.9119 97.5496 31.2644C97.1171 31.4321 96.7221 31.6837 96.387 32.0046L85.8185 42.5785C85.1551 43.2422 84.7825 44.1424 84.7825 45.081C84.7825 46.0196 85.1551 46.9198 85.8185 47.5835C86.4819 48.2472 87.3816 48.6201 88.3197 48.6201C89.2579 48.6201 90.1576 48.2472 90.8209 47.5835L95.3654 43.0015V62.7042C95.3654 63.639 95.7365 64.5355 96.3972 65.1965C97.0579 65.8575 97.9539 66.2289 98.8882 66.2289C99.8225 66.2289 100.719 65.8575 101.379 65.1965C102.04 64.5355 102.411 63.639 102.411 62.7042V43.0015L106.956 47.5835C107.283 47.9139 107.673 48.1761 108.102 48.355C108.531 48.534 108.992 48.6261 109.457 48.6261C109.922 48.6261 110.382 48.534 110.812 48.355C111.241 48.1761 111.63 47.9139 111.958 47.5835C112.288 47.2558 112.55 46.866 112.729 46.4365C112.908 46.007 113 45.5463 113 45.081C113 44.6157 112.908 44.155 112.729 43.7255C112.55 43.296 112.288 42.9062 111.958 42.5785Z" fill="url(#paint2_linear_512_380)"/>
<path d="M138.562 60.4688H139.664L138.68 66.2285C138.594 66.8223 138.393 67.3379 138.076 67.7754C137.76 68.2129 137.357 68.5508 136.869 68.7891C136.385 69.0234 135.844 69.1348 135.246 69.123C134.68 69.1113 134.191 68.9844 133.781 68.7422C133.375 68.5 133.072 68.166 132.873 67.7402C132.678 67.3105 132.613 66.8105 132.68 66.2402L133.664 60.4688H134.754L133.775 66.2461C133.732 66.6172 133.758 66.9473 133.852 67.2363C133.949 67.5254 134.117 67.7559 134.355 67.9277C134.598 68.0957 134.914 68.1855 135.305 68.1973C135.719 68.209 136.084 68.1367 136.4 67.9805C136.721 67.8203 136.98 67.5918 137.18 67.2949C137.383 66.998 137.516 66.6465 137.578 66.2402L138.562 60.4688ZM141.674 63.9434L140.373 71.4375H139.307L140.83 62.6602H141.803L141.674 63.9434ZM145.488 65.7422L145.477 65.8652C145.426 66.248 145.332 66.6348 145.195 67.0254C145.062 67.4121 144.881 67.7656 144.65 68.0859C144.42 68.4062 144.137 68.6621 143.801 68.8535C143.469 69.0449 143.078 69.1348 142.629 69.123C142.234 69.1152 141.896 69.0293 141.615 68.8652C141.334 68.6973 141.107 68.4766 140.936 68.2031C140.764 67.9258 140.641 67.6172 140.566 67.2773C140.496 66.9336 140.473 66.582 140.496 66.2227L140.578 65.5723C140.645 65.1895 140.756 64.8164 140.912 64.4531C141.072 64.0859 141.275 63.7559 141.521 63.4629C141.768 63.1699 142.059 62.9414 142.395 62.7773C142.734 62.6094 143.119 62.5312 143.549 62.543C143.982 62.5547 144.334 62.6602 144.604 62.8594C144.877 63.0547 145.084 63.3105 145.225 63.627C145.369 63.9395 145.459 64.2812 145.494 64.6523C145.529 65.0195 145.527 65.3828 145.488 65.7422ZM144.41 65.8594L144.428 65.7305C144.455 65.4961 144.461 65.248 144.445 64.9863C144.434 64.7246 144.385 64.4805 144.299 64.2539C144.217 64.0234 144.086 63.834 143.906 63.6855C143.73 63.5371 143.49 63.459 143.186 63.4512C142.943 63.4434 142.713 63.4844 142.494 63.5742C142.279 63.6602 142.084 63.7832 141.908 63.9434C141.732 64.0996 141.582 64.2812 141.457 64.4883C141.332 64.6914 141.24 64.9062 141.182 65.1328L140.93 66.6621C140.926 66.9395 140.986 67.1973 141.111 67.4355C141.236 67.6699 141.406 67.8594 141.621 68.0039C141.84 68.1484 142.088 68.2246 142.365 68.2324C142.689 68.2402 142.971 68.1758 143.209 68.0391C143.451 67.8984 143.654 67.7109 143.818 67.4766C143.982 67.2383 144.113 66.9785 144.211 66.6973C144.309 66.4121 144.375 66.1328 144.41 65.8594ZM148.986 60L147.422 69H146.361L147.92 60H148.986ZM149.385 65.9355L149.402 65.8008C149.449 65.375 149.555 64.9648 149.719 64.5703C149.887 64.1758 150.107 63.8242 150.381 63.5156C150.654 63.207 150.979 62.9648 151.354 62.7891C151.729 62.6133 152.146 62.5312 152.607 62.543C153.053 62.5508 153.434 62.6465 153.75 62.8301C154.07 63.0137 154.328 63.2578 154.523 63.5625C154.723 63.8633 154.861 64.2031 154.939 64.582C155.018 64.9609 155.037 65.3516 154.998 65.7539L154.986 65.8887C154.936 66.3145 154.826 66.7227 154.658 67.1133C154.49 67.5039 154.268 67.8516 153.99 68.1562C153.717 68.4609 153.393 68.7012 153.018 68.877C152.643 69.0488 152.227 69.1289 151.77 69.1172C151.328 69.1094 150.947 69.0156 150.627 68.8359C150.311 68.6523 150.055 68.4102 149.859 68.1094C149.664 67.8086 149.527 67.4707 149.449 67.0957C149.371 66.7207 149.35 66.334 149.385 65.9355ZM150.457 65.8008L150.445 65.9414C150.418 66.1875 150.416 66.4434 150.439 66.709C150.467 66.9746 150.529 67.2207 150.627 67.4473C150.729 67.6738 150.875 67.8594 151.066 68.0039C151.258 68.1484 151.506 68.2246 151.811 68.2324C152.135 68.2402 152.42 68.1777 152.666 68.0449C152.912 67.9082 153.121 67.7246 153.293 67.4941C153.469 67.2637 153.607 67.0078 153.709 66.7266C153.814 66.4453 153.885 66.166 153.92 65.8887L153.932 65.7539C153.959 65.5078 153.959 65.252 153.932 64.9863C153.908 64.7168 153.846 64.4668 153.744 64.2363C153.646 64.002 153.502 63.8125 153.311 63.668C153.119 63.5195 152.871 63.4414 152.566 63.4336C152.242 63.4219 151.955 63.4863 151.705 63.627C151.459 63.7637 151.25 63.9492 151.078 64.1836C150.906 64.418 150.768 64.6777 150.662 64.9629C150.561 65.2441 150.492 65.5234 150.457 65.8008ZM159.586 67.916L160.113 64.6406C160.141 64.3984 160.117 64.1855 160.043 64.002C159.973 63.8184 159.854 63.6758 159.686 63.5742C159.521 63.4727 159.314 63.418 159.064 63.4102C158.846 63.4062 158.631 63.4414 158.42 63.5156C158.213 63.5898 158.033 63.7012 157.881 63.8496C157.729 63.998 157.629 64.1855 157.582 64.4121L156.527 64.418C156.555 64.1016 156.654 63.8262 156.826 63.5918C156.998 63.3535 157.213 63.1562 157.471 63C157.729 62.8398 158.006 62.7227 158.303 62.6484C158.6 62.5703 158.889 62.5332 159.17 62.5371C159.596 62.5449 159.965 62.6367 160.277 62.8125C160.594 62.9844 160.832 63.2266 160.992 63.5391C161.152 63.8516 161.211 64.2266 161.168 64.6641L160.682 67.6172C160.646 67.832 160.625 68.0488 160.617 68.2676C160.613 68.4824 160.639 68.6934 160.693 68.9004L160.682 69L159.609 69.0059C159.566 68.8262 159.545 68.6445 159.545 68.4609C159.549 68.2773 159.562 68.0957 159.586 67.916ZM160.236 65.1562L160.113 65.918L159.111 65.9121C158.9 65.9121 158.678 65.9277 158.443 65.959C158.209 65.9902 157.986 66.0488 157.775 66.1348C157.564 66.2207 157.387 66.3457 157.242 66.5098C157.098 66.6699 157.01 66.8789 156.979 67.1367C156.955 67.3477 156.98 67.5312 157.055 67.6875C157.133 67.8398 157.25 67.959 157.406 68.0449C157.562 68.1309 157.744 68.1758 157.951 68.1797C158.221 68.1836 158.486 68.1309 158.748 68.0215C159.01 67.9121 159.238 67.7559 159.434 67.5527C159.629 67.3496 159.764 67.1152 159.838 66.8496L160.225 67.3711C160.15 67.6289 160.029 67.8672 159.861 68.0859C159.693 68.3008 159.494 68.4863 159.264 68.6426C159.037 68.7988 158.793 68.9199 158.531 69.0059C158.27 69.0918 158.008 69.1328 157.746 69.1289C157.391 69.1211 157.068 69.041 156.779 68.8887C156.494 68.7363 156.268 68.5234 156.1 68.25C155.936 67.9727 155.865 67.6504 155.889 67.2832C155.912 66.8809 156.018 66.543 156.205 66.2695C156.393 65.9961 156.633 65.7773 156.926 65.6133C157.223 65.4492 157.547 65.332 157.898 65.2617C158.25 65.1875 158.598 65.1504 158.941 65.1504L160.236 65.1562ZM166.195 67.7051L167.531 60H168.598L167.033 69H166.066L166.195 67.7051ZM162.375 65.9473L162.387 65.8242C162.438 65.4336 162.531 65.043 162.668 64.6523C162.809 64.2617 162.998 63.9043 163.236 63.5801C163.475 63.2559 163.764 62.998 164.104 62.8066C164.443 62.6152 164.84 62.5254 165.293 62.5371C165.699 62.5488 166.039 62.6445 166.312 62.8242C166.586 63.0039 166.801 63.2422 166.957 63.5391C167.117 63.832 167.225 64.1543 167.279 64.5059C167.338 64.8574 167.355 65.2109 167.332 65.5664L167.268 66.1055C167.201 66.4844 167.092 66.8555 166.939 67.2188C166.787 67.582 166.59 67.9102 166.348 68.2031C166.109 68.4922 165.822 68.7207 165.486 68.8887C165.154 69.0566 164.773 69.1348 164.344 69.123C163.93 69.1074 163.586 69 163.312 68.8008C163.043 68.6016 162.832 68.3457 162.68 68.0332C162.531 67.7168 162.434 67.377 162.387 67.0137C162.344 66.6465 162.34 66.291 162.375 65.9473ZM163.465 65.8125L163.453 65.9355C163.426 66.1699 163.416 66.418 163.424 66.6797C163.436 66.9375 163.48 67.1816 163.559 67.4121C163.637 67.6387 163.764 67.8262 163.939 67.9746C164.115 68.1191 164.354 68.1973 164.654 68.209C164.975 68.2168 165.271 68.1445 165.545 67.9922C165.818 67.8398 166.053 67.6367 166.248 67.3828C166.443 67.1289 166.584 66.8535 166.67 66.5566L166.898 65.1328C166.91 64.918 166.885 64.7129 166.822 64.5176C166.76 64.3184 166.666 64.1406 166.541 63.9844C166.42 63.8281 166.27 63.7031 166.09 63.6094C165.914 63.5117 165.717 63.4609 165.498 63.457C165.17 63.4453 164.887 63.5098 164.648 63.6504C164.41 63.7871 164.209 63.9727 164.045 64.207C163.885 64.4375 163.758 64.6934 163.664 64.9746C163.57 65.2559 163.504 65.5352 163.465 65.8125ZM175.441 67.916L175.969 64.6406C175.996 64.3984 175.973 64.1855 175.898 64.002C175.828 63.8184 175.709 63.6758 175.541 63.5742C175.377 63.4727 175.17 63.418 174.92 63.4102C174.701 63.4062 174.486 63.4414 174.275 63.5156C174.068 63.5898 173.889 63.7012 173.736 63.8496C173.584 63.998 173.484 64.1855 173.438 64.4121L172.383 64.418C172.41 64.1016 172.51 63.8262 172.682 63.5918C172.854 63.3535 173.068 63.1562 173.326 63C173.584 62.8398 173.861 62.7227 174.158 62.6484C174.455 62.5703 174.744 62.5332 175.025 62.5371C175.451 62.5449 175.82 62.6367 176.133 62.8125C176.449 62.9844 176.688 63.2266 176.848 63.5391C177.008 63.8516 177.066 64.2266 177.023 64.6641L176.537 67.6172C176.502 67.832 176.48 68.0488 176.473 68.2676C176.469 68.4824 176.494 68.6934 176.549 68.9004L176.537 69L175.465 69.0059C175.422 68.8262 175.4 68.6445 175.4 68.4609C175.404 68.2773 175.418 68.0957 175.441 67.916ZM176.092 65.1562L175.969 65.918L174.967 65.9121C174.756 65.9121 174.533 65.9277 174.299 65.959C174.064 65.9902 173.842 66.0488 173.631 66.1348C173.42 66.2207 173.242 66.3457 173.098 66.5098C172.953 66.6699 172.865 66.8789 172.834 67.1367C172.811 67.3477 172.836 67.5312 172.91 67.6875C172.988 67.8398 173.105 67.959 173.262 68.0449C173.418 68.1309 173.6 68.1758 173.807 68.1797C174.076 68.1836 174.342 68.1309 174.604 68.0215C174.865 67.9121 175.094 67.7559 175.289 67.5527C175.484 67.3496 175.619 67.1152 175.693 66.8496L176.08 67.3711C176.006 67.6289 175.885 67.8672 175.717 68.0859C175.549 68.3008 175.35 68.4863 175.119 68.6426C174.893 68.7988 174.648 68.9199 174.387 69.0059C174.125 69.0918 173.863 69.1328 173.602 69.1289C173.246 69.1211 172.924 69.041 172.635 68.8887C172.35 68.7363 172.123 68.5234 171.955 68.25C171.791 67.9727 171.721 67.6504 171.744 67.2832C171.768 66.8809 171.873 66.543 172.061 66.2695C172.248 65.9961 172.488 65.7773 172.781 65.6133C173.078 65.4492 173.402 65.332 173.754 65.2617C174.105 65.1875 174.453 65.1504 174.797 65.1504L176.092 65.1562ZM179.865 64.0781L179.01 69H177.949L179.051 62.6602H180.053L179.865 64.0781ZM179.373 65.5898L178.939 65.5781C178.994 65.1992 179.094 64.8281 179.238 64.4648C179.387 64.0977 179.58 63.7676 179.818 63.4746C180.061 63.1816 180.348 62.9512 180.68 62.7832C181.016 62.6113 181.398 62.5312 181.828 62.543C182.168 62.5508 182.451 62.6172 182.678 62.7422C182.908 62.8633 183.088 63.0293 183.217 63.2402C183.346 63.4512 183.432 63.6953 183.475 63.9727C183.518 64.2461 183.521 64.5371 183.486 64.8457L182.795 69H181.729L182.432 64.8281C182.459 64.5742 182.449 64.3457 182.402 64.1426C182.359 63.9355 182.262 63.7715 182.109 63.6504C181.961 63.5254 181.746 63.459 181.465 63.4512C181.168 63.4434 180.9 63.5 180.662 63.6211C180.424 63.7422 180.215 63.9082 180.035 64.1191C179.859 64.3262 179.715 64.5586 179.602 64.8164C179.492 65.0703 179.416 65.3281 179.373 65.5898ZM189.586 62.6602L188.484 69H187.424L188.525 62.6602H189.586ZM188.736 60.9961C188.736 60.8125 188.793 60.6602 188.906 60.5391C189.023 60.4141 189.174 60.3496 189.357 60.3457C189.541 60.3418 189.691 60.3984 189.809 60.5156C189.93 60.6328 189.988 60.7812 189.984 60.9609C189.984 61.1406 189.924 61.291 189.803 61.4121C189.686 61.5293 189.537 61.5898 189.357 61.5938C189.178 61.5977 189.029 61.5449 188.912 61.4355C188.795 61.3223 188.736 61.1758 188.736 60.9961ZM192.094 63.9844L191.227 69H190.16L191.262 62.6602H192.27L192.094 63.9844ZM191.619 65.5898L191.139 65.5781C191.193 65.1836 191.291 64.8027 191.432 64.4355C191.572 64.0684 191.76 63.7402 191.994 63.4512C192.232 63.1621 192.52 62.9355 192.855 62.7715C193.191 62.6074 193.58 62.5312 194.021 62.543C194.35 62.5508 194.627 62.6152 194.854 62.7363C195.08 62.8535 195.262 63.0156 195.398 63.2227C195.539 63.4258 195.633 63.6602 195.68 63.9258C195.73 64.1914 195.742 64.4746 195.715 64.7754L195.006 69H193.945L194.648 64.8223C194.68 64.5566 194.664 64.3223 194.602 64.1191C194.543 63.916 194.432 63.7559 194.268 63.6387C194.104 63.5176 193.881 63.4531 193.6 63.4453C193.283 63.4375 193.008 63.4922 192.773 63.6094C192.543 63.7266 192.35 63.8887 192.193 64.0957C192.041 64.2988 191.918 64.5312 191.824 64.793C191.73 65.0508 191.662 65.3164 191.619 65.5898ZM195.715 64.9922L194.953 65.2148C195 64.8516 195.098 64.5078 195.246 64.1836C195.398 63.8594 195.596 63.5723 195.838 63.3223C196.08 63.0723 196.361 62.877 196.682 62.7363C197.002 62.5957 197.355 62.5293 197.742 62.5371C198.086 62.5449 198.377 62.6094 198.615 62.7305C198.854 62.8477 199.043 63.0098 199.184 63.2168C199.328 63.4238 199.424 63.666 199.471 63.9434C199.521 64.2168 199.529 64.5137 199.494 64.834L198.797 69H197.73L198.434 64.8164C198.465 64.5469 198.451 64.3105 198.393 64.1074C198.338 63.9043 198.229 63.7461 198.064 63.6328C197.9 63.5156 197.674 63.4551 197.385 63.4512C197.154 63.4434 196.943 63.4785 196.752 63.5566C196.561 63.6348 196.395 63.7461 196.254 63.8906C196.113 64.0312 195.996 64.1953 195.902 64.3828C195.812 64.5703 195.75 64.7734 195.715 64.9922ZM204.211 67.916L204.738 64.6406C204.766 64.3984 204.742 64.1855 204.668 64.002C204.598 63.8184 204.479 63.6758 204.311 63.5742C204.146 63.4727 203.939 63.418 203.689 63.4102C203.471 63.4062 203.256 63.4414 203.045 63.5156C202.838 63.5898 202.658 63.7012 202.506 63.8496C202.354 63.998 202.254 64.1855 202.207 64.4121L201.152 64.418C201.18 64.1016 201.279 63.8262 201.451 63.5918C201.623 63.3535 201.838 63.1562 202.096 63C202.354 62.8398 202.631 62.7227 202.928 62.6484C203.225 62.5703 203.514 62.5332 203.795 62.5371C204.221 62.5449 204.59 62.6367 204.902 62.8125C205.219 62.9844 205.457 63.2266 205.617 63.5391C205.777 63.8516 205.836 64.2266 205.793 64.6641L205.307 67.6172C205.271 67.832 205.25 68.0488 205.242 68.2676C205.238 68.4824 205.264 68.6934 205.318 68.9004L205.307 69L204.234 69.0059C204.191 68.8262 204.17 68.6445 204.17 68.4609C204.174 68.2773 204.188 68.0957 204.211 67.916ZM204.861 65.1562L204.738 65.918L203.736 65.9121C203.525 65.9121 203.303 65.9277 203.068 65.959C202.834 65.9902 202.611 66.0488 202.4 66.1348C202.189 66.2207 202.012 66.3457 201.867 66.5098C201.723 66.6699 201.635 66.8789 201.604 67.1367C201.58 67.3477 201.605 67.5312 201.68 67.6875C201.758 67.8398 201.875 67.959 202.031 68.0449C202.188 68.1309 202.369 68.1758 202.576 68.1797C202.846 68.1836 203.111 68.1309 203.373 68.0215C203.635 67.9121 203.863 67.7559 204.059 67.5527C204.254 67.3496 204.389 67.1152 204.463 66.8496L204.85 67.3711C204.775 67.6289 204.654 67.8672 204.486 68.0859C204.318 68.3008 204.119 68.4863 203.889 68.6426C203.662 68.7988 203.418 68.9199 203.156 69.0059C202.895 69.0918 202.633 69.1328 202.371 69.1289C202.016 69.1211 201.693 69.041 201.404 68.8887C201.119 68.7363 200.893 68.5234 200.725 68.25C200.561 67.9727 200.49 67.6504 200.514 67.2832C200.537 66.8809 200.643 66.543 200.83 66.2695C201.018 65.9961 201.258 65.7773 201.551 65.6133C201.848 65.4492 202.172 65.332 202.523 65.2617C202.875 65.1875 203.223 65.1504 203.566 65.1504L204.861 65.1562ZM211.799 62.6602H212.771L211.711 68.8594C211.637 69.3867 211.467 69.8516 211.201 70.2539C210.939 70.6562 210.596 70.9688 210.17 71.1914C209.748 71.4141 209.266 71.5195 208.723 71.5078C208.438 71.5 208.158 71.4512 207.885 71.3613C207.611 71.2715 207.359 71.1445 207.129 70.9805C206.898 70.8164 206.705 70.6152 206.549 70.377L207.158 69.7441C207.342 70.0059 207.559 70.2129 207.809 70.3652C208.062 70.5215 208.352 70.6055 208.676 70.6172C209.031 70.625 209.346 70.5586 209.619 70.418C209.896 70.2812 210.121 70.084 210.293 69.8262C210.469 69.5684 210.584 69.2656 210.639 68.918L211.471 64.002L211.799 62.6602ZM207.012 65.9473L207.029 65.8184C207.076 65.4277 207.168 65.0371 207.305 64.6465C207.445 64.2559 207.633 63.9004 207.867 63.5801C208.102 63.2559 208.389 63 208.729 62.8125C209.068 62.6211 209.465 62.5293 209.918 62.5371C210.328 62.5488 210.67 62.6445 210.943 62.8242C211.217 63.0039 211.432 63.2422 211.588 63.5391C211.748 63.832 211.855 64.1543 211.91 64.5059C211.969 64.8574 211.986 65.2109 211.963 65.5664L211.898 66.1055C211.832 66.4844 211.723 66.8555 211.57 67.2188C211.418 67.582 211.221 67.9102 210.979 68.2031C210.736 68.4922 210.447 68.7207 210.111 68.8887C209.779 69.0566 209.4 69.1348 208.975 69.123C208.557 69.1074 208.211 69 207.938 68.8008C207.668 68.6016 207.459 68.3457 207.311 68.0332C207.162 67.7168 207.066 67.377 207.023 67.0137C206.98 66.6465 206.977 66.291 207.012 65.9473ZM208.096 65.8125L208.078 65.9414C208.051 66.1758 208.043 66.4219 208.055 66.6797C208.066 66.9375 208.111 67.1816 208.189 67.4121C208.268 67.6387 208.393 67.8262 208.564 67.9746C208.74 68.1191 208.979 68.1953 209.279 68.2031C209.6 68.2148 209.896 68.1445 210.17 67.9922C210.443 67.8398 210.678 67.6367 210.873 67.3828C211.068 67.1289 211.209 66.8535 211.295 66.5566L211.523 65.1328C211.535 64.918 211.51 64.7109 211.447 64.5117C211.385 64.3125 211.291 64.1348 211.166 63.9785C211.045 63.8223 210.896 63.6973 210.721 63.6035C210.545 63.5098 210.346 63.4609 210.123 63.457C209.795 63.4453 209.512 63.5098 209.273 63.6504C209.035 63.7871 208.834 63.9727 208.67 64.207C208.51 64.4414 208.383 64.6992 208.289 64.9805C208.195 65.2617 208.131 65.5391 208.096 65.8125ZM215.941 69.1172C215.508 69.1094 215.131 69.0234 214.811 68.8594C214.494 68.6914 214.234 68.4668 214.031 68.1855C213.832 67.9004 213.689 67.5762 213.604 67.2129C213.518 66.8496 213.492 66.4688 213.527 66.0703L213.551 65.8184C213.59 65.4121 213.689 65.0137 213.85 64.623C214.01 64.2285 214.223 63.873 214.488 63.5566C214.758 63.2402 215.074 62.9902 215.438 62.8066C215.805 62.6191 216.211 62.5312 216.656 62.543C217.098 62.5508 217.465 62.6445 217.758 62.8242C218.051 63.0039 218.279 63.2422 218.443 63.5391C218.611 63.832 218.721 64.1621 218.771 64.5293C218.822 64.8926 218.826 65.2656 218.783 65.6484L218.719 66.1348H214.119L214.26 65.25L217.77 65.2559L217.787 65.1621C217.826 64.8809 217.811 64.6094 217.74 64.3477C217.67 64.0859 217.541 63.8711 217.354 63.7031C217.17 63.5312 216.922 63.4414 216.609 63.4336C216.285 63.4219 216.004 63.4883 215.766 63.6328C215.527 63.7734 215.328 63.9648 215.168 64.207C215.008 64.4453 214.881 64.707 214.787 64.9922C214.697 65.2734 214.635 65.5488 214.6 65.8184L214.576 66.0645C214.553 66.3145 214.561 66.5664 214.6 66.8203C214.639 67.0742 214.713 67.3066 214.822 67.5176C214.936 67.7246 215.092 67.8945 215.291 68.0273C215.49 68.1562 215.736 68.2246 216.029 68.2324C216.385 68.2402 216.703 68.1641 216.984 68.0039C217.27 67.8398 217.529 67.6328 217.764 67.3828L218.367 67.8984C218.184 68.168 217.965 68.3945 217.711 68.5781C217.457 68.7617 217.18 68.8984 216.879 68.9883C216.578 69.0781 216.266 69.1211 215.941 69.1172ZM224.145 67.8223L226.605 62.6602H227.338L226.998 63.7559L224.502 69H223.787L224.145 67.8223ZM223.975 62.6602L224.414 67.998L224.326 69H223.635L222.949 62.6602H223.975ZM227.936 67.834L230.098 62.6602H231.188L228.305 69H227.561L227.936 67.834ZM227.461 62.6602L228.129 67.8516L228.094 69H227.443L226.705 63.6211L226.746 62.6602H227.461ZM233.391 62.6602L232.289 69H231.229L232.33 62.6602H233.391ZM232.541 60.9961C232.541 60.8125 232.598 60.6602 232.711 60.5391C232.828 60.4141 232.979 60.3496 233.162 60.3457C233.346 60.3418 233.496 60.3984 233.613 60.5156C233.734 60.6328 233.793 60.7812 233.789 60.9609C233.789 61.1406 233.729 61.291 233.607 61.4121C233.49 61.5293 233.342 61.5898 233.162 61.5938C232.982 61.5977 232.834 61.5449 232.717 61.4355C232.6 61.3223 232.541 61.1758 232.541 60.9961ZM237.662 62.6602L237.516 63.4922H234.182L234.328 62.6602H237.662ZM235.723 61.1191H236.777L235.705 67.4414C235.693 67.5781 235.697 67.7012 235.717 67.8105C235.736 67.9199 235.783 68.0078 235.857 68.0742C235.932 68.1367 236.045 68.1699 236.197 68.1738C236.283 68.1738 236.367 68.168 236.449 68.1562C236.535 68.1406 236.621 68.127 236.707 68.1152L236.631 69.0059C236.506 69.041 236.377 69.0664 236.244 69.082C236.115 69.1016 235.986 69.1094 235.857 69.1055C235.533 69.1016 235.279 69.0195 235.096 68.8594C234.912 68.6992 234.787 68.4922 234.721 68.2383C234.654 67.9844 234.635 67.7129 234.662 67.4238L235.723 61.1191ZM240.41 60L238.846 69H237.785L239.35 60H240.41ZM239.209 65.5898L238.775 65.5781C238.83 65.1992 238.93 64.8281 239.074 64.4648C239.223 64.0977 239.416 63.7676 239.654 63.4746C239.896 63.1816 240.184 62.9512 240.516 62.7832C240.852 62.6113 241.234 62.5312 241.664 62.543C242.004 62.5508 242.287 62.6172 242.514 62.7422C242.744 62.8633 242.924 63.0293 243.053 63.2402C243.182 63.4512 243.268 63.6953 243.311 63.9727C243.354 64.2461 243.357 64.5371 243.322 64.8457L242.631 69H241.564L242.268 64.8281C242.295 64.5742 242.285 64.3457 242.238 64.1426C242.195 63.9355 242.098 63.7715 241.945 63.6504C241.797 63.5254 241.582 63.459 241.301 63.4512C241.004 63.4434 240.736 63.5 240.498 63.6211C240.26 63.7422 240.051 63.9082 239.871 64.1191C239.695 64.3262 239.551 64.5586 239.438 64.8164C239.328 65.0703 239.252 65.3281 239.209 65.5898ZM250.98 67.916L251.508 64.6406C251.535 64.3984 251.512 64.1855 251.438 64.002C251.367 63.8184 251.248 63.6758 251.08 63.5742C250.916 63.4727 250.709 63.418 250.459 63.4102C250.24 63.4062 250.025 63.4414 249.814 63.5156C249.607 63.5898 249.428 63.7012 249.275 63.8496C249.123 63.998 249.023 64.1855 248.977 64.4121L247.922 64.418C247.949 64.1016 248.049 63.8262 248.221 63.5918C248.393 63.3535 248.607 63.1562 248.865 63C249.123 62.8398 249.4 62.7227 249.697 62.6484C249.994 62.5703 250.283 62.5332 250.564 62.5371C250.99 62.5449 251.359 62.6367 251.672 62.8125C251.988 62.9844 252.227 63.2266 252.387 63.5391C252.547 63.8516 252.605 64.2266 252.562 64.6641L252.076 67.6172C252.041 67.832 252.02 68.0488 252.012 68.2676C252.008 68.4824 252.033 68.6934 252.088 68.9004L252.076 69L251.004 69.0059C250.961 68.8262 250.939 68.6445 250.939 68.4609C250.943 68.2773 250.957 68.0957 250.98 67.916ZM251.631 65.1562L251.508 65.918L250.506 65.9121C250.295 65.9121 250.072 65.9277 249.838 65.959C249.604 65.9902 249.381 66.0488 249.17 66.1348C248.959 66.2207 248.781 66.3457 248.637 66.5098C248.492 66.6699 248.404 66.8789 248.373 67.1367C248.35 67.3477 248.375 67.5312 248.449 67.6875C248.527 67.8398 248.645 67.959 248.801 68.0449C248.957 68.1309 249.139 68.1758 249.346 68.1797C249.615 68.1836 249.881 68.1309 250.143 68.0215C250.404 67.9121 250.633 67.7559 250.828 67.5527C251.023 67.3496 251.158 67.1152 251.232 66.8496L251.619 67.3711C251.545 67.6289 251.424 67.8672 251.256 68.0859C251.088 68.3008 250.889 68.4863 250.658 68.6426C250.432 68.7988 250.188 68.9199 249.926 69.0059C249.664 69.0918 249.402 69.1328 249.141 69.1289C248.785 69.1211 248.463 69.041 248.174 68.8887C247.889 68.7363 247.662 68.5234 247.494 68.25C247.33 67.9727 247.26 67.6504 247.283 67.2832C247.307 66.8809 247.412 66.543 247.6 66.2695C247.787 65.9961 248.027 65.7773 248.32 65.6133C248.617 65.4492 248.941 65.332 249.293 65.2617C249.645 65.1875 249.992 65.1504 250.336 65.1504L251.631 65.1562ZM262.816 60.4688H263.918L262.934 66.2285C262.848 66.8223 262.646 67.3379 262.33 67.7754C262.014 68.2129 261.611 68.5508 261.123 68.7891C260.639 69.0234 260.098 69.1348 259.5 69.123C258.934 69.1113 258.445 68.9844 258.035 68.7422C257.629 68.5 257.326 68.166 257.127 67.7402C256.932 67.3105 256.867 66.8105 256.934 66.2402L257.918 60.4688H259.008L258.029 66.2461C257.986 66.6172 258.012 66.9473 258.105 67.2363C258.203 67.5254 258.371 67.7559 258.609 67.9277C258.852 68.0957 259.168 68.1855 259.559 68.1973C259.973 68.209 260.338 68.1367 260.654 67.9805C260.975 67.8203 261.234 67.5918 261.434 67.2949C261.637 66.998 261.77 66.6465 261.832 66.2402L262.816 60.4688ZM265.629 60.4688L268.301 60.4746C268.82 60.4863 269.279 60.5859 269.678 60.7734C270.076 60.9609 270.379 61.2383 270.586 61.6055C270.797 61.9688 270.879 62.4277 270.832 62.9824C270.793 63.4238 270.668 63.8047 270.457 64.125C270.25 64.4414 269.982 64.707 269.654 64.9219C269.326 65.1328 268.963 65.3008 268.564 65.4258L268.236 65.543H265.588L265.74 64.623L267.621 64.6289C267.965 64.6289 268.287 64.5664 268.588 64.4414C268.893 64.3164 269.146 64.1328 269.35 63.8906C269.557 63.6445 269.684 63.3418 269.73 62.9824C269.773 62.6387 269.74 62.3516 269.631 62.1211C269.521 61.8906 269.35 61.7148 269.115 61.5938C268.885 61.4727 268.605 61.4082 268.277 61.4004L266.572 61.3945L265.254 69H264.146L265.629 60.4688ZM269.016 69L267.674 65.1328L268.764 65.127L270.193 68.9238L270.188 69H269.016ZM276.51 68.0801L276.346 69H272.203L272.361 68.0801H276.51ZM273.908 60.4688L272.426 69H271.318L272.801 60.4688H273.908ZM284.215 67.916L284.742 64.6406C284.77 64.3984 284.746 64.1855 284.672 64.002C284.602 63.8184 284.482 63.6758 284.314 63.5742C284.15 63.4727 283.943 63.418 283.693 63.4102C283.475 63.4062 283.26 63.4414 283.049 63.5156C282.842 63.5898 282.662 63.7012 282.51 63.8496C282.357 63.998 282.258 64.1855 282.211 64.4121L281.156 64.418C281.184 64.1016 281.283 63.8262 281.455 63.5918C281.627 63.3535 281.842 63.1562 282.1 63C282.357 62.8398 282.635 62.7227 282.932 62.6484C283.229 62.5703 283.518 62.5332 283.799 62.5371C284.225 62.5449 284.594 62.6367 284.906 62.8125C285.223 62.9844 285.461 63.2266 285.621 63.5391C285.781 63.8516 285.84 64.2266 285.797 64.6641L285.311 67.6172C285.275 67.832 285.254 68.0488 285.246 68.2676C285.242 68.4824 285.268 68.6934 285.322 68.9004L285.311 69L284.238 69.0059C284.195 68.8262 284.174 68.6445 284.174 68.4609C284.178 68.2773 284.191 68.0957 284.215 67.916ZM284.865 65.1562L284.742 65.918L283.74 65.9121C283.529 65.9121 283.307 65.9277 283.072 65.959C282.838 65.9902 282.615 66.0488 282.404 66.1348C282.193 66.2207 282.016 66.3457 281.871 66.5098C281.727 66.6699 281.639 66.8789 281.607 67.1367C281.584 67.3477 281.609 67.5312 281.684 67.6875C281.762 67.8398 281.879 67.959 282.035 68.0449C282.191 68.1309 282.373 68.1758 282.58 68.1797C282.85 68.1836 283.115 68.1309 283.377 68.0215C283.639 67.9121 283.867 67.7559 284.062 67.5527C284.258 67.3496 284.393 67.1152 284.467 66.8496L284.854 67.3711C284.779 67.6289 284.658 67.8672 284.49 68.0859C284.322 68.3008 284.123 68.4863 283.893 68.6426C283.666 68.7988 283.422 68.9199 283.16 69.0059C282.898 69.0918 282.637 69.1328 282.375 69.1289C282.02 69.1211 281.697 69.041 281.408 68.8887C281.123 68.7363 280.896 68.5234 280.729 68.25C280.564 67.9727 280.494 67.6504 280.518 67.2832C280.541 66.8809 280.646 66.543 280.834 66.2695C281.021 65.9961 281.262 65.7773 281.555 65.6133C281.852 65.4492 282.176 65.332 282.527 65.2617C282.879 65.1875 283.227 65.1504 283.57 65.1504L284.865 65.1562ZM288.639 64.0781L287.783 69H286.723L287.824 62.6602H288.826L288.639 64.0781ZM288.146 65.5898L287.713 65.5781C287.768 65.1992 287.867 64.8281 288.012 64.4648C288.16 64.0977 288.354 63.7676 288.592 63.4746C288.834 63.1816 289.121 62.9512 289.453 62.7832C289.789 62.6113 290.172 62.5312 290.602 62.543C290.941 62.5508 291.225 62.6172 291.451 62.7422C291.682 62.8633 291.861 63.0293 291.99 63.2402C292.119 63.4512 292.205 63.6953 292.248 63.9727C292.291 64.2461 292.295 64.5371 292.26 64.8457L291.568 69H290.502L291.205 64.8281C291.232 64.5742 291.223 64.3457 291.176 64.1426C291.133 63.9355 291.035 63.7715 290.883 63.6504C290.734 63.5254 290.52 63.459 290.238 63.4512C289.941 63.4434 289.674 63.5 289.436 63.6211C289.197 63.7422 288.988 63.9082 288.809 64.1191C288.633 64.3262 288.488 64.5586 288.375 64.8164C288.266 65.0703 288.189 65.3281 288.146 65.5898ZM297.258 67.7051L298.594 60H299.66L298.096 69H297.129L297.258 67.7051ZM293.438 65.9473L293.449 65.8242C293.5 65.4336 293.594 65.043 293.73 64.6523C293.871 64.2617 294.061 63.9043 294.299 63.5801C294.537 63.2559 294.826 62.998 295.166 62.8066C295.506 62.6152 295.902 62.5254 296.355 62.5371C296.762 62.5488 297.102 62.6445 297.375 62.8242C297.648 63.0039 297.863 63.2422 298.02 63.5391C298.18 63.832 298.287 64.1543 298.342 64.5059C298.4 64.8574 298.418 65.2109 298.395 65.5664L298.33 66.1055C298.264 66.4844 298.154 66.8555 298.002 67.2188C297.85 67.582 297.652 67.9102 297.41 68.2031C297.172 68.4922 296.885 68.7207 296.549 68.8887C296.217 69.0566 295.836 69.1348 295.406 69.123C294.992 69.1074 294.648 69 294.375 68.8008C294.105 68.6016 293.895 68.3457 293.742 68.0332C293.594 67.7168 293.496 67.377 293.449 67.0137C293.406 66.6465 293.402 66.291 293.438 65.9473ZM294.527 65.8125L294.516 65.9355C294.488 66.1699 294.479 66.418 294.486 66.6797C294.498 66.9375 294.543 67.1816 294.621 67.4121C294.699 67.6387 294.826 67.8262 295.002 67.9746C295.178 68.1191 295.416 68.1973 295.717 68.209C296.037 68.2168 296.334 68.1445 296.607 67.9922C296.881 67.8398 297.115 67.6367 297.311 67.3828C297.506 67.1289 297.646 66.8535 297.732 66.5566L297.961 65.1328C297.973 64.918 297.947 64.7129 297.885 64.5176C297.822 64.3184 297.729 64.1406 297.604 63.9844C297.482 63.8281 297.332 63.7031 297.152 63.6094C296.977 63.5117 296.779 63.4609 296.561 63.457C296.232 63.4453 295.949 63.5098 295.711 63.6504C295.473 63.7871 295.271 63.9727 295.107 64.207C294.947 64.4375 294.82 64.6934 294.727 64.9746C294.633 65.2559 294.566 65.5352 294.527 65.8125ZM134.9 76L133.336 85H132.275L133.834 76H134.9ZM137.707 85.1172C137.273 85.1094 136.896 85.0234 136.576 84.8594C136.26 84.6914 136 84.4668 135.797 84.1855C135.598 83.9004 135.455 83.5762 135.369 83.2129C135.283 82.8496 135.258 82.4688 135.293 82.0703L135.316 81.8184C135.355 81.4121 135.455 81.0137 135.615 80.623C135.775 80.2285 135.988 79.873 136.254 79.5566C136.523 79.2402 136.84 78.9902 137.203 78.8066C137.57 78.6191 137.977 78.5312 138.422 78.543C138.863 78.5508 139.23 78.6445 139.523 78.8242C139.816 79.0039 140.045 79.2422 140.209 79.5391C140.377 79.832 140.486 80.1621 140.537 80.5293C140.588 80.8926 140.592 81.2656 140.549 81.6484L140.484 82.1348H135.885L136.025 81.25L139.535 81.2559L139.553 81.1621C139.592 80.8809 139.576 80.6094 139.506 80.3477C139.436 80.0859 139.307 79.8711 139.119 79.7031C138.936 79.5312 138.688 79.4414 138.375 79.4336C138.051 79.4219 137.77 79.4883 137.531 79.6328C137.293 79.7734 137.094 79.9648 136.934 80.207C136.773 80.4453 136.646 80.707 136.553 80.9922C136.463 81.2734 136.4 81.5488 136.365 81.8184L136.342 82.0645C136.318 82.3145 136.326 82.5664 136.365 82.8203C136.404 83.0742 136.479 83.3066 136.588 83.5176C136.701 83.7246 136.857 83.8945 137.057 84.0273C137.256 84.1562 137.502 84.2246 137.795 84.2324C138.15 84.2402 138.469 84.1641 138.75 84.0039C139.035 83.8398 139.295 83.6328 139.529 83.3828L140.133 83.8984C139.949 84.168 139.73 84.3945 139.477 84.5781C139.223 84.7617 138.945 84.8984 138.645 84.9883C138.344 85.0781 138.031 85.1211 137.707 85.1172ZM144.885 78.6602L144.738 79.4922H141.404L141.551 78.6602H144.885ZM142.945 77.1191H144L142.928 83.4414C142.916 83.5781 142.92 83.7012 142.939 83.8105C142.959 83.9199 143.006 84.0078 143.08 84.0742C143.154 84.1367 143.268 84.1699 143.42 84.1738C143.506 84.1738 143.59 84.168 143.672 84.1562C143.758 84.1406 143.844 84.127 143.93 84.1152L143.854 85.0059C143.729 85.041 143.6 85.0664 143.467 85.082C143.338 85.1016 143.209 85.1094 143.08 85.1055C142.756 85.1016 142.502 85.0195 142.318 84.8594C142.135 84.6992 142.01 84.4922 141.943 84.2383C141.877 83.9844 141.857 83.7129 141.885 83.4238L142.945 77.1191ZM153.562 82.293L154.646 82.2812C154.529 82.8672 154.309 83.375 153.984 83.8047C153.664 84.2344 153.26 84.5645 152.771 84.7949C152.287 85.0254 151.744 85.1328 151.143 85.1172C150.604 85.1055 150.15 84.9824 149.783 84.748C149.42 84.5137 149.135 84.2051 148.928 83.8223C148.725 83.4395 148.59 83.0176 148.523 82.5566C148.461 82.0957 148.461 81.6309 148.523 81.1621L148.646 80.3125C148.725 79.7969 148.865 79.3008 149.068 78.8242C149.275 78.3438 149.543 77.916 149.871 77.541C150.203 77.166 150.594 76.8711 151.043 76.6562C151.496 76.4414 152.01 76.3398 152.584 76.3516C153.158 76.3633 153.639 76.4922 154.025 76.7383C154.412 76.9844 154.705 77.3203 154.904 77.7461C155.107 78.1719 155.217 78.6602 155.232 79.2109H154.143C154.131 78.8516 154.074 78.5273 153.973 78.2383C153.871 77.9492 153.705 77.7188 153.475 77.5469C153.244 77.375 152.932 77.2832 152.537 77.2715C152.107 77.2598 151.73 77.3398 151.406 77.5117C151.086 77.6836 150.812 77.918 150.586 78.2148C150.359 78.5078 150.178 78.8359 150.041 79.1992C149.904 79.5625 149.807 79.9297 149.748 80.3008L149.619 81.168C149.576 81.4766 149.561 81.8047 149.572 82.1523C149.584 82.4961 149.641 82.8223 149.742 83.1309C149.848 83.4355 150.016 83.6875 150.246 83.8867C150.48 84.082 150.797 84.1855 151.195 84.1973C151.633 84.2129 152.006 84.1445 152.314 83.9922C152.623 83.8398 152.879 83.6191 153.082 83.3301C153.285 83.0371 153.445 82.6914 153.562 82.293ZM158.256 76L156.691 85H155.631L157.189 76H158.256ZM162.211 83.916L162.738 80.6406C162.766 80.3984 162.742 80.1855 162.668 80.002C162.598 79.8184 162.479 79.6758 162.311 79.5742C162.146 79.4727 161.939 79.418 161.689 79.4102C161.471 79.4062 161.256 79.4414 161.045 79.5156C160.838 79.5898 160.658 79.7012 160.506 79.8496C160.354 79.998 160.254 80.1855 160.207 80.4121L159.152 80.418C159.18 80.1016 159.279 79.8262 159.451 79.5918C159.623 79.3535 159.838 79.1562 160.096 79C160.354 78.8398 160.631 78.7227 160.928 78.6484C161.225 78.5703 161.514 78.5332 161.795 78.5371C162.221 78.5449 162.59 78.6367 162.902 78.8125C163.219 78.9844 163.457 79.2266 163.617 79.5391C163.777 79.8516 163.836 80.2266 163.793 80.6641L163.307 83.6172C163.271 83.832 163.25 84.0488 163.242 84.2676C163.238 84.4824 163.264 84.6934 163.318 84.9004L163.307 85L162.234 85.0059C162.191 84.8262 162.17 84.6445 162.17 84.4609C162.174 84.2773 162.188 84.0957 162.211 83.916ZM162.861 81.1562L162.738 81.918L161.736 81.9121C161.525 81.9121 161.303 81.9277 161.068 81.959C160.834 81.9902 160.611 82.0488 160.4 82.1348C160.189 82.2207 160.012 82.3457 159.867 82.5098C159.723 82.6699 159.635 82.8789 159.604 83.1367C159.58 83.3477 159.605 83.5312 159.68 83.6875C159.758 83.8398 159.875 83.959 160.031 84.0449C160.188 84.1309 160.369 84.1758 160.576 84.1797C160.846 84.1836 161.111 84.1309 161.373 84.0215C161.635 83.9121 161.863 83.7559 162.059 83.5527C162.254 83.3496 162.389 83.1152 162.463 82.8496L162.85 83.3711C162.775 83.6289 162.654 83.8672 162.486 84.0859C162.318 84.3008 162.119 84.4863 161.889 84.6426C161.662 84.7988 161.418 84.9199 161.156 85.0059C160.895 85.0918 160.633 85.1328 160.371 85.1289C160.016 85.1211 159.693 85.041 159.404 84.8887C159.119 84.7363 158.893 84.5234 158.725 84.25C158.561 83.9727 158.49 83.6504 158.514 83.2832C158.537 82.8809 158.643 82.543 158.83 82.2695C159.018 81.9961 159.258 81.7773 159.551 81.6133C159.848 81.4492 160.172 81.332 160.523 81.2617C160.875 81.1875 161.223 81.1504 161.566 81.1504L162.861 81.1562ZM168.633 83.2832C168.668 83.041 168.623 82.8516 168.498 82.7148C168.377 82.5781 168.217 82.4746 168.018 82.4043C167.822 82.3301 167.631 82.2695 167.443 82.2227C167.209 82.1641 166.973 82.0918 166.734 82.0059C166.496 81.9199 166.277 81.8105 166.078 81.6777C165.883 81.541 165.727 81.373 165.609 81.1738C165.496 80.9707 165.445 80.7246 165.457 80.4355C165.473 80.123 165.555 79.8477 165.703 79.6094C165.855 79.3711 166.051 79.1719 166.289 79.0117C166.531 78.8516 166.795 78.7324 167.08 78.6543C167.365 78.5762 167.648 78.5391 167.93 78.543C168.328 78.5508 168.689 78.6328 169.014 78.7891C169.342 78.9453 169.602 79.1699 169.793 79.4629C169.984 79.7559 170.074 80.1113 170.062 80.5293L169.014 80.5234C169.021 80.3008 168.977 80.1094 168.879 79.9492C168.781 79.7891 168.646 79.666 168.475 79.5801C168.303 79.4902 168.107 79.4434 167.889 79.4395C167.682 79.4355 167.479 79.4688 167.279 79.5391C167.08 79.6055 166.91 79.7109 166.77 79.8555C166.629 79.9961 166.543 80.1797 166.512 80.4062C166.488 80.5742 166.514 80.7129 166.588 80.8223C166.662 80.9277 166.764 81.0137 166.893 81.0801C167.025 81.1426 167.164 81.1953 167.309 81.2383C167.457 81.2773 167.592 81.3125 167.713 81.3438C168.033 81.4336 168.35 81.5469 168.662 81.6836C168.975 81.8203 169.229 82.0098 169.424 82.252C169.619 82.4902 169.707 82.8047 169.688 83.1953C169.672 83.5273 169.584 83.8164 169.424 84.0625C169.268 84.3047 169.064 84.5059 168.814 84.666C168.568 84.8223 168.297 84.9375 168 85.0117C167.703 85.0859 167.406 85.1211 167.109 85.1172C166.699 85.1094 166.316 85.0254 165.961 84.8652C165.609 84.7012 165.328 84.4668 165.117 84.1621C164.906 83.8535 164.807 83.4785 164.818 83.0371L165.879 83.043C165.879 83.2969 165.932 83.5117 166.037 83.6875C166.146 83.8594 166.297 83.9902 166.488 84.0801C166.68 84.1699 166.898 84.2168 167.145 84.2207C167.352 84.2246 167.562 84.1973 167.777 84.1387C167.996 84.0801 168.184 83.9824 168.34 83.8457C168.5 83.7051 168.598 83.5176 168.633 83.2832ZM174.645 83.2832C174.68 83.041 174.635 82.8516 174.51 82.7148C174.389 82.5781 174.229 82.4746 174.029 82.4043C173.834 82.3301 173.643 82.2695 173.455 82.2227C173.221 82.1641 172.984 82.0918 172.746 82.0059C172.508 81.9199 172.289 81.8105 172.09 81.6777C171.895 81.541 171.738 81.373 171.621 81.1738C171.508 80.9707 171.457 80.7246 171.469 80.4355C171.484 80.123 171.566 79.8477 171.715 79.6094C171.867 79.3711 172.062 79.1719 172.301 79.0117C172.543 78.8516 172.807 78.7324 173.092 78.6543C173.377 78.5762 173.66 78.5391 173.941 78.543C174.34 78.5508 174.701 78.6328 175.025 78.7891C175.354 78.9453 175.613 79.1699 175.805 79.4629C175.996 79.7559 176.086 80.1113 176.074 80.5293L175.025 80.5234C175.033 80.3008 174.988 80.1094 174.891 79.9492C174.793 79.7891 174.658 79.666 174.486 79.5801C174.314 79.4902 174.119 79.4434 173.9 79.4395C173.693 79.4355 173.49 79.4688 173.291 79.5391C173.092 79.6055 172.922 79.7109 172.781 79.8555C172.641 79.9961 172.555 80.1797 172.523 80.4062C172.5 80.5742 172.525 80.7129 172.6 80.8223C172.674 80.9277 172.775 81.0137 172.904 81.0801C173.037 81.1426 173.176 81.1953 173.32 81.2383C173.469 81.2773 173.604 81.3125 173.725 81.3438C174.045 81.4336 174.361 81.5469 174.674 81.6836C174.986 81.8203 175.24 82.0098 175.436 82.252C175.631 82.4902 175.719 82.8047 175.699 83.1953C175.684 83.5273 175.596 83.8164 175.436 84.0625C175.279 84.3047 175.076 84.5059 174.826 84.666C174.58 84.8223 174.309 84.9375 174.012 85.0117C173.715 85.0859 173.418 85.1211 173.121 85.1172C172.711 85.1094 172.328 85.0254 171.973 84.8652C171.621 84.7012 171.34 84.4668 171.129 84.1621C170.918 83.8535 170.818 83.4785 170.83 83.0371L171.891 83.043C171.891 83.2969 171.943 83.5117 172.049 83.6875C172.158 83.8594 172.309 83.9902 172.5 84.0801C172.691 84.1699 172.91 84.2168 173.156 84.2207C173.363 84.2246 173.574 84.1973 173.789 84.1387C174.008 84.0801 174.195 83.9824 174.352 83.8457C174.512 83.7051 174.609 83.5176 174.645 83.2832ZM178.992 78.6602L177.891 85H176.83L177.932 78.6602H178.992ZM178.143 76.9961C178.143 76.8125 178.199 76.6602 178.312 76.5391C178.43 76.4141 178.58 76.3496 178.764 76.3457C178.947 76.3418 179.098 76.3984 179.215 76.5156C179.336 76.6328 179.395 76.7812 179.391 76.9609C179.391 77.1406 179.33 77.291 179.209 77.4121C179.092 77.5293 178.943 77.5898 178.764 77.5938C178.584 77.5977 178.436 77.5449 178.318 77.4355C178.201 77.3223 178.143 77.1758 178.143 76.9961ZM181.154 85H180.094L181.289 77.998C181.344 77.5723 181.469 77.1992 181.664 76.8789C181.859 76.5547 182.119 76.3027 182.443 76.123C182.768 75.9434 183.152 75.8555 183.598 75.8594C183.727 75.8633 183.855 75.875 183.984 75.8945C184.113 75.9102 184.24 75.9316 184.365 75.959L184.236 76.8496C184.146 76.8301 184.053 76.8145 183.955 76.8027C183.861 76.791 183.768 76.7832 183.674 76.7793C183.424 76.7793 183.207 76.832 183.023 76.9375C182.84 77.0391 182.691 77.1816 182.578 77.3652C182.469 77.5449 182.395 77.7539 182.355 77.9922L181.154 85ZM183.562 78.6602L183.416 79.4922H180.076L180.229 78.6602H183.562ZM187.664 83.4766L188.496 78.6602H189.562L188.461 85H187.447L187.664 83.4766ZM188.062 82.1992L188.496 82.1816C188.445 82.5801 188.355 82.959 188.227 83.3184C188.098 83.6738 187.922 83.9902 187.699 84.2676C187.48 84.541 187.207 84.7559 186.879 84.9121C186.555 85.0645 186.17 85.1348 185.725 85.123C185.377 85.1113 185.086 85.041 184.852 84.9121C184.621 84.7832 184.439 84.6094 184.307 84.3906C184.174 84.1719 184.086 83.9219 184.043 83.6406C184 83.3594 183.994 83.0625 184.025 82.75L184.711 78.6602H185.771L185.086 82.7676C185.07 82.9395 185.068 83.1094 185.08 83.2773C185.092 83.4414 185.127 83.5918 185.186 83.7285C185.244 83.8652 185.334 83.9766 185.455 84.0625C185.58 84.1445 185.744 84.1895 185.947 84.1973C186.369 84.2129 186.727 84.1348 187.02 83.9629C187.312 83.7871 187.545 83.5449 187.717 83.2363C187.889 82.9277 188.004 82.582 188.062 82.1992ZM192.035 79.7031L191.115 85H190.055L191.156 78.6602H192.188L192.035 79.7031ZM194.092 78.6074L193.992 79.627C193.91 79.6113 193.826 79.5977 193.74 79.5859C193.658 79.5742 193.576 79.5684 193.494 79.5684C193.24 79.5645 193.012 79.6035 192.809 79.6855C192.609 79.7637 192.432 79.875 192.275 80.0195C192.123 80.1641 191.992 80.334 191.883 80.5293C191.777 80.7246 191.693 80.9355 191.631 81.1621L191.297 81.3379C191.34 81.0215 191.41 80.6973 191.508 80.3652C191.609 80.0332 191.748 79.7266 191.924 79.4453C192.104 79.1641 192.328 78.9375 192.598 78.7656C192.871 78.5938 193.199 78.5137 193.582 78.5254C193.668 78.5254 193.752 78.5332 193.834 78.5488C193.92 78.5645 194.006 78.584 194.092 78.6074ZM196.717 76L195.152 85H194.092L195.65 76H196.717ZM202.436 84.2324C202.693 84.2363 202.934 84.1875 203.156 84.0859C203.379 83.9844 203.568 83.8398 203.725 83.6523C203.881 83.4648 203.992 83.248 204.059 83.002L205.066 82.9961C205.004 83.4219 204.838 83.7949 204.568 84.1152C204.303 84.4355 203.977 84.6855 203.59 84.8652C203.207 85.041 202.807 85.125 202.389 85.1172C201.943 85.1094 201.564 85.0176 201.252 84.8418C200.943 84.6621 200.695 84.4238 200.508 84.127C200.32 83.8301 200.191 83.4961 200.121 83.125C200.051 82.75 200.035 82.3652 200.074 81.9707L200.098 81.7188C200.145 81.293 200.248 80.8887 200.408 80.5059C200.568 80.1191 200.781 79.7773 201.047 79.4805C201.316 79.1797 201.635 78.9453 202.002 78.7773C202.369 78.6094 202.781 78.5312 203.238 78.543C203.684 78.5508 204.07 78.6562 204.398 78.8594C204.727 79.0586 204.98 79.3301 205.16 79.6738C205.34 80.0176 205.43 80.4082 205.43 80.8457L204.434 80.8398C204.43 80.5898 204.381 80.3594 204.287 80.1484C204.193 79.9375 204.055 79.7676 203.871 79.6387C203.688 79.5098 203.461 79.4395 203.191 79.4277C202.867 79.4199 202.584 79.4805 202.342 79.6094C202.104 79.7383 201.9 79.916 201.732 80.1426C201.568 80.3652 201.438 80.6133 201.34 80.8867C201.246 81.1602 201.182 81.4375 201.146 81.7188L201.117 81.9648C201.094 82.2148 201.09 82.4707 201.105 82.7324C201.125 82.9941 201.18 83.2383 201.27 83.4648C201.359 83.6875 201.498 83.8691 201.686 84.0098C201.873 84.1504 202.123 84.2246 202.436 84.2324ZM208.512 76L206.947 85H205.887L207.451 76H208.512ZM207.311 81.5898L206.877 81.5781C206.932 81.1992 207.031 80.8281 207.176 80.4648C207.324 80.0977 207.518 79.7676 207.756 79.4746C207.998 79.1816 208.285 78.9512 208.617 78.7832C208.953 78.6113 209.336 78.5312 209.766 78.543C210.105 78.5508 210.389 78.6172 210.615 78.7422C210.846 78.8633 211.025 79.0293 211.154 79.2402C211.283 79.4512 211.369 79.6953 211.412 79.9727C211.455 80.2461 211.459 80.5371 211.424 80.8457L210.732 85H209.666L210.369 80.8281C210.396 80.5742 210.387 80.3457 210.34 80.1426C210.297 79.9355 210.199 79.7715 210.047 79.6504C209.898 79.5254 209.684 79.459 209.402 79.4512C209.105 79.4434 208.838 79.5 208.6 79.6211C208.361 79.7422 208.152 79.9082 207.973 80.1191C207.797 80.3262 207.652 80.5586 207.539 80.8164C207.43 81.0703 207.354 81.3281 207.311 81.5898ZM214.98 85.1172C214.547 85.1094 214.17 85.0234 213.85 84.8594C213.533 84.6914 213.273 84.4668 213.07 84.1855C212.871 83.9004 212.729 83.5762 212.643 83.2129C212.557 82.8496 212.531 82.4688 212.566 82.0703L212.59 81.8184C212.629 81.4121 212.729 81.0137 212.889 80.623C213.049 80.2285 213.262 79.873 213.527 79.5566C213.797 79.2402 214.113 78.9902 214.477 78.8066C214.844 78.6191 215.25 78.5312 215.695 78.543C216.137 78.5508 216.504 78.6445 216.797 78.8242C217.09 79.0039 217.318 79.2422 217.482 79.5391C217.65 79.832 217.76 80.1621 217.811 80.5293C217.861 80.8926 217.865 81.2656 217.822 81.6484L217.758 82.1348H213.158L213.299 81.25L216.809 81.2559L216.826 81.1621C216.865 80.8809 216.85 80.6094 216.779 80.3477C216.709 80.0859 216.58 79.8711 216.393 79.7031C216.209 79.5312 215.961 79.4414 215.648 79.4336C215.324 79.4219 215.043 79.4883 214.805 79.6328C214.566 79.7734 214.367 79.9648 214.207 80.207C214.047 80.4453 213.92 80.707 213.826 80.9922C213.736 81.2734 213.674 81.5488 213.639 81.8184L213.615 82.0645C213.592 82.3145 213.6 82.5664 213.639 82.8203C213.678 83.0742 213.752 83.3066 213.861 83.5176C213.975 83.7246 214.131 83.8945 214.33 84.0273C214.529 84.1562 214.775 84.2246 215.068 84.2324C215.424 84.2402 215.742 84.1641 216.023 84.0039C216.309 83.8398 216.568 83.6328 216.803 83.3828L217.406 83.8984C217.223 84.168 217.004 84.3945 216.75 84.5781C216.496 84.7617 216.219 84.8984 215.918 84.9883C215.617 85.0781 215.305 85.1211 214.98 85.1172ZM221.115 84.2324C221.373 84.2363 221.613 84.1875 221.836 84.0859C222.059 83.9844 222.248 83.8398 222.404 83.6523C222.561 83.4648 222.672 83.248 222.738 83.002L223.746 82.9961C223.684 83.4219 223.518 83.7949 223.248 84.1152C222.982 84.4355 222.656 84.6855 222.27 84.8652C221.887 85.041 221.486 85.125 221.068 85.1172C220.623 85.1094 220.244 85.0176 219.932 84.8418C219.623 84.6621 219.375 84.4238 219.188 84.127C219 83.8301 218.871 83.4961 218.801 83.125C218.73 82.75 218.715 82.3652 218.754 81.9707L218.777 81.7188C218.824 81.293 218.928 80.8887 219.088 80.5059C219.248 80.1191 219.461 79.7773 219.727 79.4805C219.996 79.1797 220.314 78.9453 220.682 78.7773C221.049 78.6094 221.461 78.5312 221.918 78.543C222.363 78.5508 222.75 78.6562 223.078 78.8594C223.406 79.0586 223.66 79.3301 223.84 79.6738C224.02 80.0176 224.109 80.4082 224.109 80.8457L223.113 80.8398C223.109 80.5898 223.061 80.3594 222.967 80.1484C222.873 79.9375 222.734 79.7676 222.551 79.6387C222.367 79.5098 222.141 79.4395 221.871 79.4277C221.547 79.4199 221.264 79.4805 221.021 79.6094C220.783 79.7383 220.58 79.916 220.412 80.1426C220.248 80.3652 220.117 80.6133 220.02 80.8867C219.926 81.1602 219.861 81.4375 219.826 81.7188L219.797 81.9648C219.773 82.2148 219.77 82.4707 219.785 82.7324C219.805 82.9941 219.859 83.2383 219.949 83.4648C220.039 83.6875 220.178 83.8691 220.365 84.0098C220.553 84.1504 220.803 84.2246 221.115 84.2324ZM227.197 76L225.633 85H224.566L226.131 76H227.197ZM230.537 78.6602L227.396 81.5664L225.504 83.2715L225.633 82.0176L226.898 80.7285L229.154 78.6602H230.537ZM228.469 85L226.758 81.918L227.432 81.0098L229.629 85H228.469ZM235.676 78.6602L234.574 85H233.514L234.615 78.6602H235.676ZM234.826 76.9961C234.826 76.8125 234.883 76.6602 234.996 76.5391C235.113 76.4141 235.264 76.3496 235.447 76.3457C235.631 76.3418 235.781 76.3984 235.898 76.5156C236.02 76.6328 236.078 76.7812 236.074 76.9609C236.074 77.1406 236.014 77.291 235.893 77.4121C235.775 77.5293 235.627 77.5898 235.447 77.5938C235.268 77.5977 235.119 77.5449 235.002 77.4355C234.885 77.3223 234.826 77.1758 234.826 76.9961ZM239.947 78.6602L239.801 79.4922H236.467L236.613 78.6602H239.947ZM238.008 77.1191H239.062L237.99 83.4414C237.979 83.5781 237.982 83.7012 238.002 83.8105C238.021 83.9199 238.068 84.0078 238.143 84.0742C238.217 84.1367 238.33 84.1699 238.482 84.1738C238.568 84.1738 238.652 84.168 238.734 84.1562C238.82 84.1406 238.906 84.127 238.992 84.1152L238.916 85.0059C238.791 85.041 238.662 85.0664 238.529 85.082C238.4 85.1016 238.271 85.1094 238.143 85.1055C237.818 85.1016 237.564 85.0195 237.381 84.8594C237.197 84.6992 237.072 84.4922 237.006 84.2383C236.939 83.9844 236.92 83.7129 236.947 83.4238L238.008 77.1191ZM244.6 85H243.539L244.734 77.998C244.789 77.5723 244.914 77.1992 245.109 76.8789C245.305 76.5547 245.564 76.3027 245.889 76.123C246.213 75.9434 246.598 75.8555 247.043 75.8594C247.172 75.8633 247.301 75.875 247.43 75.8945C247.559 75.9102 247.686 75.9316 247.811 75.959L247.682 76.8496C247.592 76.8301 247.498 76.8145 247.4 76.8027C247.307 76.791 247.213 76.7832 247.119 76.7793C246.869 76.7793 246.652 76.832 246.469 76.9375C246.285 77.0391 246.137 77.1816 246.023 77.3652C245.914 77.5449 245.84 77.7539 245.801 77.9922L244.6 85ZM247.008 78.6602L246.861 79.4922H243.521L243.674 78.6602H247.008ZM247.354 81.9355L247.371 81.8008C247.418 81.375 247.523 80.9648 247.688 80.5703C247.855 80.1758 248.076 79.8242 248.35 79.5156C248.623 79.207 248.947 78.9648 249.322 78.7891C249.697 78.6133 250.115 78.5312 250.576 78.543C251.021 78.5508 251.402 78.6465 251.719 78.8301C252.039 79.0137 252.297 79.2578 252.492 79.5625C252.691 79.8633 252.83 80.2031 252.908 80.582C252.986 80.9609 253.006 81.3516 252.967 81.7539L252.955 81.8887C252.904 82.3145 252.795 82.7227 252.627 83.1133C252.459 83.5039 252.236 83.8516 251.959 84.1562C251.686 84.4609 251.361 84.7012 250.986 84.877C250.611 85.0488 250.195 85.1289 249.738 85.1172C249.297 85.1094 248.916 85.0156 248.596 84.8359C248.279 84.6523 248.023 84.4102 247.828 84.1094C247.633 83.8086 247.496 83.4707 247.418 83.0957C247.34 82.7207 247.318 82.334 247.354 81.9355ZM248.426 81.8008L248.414 81.9414C248.387 82.1875 248.385 82.4434 248.408 82.709C248.436 82.9746 248.498 83.2207 248.596 83.4473C248.697 83.6738 248.844 83.8594 249.035 84.0039C249.227 84.1484 249.475 84.2246 249.779 84.2324C250.104 84.2402 250.389 84.1777 250.635 84.0449C250.881 83.9082 251.09 83.7246 251.262 83.4941C251.438 83.2637 251.576 83.0078 251.678 82.7266C251.783 82.4453 251.854 82.166 251.889 81.8887L251.9 81.7539C251.928 81.5078 251.928 81.252 251.9 80.9863C251.877 80.7168 251.814 80.4668 251.713 80.2363C251.615 80.002 251.471 79.8125 251.279 79.668C251.088 79.5195 250.84 79.4414 250.535 79.4336C250.211 79.4219 249.924 79.4863 249.674 79.627C249.428 79.7637 249.219 79.9492 249.047 80.1836C248.875 80.418 248.736 80.6777 248.631 80.9629C248.529 81.2441 248.461 81.5234 248.426 81.8008ZM255.703 79.7031L254.783 85H253.723L254.824 78.6602H255.855L255.703 79.7031ZM257.76 78.6074L257.66 79.627C257.578 79.6113 257.494 79.5977 257.408 79.5859C257.326 79.5742 257.244 79.5684 257.162 79.5684C256.908 79.5645 256.68 79.6035 256.477 79.6855C256.277 79.7637 256.1 79.875 255.943 80.0195C255.791 80.1641 255.66 80.334 255.551 80.5293C255.445 80.7246 255.361 80.9355 255.299 81.1621L254.965 81.3379C255.008 81.0215 255.078 80.6973 255.176 80.3652C255.277 80.0332 255.416 79.7266 255.592 79.4453C255.771 79.1641 255.996 78.9375 256.266 78.7656C256.539 78.5938 256.867 78.5137 257.25 78.5254C257.336 78.5254 257.42 78.5332 257.502 78.5488C257.588 78.5645 257.674 78.584 257.76 78.6074ZM264.539 83.2832C264.574 83.041 264.529 82.8516 264.404 82.7148C264.283 82.5781 264.123 82.4746 263.924 82.4043C263.729 82.3301 263.537 82.2695 263.35 82.2227C263.115 82.1641 262.879 82.0918 262.641 82.0059C262.402 81.9199 262.184 81.8105 261.984 81.6777C261.789 81.541 261.633 81.373 261.516 81.1738C261.402 80.9707 261.352 80.7246 261.363 80.4355C261.379 80.123 261.461 79.8477 261.609 79.6094C261.762 79.3711 261.957 79.1719 262.195 79.0117C262.438 78.8516 262.701 78.7324 262.986 78.6543C263.271 78.5762 263.555 78.5391 263.836 78.543C264.234 78.5508 264.596 78.6328 264.92 78.7891C265.248 78.9453 265.508 79.1699 265.699 79.4629C265.891 79.7559 265.98 80.1113 265.969 80.5293L264.92 80.5234C264.928 80.3008 264.883 80.1094 264.785 79.9492C264.688 79.7891 264.553 79.666 264.381 79.5801C264.209 79.4902 264.014 79.4434 263.795 79.4395C263.588 79.4355 263.385 79.4688 263.186 79.5391C262.986 79.6055 262.816 79.7109 262.676 79.8555C262.535 79.9961 262.449 80.1797 262.418 80.4062C262.395 80.5742 262.42 80.7129 262.494 80.8223C262.568 80.9277 262.67 81.0137 262.799 81.0801C262.932 81.1426 263.07 81.1953 263.215 81.2383C263.363 81.2773 263.498 81.3125 263.619 81.3438C263.939 81.4336 264.256 81.5469 264.568 81.6836C264.881 81.8203 265.135 82.0098 265.33 82.252C265.525 82.4902 265.613 82.8047 265.594 83.1953C265.578 83.5273 265.49 83.8164 265.33 84.0625C265.174 84.3047 264.971 84.5059 264.721 84.666C264.475 84.8223 264.203 84.9375 263.906 85.0117C263.609 85.0859 263.312 85.1211 263.016 85.1172C262.605 85.1094 262.223 85.0254 261.867 84.8652C261.516 84.7012 261.234 84.4668 261.023 84.1621C260.812 83.8535 260.713 83.4785 260.725 83.0371L261.785 83.043C261.785 83.2969 261.838 83.5117 261.943 83.6875C262.053 83.8594 262.203 83.9902 262.395 84.0801C262.586 84.1699 262.805 84.2168 263.051 84.2207C263.258 84.2246 263.469 84.1973 263.684 84.1387C263.902 84.0801 264.09 83.9824 264.246 83.8457C264.406 83.7051 264.504 83.5176 264.539 83.2832ZM269.32 85.1172C268.887 85.1094 268.51 85.0234 268.189 84.8594C267.873 84.6914 267.613 84.4668 267.41 84.1855C267.211 83.9004 267.068 83.5762 266.982 83.2129C266.896 82.8496 266.871 82.4688 266.906 82.0703L266.93 81.8184C266.969 81.4121 267.068 81.0137 267.229 80.623C267.389 80.2285 267.602 79.873 267.867 79.5566C268.137 79.2402 268.453 78.9902 268.816 78.8066C269.184 78.6191 269.59 78.5312 270.035 78.543C270.477 78.5508 270.844 78.6445 271.137 78.8242C271.43 79.0039 271.658 79.2422 271.822 79.5391C271.99 79.832 272.1 80.1621 272.15 80.5293C272.201 80.8926 272.205 81.2656 272.162 81.6484L272.098 82.1348H267.498L267.639 81.25L271.148 81.2559L271.166 81.1621C271.205 80.8809 271.189 80.6094 271.119 80.3477C271.049 80.0859 270.92 79.8711 270.732 79.7031C270.549 79.5312 270.301 79.4414 269.988 79.4336C269.664 79.4219 269.383 79.4883 269.145 79.6328C268.906 79.7734 268.707 79.9648 268.547 80.207C268.387 80.4453 268.26 80.707 268.166 80.9922C268.076 81.2734 268.014 81.5488 267.979 81.8184L267.955 82.0645C267.932 82.3145 267.939 82.5664 267.979 82.8203C268.018 83.0742 268.092 83.3066 268.201 83.5176C268.314 83.7246 268.471 83.8945 268.67 84.0273C268.869 84.1562 269.115 84.2246 269.408 84.2324C269.764 84.2402 270.082 84.1641 270.363 84.0039C270.648 83.8398 270.908 83.6328 271.143 83.3828L271.746 83.8984C271.562 84.168 271.344 84.3945 271.09 84.5781C270.836 84.7617 270.559 84.8984 270.258 84.9883C269.957 85.0781 269.645 85.1211 269.32 85.1172ZM275.455 84.2324C275.713 84.2363 275.953 84.1875 276.176 84.0859C276.398 83.9844 276.588 83.8398 276.744 83.6523C276.9 83.4648 277.012 83.248 277.078 83.002L278.086 82.9961C278.023 83.4219 277.857 83.7949 277.588 84.1152C277.322 84.4355 276.996 84.6855 276.609 84.8652C276.227 85.041 275.826 85.125 275.408 85.1172C274.963 85.1094 274.584 85.0176 274.271 84.8418C273.963 84.6621 273.715 84.4238 273.527 84.127C273.34 83.8301 273.211 83.4961 273.141 83.125C273.07 82.75 273.055 82.3652 273.094 81.9707L273.117 81.7188C273.164 81.293 273.268 80.8887 273.428 80.5059C273.588 80.1191 273.801 79.7773 274.066 79.4805C274.336 79.1797 274.654 78.9453 275.021 78.7773C275.389 78.6094 275.801 78.5312 276.258 78.543C276.703 78.5508 277.09 78.6562 277.418 78.8594C277.746 79.0586 278 79.3301 278.18 79.6738C278.359 80.0176 278.449 80.4082 278.449 80.8457L277.453 80.8398C277.449 80.5898 277.4 80.3594 277.307 80.1484C277.213 79.9375 277.074 79.7676 276.891 79.6387C276.707 79.5098 276.48 79.4395 276.211 79.4277C275.887 79.4199 275.604 79.4805 275.361 79.6094C275.123 79.7383 274.92 79.916 274.752 80.1426C274.588 80.3652 274.457 80.6133 274.359 80.8867C274.266 81.1602 274.201 81.4375 274.166 81.7188L274.137 81.9648C274.113 82.2148 274.109 82.4707 274.125 82.7324C274.145 82.9941 274.199 83.2383 274.289 83.4648C274.379 83.6875 274.518 83.8691 274.705 84.0098C274.893 84.1504 275.143 84.2246 275.455 84.2324ZM282.938 83.4766L283.77 78.6602H284.836L283.734 85H282.721L282.938 83.4766ZM283.336 82.1992L283.77 82.1816C283.719 82.5801 283.629 82.959 283.5 83.3184C283.371 83.6738 283.195 83.9902 282.973 84.2676C282.754 84.541 282.48 84.7559 282.152 84.9121C281.828 85.0645 281.443 85.1348 280.998 85.123C280.65 85.1113 280.359 85.041 280.125 84.9121C279.895 84.7832 279.713 84.6094 279.58 84.3906C279.447 84.1719 279.359 83.9219 279.316 83.6406C279.273 83.3594 279.268 83.0625 279.299 82.75L279.984 78.6602H281.045L280.359 82.7676C280.344 82.9395 280.342 83.1094 280.354 83.2773C280.365 83.4414 280.4 83.5918 280.459 83.7285C280.518 83.8652 280.607 83.9766 280.729 84.0625C280.854 84.1445 281.018 84.1895 281.221 84.1973C281.643 84.2129 282 84.1348 282.293 83.9629C282.586 83.7871 282.818 83.5449 282.99 83.2363C283.162 82.9277 283.277 82.582 283.336 82.1992ZM287.309 79.7031L286.389 85H285.328L286.43 78.6602H287.461L287.309 79.7031ZM289.365 78.6074L289.266 79.627C289.184 79.6113 289.1 79.5977 289.014 79.5859C288.932 79.5742 288.85 79.5684 288.768 79.5684C288.514 79.5645 288.285 79.6035 288.082 79.6855C287.883 79.7637 287.705 79.875 287.549 80.0195C287.396 80.1641 287.266 80.334 287.156 80.5293C287.051 80.7246 286.967 80.9355 286.904 81.1621L286.57 81.3379C286.613 81.0215 286.684 80.6973 286.781 80.3652C286.883 80.0332 287.021 79.7266 287.197 79.4453C287.377 79.1641 287.602 78.9375 287.871 78.7656C288.145 78.5938 288.473 78.5137 288.855 78.5254C288.941 78.5254 289.025 78.5332 289.107 78.5488C289.193 78.5645 289.279 78.584 289.365 78.6074ZM291.527 78.6602L290.426 85H289.365L290.467 78.6602H291.527ZM290.678 76.9961C290.678 76.8125 290.734 76.6602 290.848 76.5391C290.965 76.4141 291.115 76.3496 291.299 76.3457C291.482 76.3418 291.633 76.3984 291.75 76.5156C291.871 76.6328 291.93 76.7812 291.926 76.9609C291.926 77.1406 291.865 77.291 291.744 77.4121C291.627 77.5293 291.479 77.5898 291.299 77.5938C291.119 77.5977 290.971 77.5449 290.854 77.4355C290.736 77.3223 290.678 77.1758 290.678 76.9961ZM295.799 78.6602L295.652 79.4922H292.318L292.465 78.6602H295.799ZM293.859 77.1191H294.914L293.842 83.4414C293.83 83.5781 293.834 83.7012 293.854 83.8105C293.873 83.9199 293.92 84.0078 293.994 84.0742C294.068 84.1367 294.182 84.1699 294.334 84.1738C294.42 84.1738 294.504 84.168 294.586 84.1562C294.672 84.1406 294.758 84.127 294.844 84.1152L294.768 85.0059C294.643 85.041 294.514 85.0664 294.381 85.082C294.252 85.1016 294.123 85.1094 293.994 85.1055C293.67 85.1016 293.416 85.0195 293.232 84.8594C293.049 84.6992 292.924 84.4922 292.857 84.2383C292.791 83.9844 292.771 83.7129 292.799 83.4238L293.859 77.1191ZM297.773 84.2793L300.445 78.6602H301.617L297.896 85.9844C297.799 86.1914 297.684 86.3906 297.551 86.582C297.422 86.7734 297.273 86.9453 297.105 87.0977C296.941 87.25 296.756 87.3691 296.549 87.4551C296.342 87.541 296.113 87.584 295.863 87.584C295.758 87.5801 295.652 87.5684 295.547 87.5488C295.438 87.5293 295.332 87.5078 295.23 87.4844L295.295 86.5938C295.342 86.6016 295.389 86.6074 295.436 86.6113C295.482 86.6191 295.527 86.625 295.57 86.6289C295.832 86.6367 296.057 86.5996 296.244 86.5176C296.436 86.4355 296.6 86.3145 296.736 86.1543C296.877 85.9941 297.002 85.8027 297.111 85.5801L297.773 84.2793ZM297.48 78.6602L298.236 83.6406L298.307 84.7598L297.516 85.1465L296.367 78.6602H297.48ZM135.873 94.6602L135.727 95.4922H132.393L132.539 94.6602H135.873ZM133.934 93.1191H134.988L133.916 99.4414C133.904 99.5781 133.908 99.7012 133.928 99.8105C133.947 99.9199 133.994 100.008 134.068 100.074C134.143 100.137 134.256 100.17 134.408 100.174C134.494 100.174 134.578 100.168 134.66 100.156C134.746 100.141 134.832 100.127 134.918 100.115L134.842 101.006C134.717 101.041 134.588 101.066 134.455 101.082C134.326 101.102 134.197 101.109 134.068 101.105C133.744 101.102 133.49 101.02 133.307 100.859C133.123 100.699 132.998 100.492 132.932 100.238C132.865 99.9844 132.846 99.7129 132.873 99.4238L133.934 93.1191ZM138.621 92L137.057 101H135.996L137.561 92H138.621ZM137.42 97.5898L136.986 97.5781C137.041 97.1992 137.141 96.8281 137.285 96.4648C137.434 96.0977 137.627 95.7676 137.865 95.4746C138.107 95.1816 138.395 94.9512 138.727 94.7832C139.062 94.6113 139.445 94.5312 139.875 94.543C140.215 94.5508 140.498 94.6172 140.725 94.7422C140.955 94.8633 141.135 95.0293 141.264 95.2402C141.393 95.4512 141.479 95.6953 141.521 95.9727C141.564 96.2461 141.568 96.5371 141.533 96.8457L140.842 101H139.775L140.479 96.8281C140.506 96.5742 140.496 96.3457 140.449 96.1426C140.406 95.9355 140.309 95.7715 140.156 95.6504C140.008 95.5254 139.793 95.459 139.512 95.4512C139.215 95.4434 138.947 95.5 138.709 95.6211C138.471 95.7422 138.262 95.9082 138.082 96.1191C137.906 96.3262 137.762 96.5586 137.648 96.8164C137.539 97.0703 137.463 97.3281 137.42 97.5898ZM144.387 95.7031L143.467 101H142.406L143.508 94.6602H144.539L144.387 95.7031ZM146.443 94.6074L146.344 95.627C146.262 95.6113 146.178 95.5977 146.092 95.5859C146.01 95.5742 145.928 95.5684 145.846 95.5684C145.592 95.5645 145.363 95.6035 145.16 95.6855C144.961 95.7637 144.783 95.875 144.627 96.0195C144.475 96.1641 144.344 96.334 144.234 96.5293C144.129 96.7246 144.045 96.9355 143.982 97.1621L143.648 97.3379C143.691 97.0215 143.762 96.6973 143.859 96.3652C143.961 96.0332 144.1 95.7266 144.275 95.4453C144.455 95.1641 144.68 94.9375 144.949 94.7656C145.223 94.5938 145.551 94.5137 145.934 94.5254C146.02 94.5254 146.104 94.5332 146.186 94.5488C146.271 94.5645 146.357 94.584 146.443 94.6074ZM148.922 101.117C148.488 101.109 148.111 101.023 147.791 100.859C147.475 100.691 147.215 100.467 147.012 100.186C146.812 99.9004 146.67 99.5762 146.584 99.2129C146.498 98.8496 146.473 98.4688 146.508 98.0703L146.531 97.8184C146.57 97.4121 146.67 97.0137 146.83 96.623C146.99 96.2285 147.203 95.873 147.469 95.5566C147.738 95.2402 148.055 94.9902 148.418 94.8066C148.785 94.6191 149.191 94.5312 149.637 94.543C150.078 94.5508 150.445 94.6445 150.738 94.8242C151.031 95.0039 151.26 95.2422 151.424 95.5391C151.592 95.832 151.701 96.1621 151.752 96.5293C151.803 96.8926 151.807 97.2656 151.764 97.6484L151.699 98.1348H147.1L147.24 97.25L150.75 97.2559L150.768 97.1621C150.807 96.8809 150.791 96.6094 150.721 96.3477C150.65 96.0859 150.521 95.8711 150.334 95.7031C150.15 95.5312 149.902 95.4414 149.59 95.4336C149.266 95.4219 148.984 95.4883 148.746 95.6328C148.508 95.7734 148.309 95.9648 148.148 96.207C147.988 96.4453 147.861 96.707 147.768 96.9922C147.678 97.2734 147.615 97.5488 147.58 97.8184L147.557 98.0645C147.533 98.3145 147.541 98.5664 147.58 98.8203C147.619 99.0742 147.693 99.3066 147.803 99.5176C147.916 99.7246 148.072 99.8945 148.271 100.027C148.471 100.156 148.717 100.225 149.01 100.232C149.365 100.24 149.684 100.164 149.965 100.004C150.25 99.8398 150.51 99.6328 150.744 99.3828L151.348 99.8984C151.164 100.168 150.945 100.395 150.691 100.578C150.438 100.762 150.16 100.898 149.859 100.988C149.559 101.078 149.246 101.121 148.922 101.117ZM156.246 99.916L156.773 96.6406C156.801 96.3984 156.777 96.1855 156.703 96.002C156.633 95.8184 156.514 95.6758 156.346 95.5742C156.182 95.4727 155.975 95.418 155.725 95.4102C155.506 95.4062 155.291 95.4414 155.08 95.5156C154.873 95.5898 154.693 95.7012 154.541 95.8496C154.389 95.998 154.289 96.1855 154.242 96.4121L153.188 96.418C153.215 96.1016 153.314 95.8262 153.486 95.5918C153.658 95.3535 153.873 95.1562 154.131 95C154.389 94.8398 154.666 94.7227 154.963 94.6484C155.26 94.5703 155.549 94.5332 155.83 94.5371C156.256 94.5449 156.625 94.6367 156.938 94.8125C157.254 94.9844 157.492 95.2266 157.652 95.5391C157.812 95.8516 157.871 96.2266 157.828 96.6641L157.342 99.6172C157.307 99.832 157.285 100.049 157.277 100.268C157.273 100.482 157.299 100.693 157.354 100.9L157.342 101L156.27 101.006C156.227 100.826 156.205 100.645 156.205 100.461C156.209 100.277 156.223 100.096 156.246 99.916ZM156.896 97.1562L156.773 97.918L155.771 97.9121C155.561 97.9121 155.338 97.9277 155.104 97.959C154.869 97.9902 154.646 98.0488 154.436 98.1348C154.225 98.2207 154.047 98.3457 153.902 98.5098C153.758 98.6699 153.67 98.8789 153.639 99.1367C153.615 99.3477 153.641 99.5312 153.715 99.6875C153.793 99.8398 153.91 99.959 154.066 100.045C154.223 100.131 154.404 100.176 154.611 100.18C154.881 100.184 155.146 100.131 155.408 100.021C155.67 99.9121 155.898 99.7559 156.094 99.5527C156.289 99.3496 156.424 99.1152 156.498 98.8496L156.885 99.3711C156.811 99.6289 156.689 99.8672 156.521 100.086C156.354 100.301 156.154 100.486 155.924 100.643C155.697 100.799 155.453 100.92 155.191 101.006C154.93 101.092 154.668 101.133 154.406 101.129C154.051 101.121 153.729 101.041 153.439 100.889C153.154 100.736 152.928 100.523 152.76 100.25C152.596 99.9727 152.525 99.6504 152.549 99.2832C152.572 98.8809 152.678 98.543 152.865 98.2695C153.053 97.9961 153.293 97.7773 153.586 97.6133C153.883 97.4492 154.207 97.332 154.559 97.2617C154.91 97.1875 155.258 97.1504 155.602 97.1504L156.896 97.1562ZM162.439 94.6602L162.293 95.4922H158.959L159.105 94.6602H162.439ZM160.5 93.1191H161.555L160.482 99.4414C160.471 99.5781 160.475 99.7012 160.494 99.8105C160.514 99.9199 160.561 100.008 160.635 100.074C160.709 100.137 160.822 100.17 160.975 100.174C161.061 100.174 161.145 100.168 161.227 100.156C161.312 100.141 161.398 100.127 161.484 100.115L161.408 101.006C161.283 101.041 161.154 101.066 161.021 101.082C160.893 101.102 160.764 101.109 160.635 101.105C160.311 101.102 160.057 101.02 159.873 100.859C159.689 100.699 159.564 100.492 159.498 100.238C159.432 99.9844 159.412 99.7129 159.439 99.4238L160.5 93.1191ZM166.477 99.2832C166.512 99.041 166.467 98.8516 166.342 98.7148C166.221 98.5781 166.061 98.4746 165.861 98.4043C165.666 98.3301 165.475 98.2695 165.287 98.2227C165.053 98.1641 164.816 98.0918 164.578 98.0059C164.34 97.9199 164.121 97.8105 163.922 97.6777C163.727 97.541 163.57 97.373 163.453 97.1738C163.34 96.9707 163.289 96.7246 163.301 96.4355C163.316 96.123 163.398 95.8477 163.547 95.6094C163.699 95.3711 163.895 95.1719 164.133 95.0117C164.375 94.8516 164.639 94.7324 164.924 94.6543C165.209 94.5762 165.492 94.5391 165.773 94.543C166.172 94.5508 166.533 94.6328 166.857 94.7891C167.186 94.9453 167.445 95.1699 167.637 95.4629C167.828 95.7559 167.918 96.1113 167.906 96.5293L166.857 96.5234C166.865 96.3008 166.82 96.1094 166.723 95.9492C166.625 95.7891 166.49 95.666 166.318 95.5801C166.146 95.4902 165.951 95.4434 165.732 95.4395C165.525 95.4355 165.322 95.4688 165.123 95.5391C164.924 95.6055 164.754 95.7109 164.613 95.8555C164.473 95.9961 164.387 96.1797 164.355 96.4062C164.332 96.5742 164.357 96.7129 164.432 96.8223C164.506 96.9277 164.607 97.0137 164.736 97.0801C164.869 97.1426 165.008 97.1953 165.152 97.2383C165.301 97.2773 165.436 97.3125 165.557 97.3438C165.877 97.4336 166.193 97.5469 166.506 97.6836C166.818 97.8203 167.072 98.0098 167.268 98.252C167.463 98.4902 167.551 98.8047 167.531 99.1953C167.516 99.5273 167.428 99.8164 167.268 100.062C167.111 100.305 166.908 100.506 166.658 100.666C166.412 100.822 166.141 100.938 165.844 101.012C165.547 101.086 165.25 101.121 164.953 101.117C164.543 101.109 164.16 101.025 163.805 100.865C163.453 100.701 163.172 100.467 162.961 100.162C162.75 99.8535 162.65 99.4785 162.662 99.0371L163.723 99.043C163.723 99.2969 163.775 99.5117 163.881 99.6875C163.99 99.8594 164.141 99.9902 164.332 100.08C164.523 100.17 164.742 100.217 164.988 100.221C165.195 100.225 165.406 100.197 165.621 100.139C165.84 100.08 166.027 99.9824 166.184 99.8457C166.344 99.7051 166.441 99.5176 166.477 99.2832ZM168.697 100.443C168.697 100.252 168.758 100.092 168.879 99.9629C169.004 99.834 169.162 99.7676 169.354 99.7637C169.545 99.7598 169.701 99.8184 169.822 99.9395C169.947 100.061 170.008 100.217 170.004 100.408C170.004 100.6 169.941 100.758 169.816 100.883C169.695 101.008 169.539 101.072 169.348 101.076C169.16 101.08 169.004 101.023 168.879 100.906C168.754 100.789 168.693 100.635 168.697 100.443Z" fill="white"/>
<path d="M138.93 39.8182H141.386V46.3857C141.386 47.1446 141.206 47.8059 140.844 48.3693C140.483 48.9295 139.979 49.3636 139.333 49.6719C138.687 49.9768 137.936 50.1293 137.081 50.1293C136.216 50.1293 135.46 49.9768 134.814 49.6719C134.168 49.3636 133.665 48.9295 133.308 48.3693C132.95 47.8059 132.771 47.1446 132.771 46.3857V39.8182H135.232V46.1719C135.232 46.5232 135.308 46.8364 135.46 47.1115C135.616 47.3866 135.833 47.602 136.112 47.7578C136.39 47.9136 136.713 47.9915 137.081 47.9915C137.449 47.9915 137.77 47.9136 138.045 47.7578C138.324 47.602 138.541 47.3866 138.697 47.1115C138.853 46.8364 138.93 46.5232 138.93 46.1719V39.8182ZM143.929 50V39.8182H148.135C148.897 39.8182 149.555 39.9673 150.108 40.2656C150.665 40.5606 151.095 40.9732 151.396 41.5036C151.698 42.0305 151.849 42.6437 151.849 43.343C151.849 44.0457 151.694 44.6605 151.386 45.1875C151.081 45.7112 150.645 46.1172 150.079 46.4055C149.512 46.6939 148.839 46.8381 148.06 46.8381H145.465V44.8991H147.603C147.974 44.8991 148.284 44.8345 148.532 44.7053C148.784 44.576 148.975 44.3954 149.104 44.1634C149.233 43.928 149.298 43.6546 149.298 43.343C149.298 43.0282 149.233 42.7564 149.104 42.5277C148.975 42.2957 148.784 42.1167 148.532 41.9908C148.281 41.8648 147.971 41.8018 147.603 41.8018H146.39V50H143.929ZM154.062 50V39.8182H156.523V48.0014H160.758V50H154.062ZM172.246 44.9091C172.246 46.0294 172.03 46.9789 171.6 47.7578C171.169 48.5367 170.585 49.1283 169.85 49.5327C169.117 49.937 168.295 50.1392 167.384 50.1392C166.469 50.1392 165.645 49.9354 164.913 49.5277C164.18 49.12 163.599 48.5284 163.168 47.7528C162.74 46.974 162.526 46.026 162.526 44.9091C162.526 43.7888 162.74 42.8393 163.168 42.0604C163.599 41.2815 164.18 40.6899 164.913 40.2855C165.645 39.8812 166.469 39.679 167.384 39.679C168.295 39.679 169.117 39.8812 169.85 40.2855C170.585 40.6899 171.169 41.2815 171.6 42.0604C172.03 42.8393 172.246 43.7888 172.246 44.9091ZM169.73 44.9091C169.73 44.2462 169.636 43.6861 169.447 43.2287C169.261 42.7713 168.993 42.425 168.642 42.1896C168.294 41.9543 167.874 41.8366 167.384 41.8366C166.896 41.8366 166.477 41.9543 166.126 42.1896C165.775 42.425 165.504 42.7713 165.316 43.2287C165.13 43.6861 165.037 44.2462 165.037 44.9091C165.037 45.572 165.13 46.1321 165.316 46.5895C165.504 47.0469 165.775 47.3932 166.126 47.6286C166.477 47.8639 166.896 47.9815 167.384 47.9815C167.874 47.9815 168.294 47.8639 168.642 47.6286C168.993 47.3932 169.261 47.0469 169.447 46.5895C169.636 46.1321 169.73 45.572 169.73 44.9091ZM176.284 50H173.639L177.074 39.8182H180.35L183.786 50H181.141L178.749 42.3835H178.67L176.284 50ZM175.931 45.9929H181.459V47.8622H175.931V45.9929ZM189.645 50H185.882V39.8182H189.64C190.678 39.8182 191.571 40.022 192.32 40.4297C193.073 40.834 193.653 41.4174 194.06 42.1797C194.468 42.9387 194.672 43.8468 194.672 44.9041C194.672 45.9647 194.468 46.8762 194.06 47.6385C193.656 48.4008 193.077 48.9858 192.325 49.3935C191.573 49.7978 190.68 50 189.645 50ZM188.343 47.902H189.551C190.121 47.902 190.603 47.8059 190.998 47.6136C191.395 47.4181 191.695 47.1016 191.898 46.6641C192.103 46.2232 192.206 45.6366 192.206 44.9041C192.206 44.1716 192.103 43.5883 191.898 43.1541C191.692 42.7166 191.389 42.4018 190.988 42.2095C190.59 42.014 190.099 41.9162 189.516 41.9162H188.343V47.902ZM203.577 39.8182V50H201.116V39.8182H203.577ZM206.122 39.8182H209.17L211.755 46.1222H211.874L214.46 39.8182H217.507V50H215.111V43.7457H215.026L212.58 49.9354H211.049L208.603 43.7109H208.518V50H206.122V39.8182ZM222.244 50H219.6L223.035 39.8182H226.311L229.747 50H227.102L224.71 42.3835H224.631L222.244 50ZM221.892 45.9929H227.42V47.8622H221.892V45.9929ZM238.046 43.1442C237.99 42.9354 237.907 42.7514 237.798 42.5923C237.688 42.4299 237.554 42.2924 237.395 42.1797C237.236 42.067 237.054 41.9825 236.848 41.9261C236.643 41.8665 236.417 41.8366 236.172 41.8366C235.678 41.8366 235.25 41.956 234.889 42.1946C234.531 42.4332 234.254 42.7812 234.059 43.2386C233.863 43.6927 233.766 44.2446 233.766 44.8942C233.766 45.5471 233.86 46.1039 234.049 46.5646C234.238 47.0253 234.511 47.3767 234.869 47.6186C235.227 47.8606 235.661 47.9815 236.172 47.9815C236.623 47.9815 237.004 47.9086 237.315 47.7628C237.63 47.6136 237.869 47.4032 238.031 47.1314C238.194 46.8596 238.275 46.5398 238.275 46.1719L238.732 46.2266H236.256V44.4318H240.646V45.7791C240.646 46.6906 240.452 47.4711 240.065 48.1207C239.68 48.7704 239.15 49.2692 238.474 49.6172C237.801 49.9652 237.027 50.1392 236.152 50.1392C235.181 50.1392 234.327 49.9287 233.592 49.5078C232.856 49.0869 232.282 48.487 231.871 47.7081C231.46 46.9259 231.255 45.9979 231.255 44.924C231.255 44.0888 231.379 43.348 231.628 42.7017C231.876 42.0521 232.223 41.5019 232.667 41.0511C233.114 40.6004 233.631 40.259 234.218 40.027C234.808 39.795 235.443 39.679 236.122 39.679C236.712 39.679 237.261 39.7635 237.768 39.9325C238.278 40.1016 238.729 40.3402 239.12 40.6484C239.514 40.9567 239.834 41.3229 240.08 41.7472C240.325 42.1714 240.477 42.6371 240.537 43.1442H238.046ZM243.097 50V39.8182H250.196V41.8168H245.558V43.9048H249.833V45.9084H245.558V48.0014H250.196V50H243.097Z" fill="white"/>
<defs>
<filter id="filter0_d_512_380" x="0.5" y="0.5" width="337" height="151" filterUnits="userSpaceOnUse" color-interpolation-filters="sRGB">
<feFlood flood-opacity="0" result="BackgroundImageFix"/>
<feColorMatrix in="SourceAlpha" type="matrix" values="0 0 0 0 0 0 0 0 0 0 0 0 0 0 0 0 0 0 127 0" result="hardAlpha"/>
<feOffset dy="8"/>
<feGaussianBlur stdDeviation="4"/>
<feComposite in2="hardAlpha" operator="out"/>
<feColorMatrix type="matrix" values="0 0 0 0 0.945098 0 0 0 0 0.960784 0 0 0 0 0.976471 0 0 0 1 0"/>
<feBlend mode="normal" in2="BackgroundImageFix" result="effect1_dropShadow_512_380"/>
<feBlend mode="normal" in="SourceGraphic" in2="effect1_dropShadow_512_380" result="shape"/>
</filter>
<linearGradient id="paint0_linear_512_380" x1="17.5" y1="14.5" x2="323" y2="121" gradientUnits="userSpaceOnUse">
<stop stop-color="#6F3266"/>
<stop offset="1" stop-color="#C27CB5"/>
</linearGradient>
<linearGradient id="paint1_linear_512_380" x1="256.067" y1="55.6519" x2="499.509" y2="226.58" gradientUnits="userSpaceOnUse">
<stop stop-color="white" stop-opacity="0.15"/>
<stop offset="1" stop-color="#999999"/>
</linearGradient>
<linearGradient id="paint2_linear_512_380" x1="76" y1="31" x2="76" y2="105" gradientUnits="userSpaceOnUse">
<stop stop-color="#F46AE1"/>
<stop offset="1" stop-color="#999999"/>
</linearGradient>
</defs>
</svg>
