<svg width="74" height="74" viewBox="0 0 74 74" fill="none" xmlns="http://www.w3.org/2000/svg">
<path d="M59.8882 42.2782C58.9539 42.2782 58.0579 42.6495 57.3972 43.3105C56.7365 43.9715 56.3654 44.868 56.3654 45.8028V47.1422L51.1516 41.9257C49.3106 40.0983 46.8225 39.073 44.2292 39.073C41.636 39.073 39.1478 40.0983 37.3068 41.9257L34.8409 44.393L26.1042 35.6518C24.2375 33.874 21.759 32.8825 19.1818 32.8825C16.6047 32.8825 14.1262 33.874 12.2595 35.6518L7.04567 40.8683V21.1303C7.04567 20.1955 7.41683 19.299 8.07749 18.638C8.73815 17.977 9.6342 17.6057 10.5685 17.6057H35.2284C36.1627 17.6057 37.0587 17.2343 37.7194 16.5733C38.3801 15.9123 38.7512 15.0158 38.7512 14.081C38.7512 13.1462 38.3801 12.2497 37.7194 11.5887C37.0587 10.9277 36.1627 10.5564 35.2284 10.5564H10.5685C7.76557 10.5564 5.07743 11.6704 3.09545 13.6534C1.11347 15.6364 0 18.3259 0 21.1303V63.4261C0 66.2304 1.11347 68.92 3.09545 70.903C5.07743 72.886 7.76557 74 10.5685 74H52.8426C55.6455 74 58.3336 72.886 60.3156 70.903C62.2976 68.92 63.4111 66.2304 63.4111 63.4261V45.8028C63.4111 44.868 63.0399 43.9715 62.3793 43.3105C61.7186 42.6495 60.8225 42.2782 59.8882 42.2782ZM10.5685 66.9507C9.6342 66.9507 8.73815 66.5794 8.07749 65.9184C7.41683 65.2574 7.04567 64.3609 7.04567 63.4261V50.8431L17.2619 40.6216C17.7794 40.1281 18.4669 39.8529 19.1818 39.8529C19.8968 39.8529 20.5842 40.1281 21.1018 40.6216L32.2692 51.7947L47.4174 66.9507H10.5685ZM56.3654 63.4261C56.3603 64.1008 56.1379 64.7559 55.7313 65.2941L39.8433 49.3275L42.3093 46.8602C42.5618 46.6023 42.8633 46.3974 43.196 46.2575C43.5287 46.1177 43.886 46.0456 44.2468 46.0456C44.6077 46.0456 44.965 46.1177 45.2977 46.2575C45.6304 46.3974 45.9318 46.6023 46.1844 46.8602L56.3654 57.1169V63.4261ZM72.9579 11.5785L62.3894 1.00457C62.0544 0.683686 61.6593 0.432149 61.2269 0.264396C60.3692 -0.088132 59.4072 -0.088132 58.5496 0.264396C58.1171 0.432149 57.722 0.683686 57.387 1.00457L46.8185 11.5785C46.1551 12.2422 45.7825 13.1424 45.7825 14.081C45.7825 15.0196 46.1551 15.9198 46.8185 16.5835C47.4819 17.2472 48.3816 17.6201 49.3197 17.6201C50.2579 17.6201 51.1576 17.2472 51.8209 16.5835L56.3654 12.0015V31.7042C56.3654 32.639 56.7365 33.5355 57.3972 34.1965C58.0579 34.8575 58.9539 35.2289 59.8882 35.2289C60.8225 35.2289 61.7186 34.8575 62.3793 34.1965C63.0399 33.5355 63.4111 32.639 63.4111 31.7042V12.0015L67.9555 16.5835C68.283 16.9139 68.6726 17.1761 69.1019 17.355C69.5312 17.534 69.9917 17.6261 70.4567 17.6261C70.9218 17.6261 71.3822 17.534 71.8115 17.355C72.2408 17.1761 72.6305 16.9139 72.9579 16.5835C73.2881 16.2558 73.5502 15.866 73.7291 15.4365C73.9079 15.007 74 14.5463 74 14.081C74 13.6157 73.9079 13.155 73.7291 12.7255C73.5502 12.296 73.2881 11.9062 72.9579 11.5785Z" fill="url(#paint0_linear_422_1085)"/>
<defs>
<linearGradient id="paint0_linear_422_1085" x1="37" y1="0" x2="37" y2="74" gradientUnits="userSpaceOnUse">
<stop stop-color="#914186"/>
<stop offset="1" stop-color="#2B1328"/>
</linearGradient>
</defs>
</svg>
